<?xml version="1.0" standalone="no"?>
<!DOCTYPE svg PUBLIC "-//W3C//DTD SVG 20010904//EN"
 "http://www.w3.org/TR/2001/REC-SVG-20010904/DTD/svg10.dtd">
<svg version="1.0" xmlns="http://www.w3.org/2000/svg"
 width="800.000000pt" height="800.000000pt" viewBox="0 0 800.000000 800.000000"
 preserveAspectRatio="xMidYMid meet">
<metadata>
Created by potrace 1.11, written by Peter Selinger 2001-2013
</metadata>
<g transform="translate(0.000000,800.000000) scale(0.100000,-0.100000)"
fill="#000000" stroke="none">
<path d="M2120 6099 l0 -622 101 -171 c56 -94 116 -195 135 -223 19 -29 34
-55 34 -59 0 -3 14 -26 30 -51 17 -24 30 -46 30 -49 0 -2 17 -33 39 -67 21
-34 132 -219 246 -412 114 -192 215 -361 223 -375 9 -14 22 -34 28 -45 11 -20
228 -385 448 -752 67 -112 126 -211 131 -220 6 -10 20 -34 31 -53 80 -131 470
-787 473 -795 2 -5 18 -32 36 -60 40 -64 179 -297 184 -310 2 -5 16 -28 31
-50 15 -22 29 -45 31 -50 2 -6 53 -93 113 -193 l108 -182 649 0 c357 0 649 2
649 4 0 2 -72 123 -160 268 -88 145 -175 290 -195 323 -19 33 -40 67 -45 75
-6 8 -34 54 -63 102 -28 48 -105 175 -169 281 -64 106 -118 197 -120 203 -2 7
42 44 97 84 141 102 203 156 340 294 469 474 681 1048 632 1711 -4 50 -9 101
-11 115 -3 14 -7 43 -10 65 -52 363 -198 715 -421 1011 -70 93 -265 290 -350
354 -33 25 -66 51 -73 58 -8 7 -28 20 -45 29 -18 9 -34 19 -37 23 -9 12 -124
78 -215 123 -203 101 -491 188 -700 212 -33 4 -69 10 -80 13 -11 3 -494 7
-1072 9 l-1053 4 0 -622z m1965 -431 c325 -43 622 -225 798 -489 73 -110 141
-259 162 -357 3 -12 7 -32 10 -44 3 -13 7 -36 10 -53 3 -16 7 -43 10 -60 8
-40 7 -247 0 -304 -12 -88 -59 -237 -101 -321 -51 -99 -155 -232 -246 -314
-65 -57 -179 -146 -188 -146 -4 0 -323 486 -405 617 -5 9 -98 152 -206 318
-108 166 -198 306 -200 311 -2 5 -35 56 -73 114 -76 116 -159 244 -275 423
-42 65 -104 161 -138 213 -35 52 -63 97 -63 100 0 9 833 2 905 -8z"/>
<path d="M2120 2780 l0 -1420 550 0 550 0 0 524 0 525 -66 108 c-37 59 -90
146 -119 193 -29 47 -141 231 -250 410 -108 179 -221 363 -250 410 -28 47
-103 168 -165 270 -62 102 -120 196 -129 210 -9 14 -18 30 -21 35 -14 28 -93
155 -96 155 -2 0 -4 -639 -4 -1420z"/>
</g>
</svg>
