<?xml version="1.0" standalone="no"?>
<!DOCTYPE svg PUBLIC "-//W3C//DTD SVG 1.1//EN" "http://www.w3.org/Graphics/SVG/1.1/DTD/svg11.dtd" >
<svg xmlns="http://www.w3.org/2000/svg">
<metadata>
<json>
{
	"fontFamily": "rz-icons",
	"majorVersion": 1,
	"minorVersion": 0,
	"version": "Version 1.0",
	"fontId": "rz-icons",
	"psName": "rz-icons",
	"subFamily": "Regular",
	"fullName": "rz-icons",
	"description": "Font generated by IcoMoon."
}
</json>
</metadata>
<defs>
<font id="rz-icons" horiz-adv-x="512">
<font-face units-per-em="512" ascent="480" descent="-32" />
<missing-glyph horiz-adv-x="512" />
<glyph unicode="&#x20;" d="" horiz-adv-x="256" />
<glyph unicode="&#xe600;" d="M477.44 158.848c-15.552 13.792-30.848 27.84-46.368 41.632-2.528 2.24-3.072 4.416-2.944 7.712 0.352 10.624 0.352 21.248-0.032 31.872-0.096 3.168 0.544 5.184 2.88 7.264 15.488 13.824 30.816 27.872 46.368 41.632 2.72 2.4 3.2 4.544 1.856 7.648-4.864 11.456-9.696 22.912-14.4 34.432-1.216 2.944 7.36 3.744 4.192 3.52-10.432-0.768-20.992-1.216-20.992-1.792 0 0.032 0 0.064 0 0.064 0-0.512-31.232-1.216-41.696-1.44-2.112-0.064-9.92 0.992-11.456 2.464-8.16 7.776-18.72 15.776-26.528 23.904-1.376 1.44-3.776 3.904-3.68 5.856 0.928 21.248 1.568 42.464 2.496 63.712 0.064 1.632-1.664 4.288-3.072 4.896-11.84 5.248-23.968 10.112-35.904 15.136-2.848 1.216-4.768 0.48-6.848-1.888-13.792-15.52-27.872-30.848-41.696-46.368-2.176-2.432-4.288-3.232-7.68-3.072-10.272 0.448-20.608 0.576-30.88 0.096-4.128-0.192-6.592 0.768-9.28 3.808-13.536 15.328-27.424 30.336-40.992 45.632-2.144 2.432-4.032 2.944-6.816 1.76-11.776-4.96-23.616-9.728-35.296-14.944-1.536-0.704-3.168-3.456-3.072-5.184 0.928-21.408 2.176-42.816 3.168-64.224 0.064-1.664-0.928-3.776-2.112-5.024-8.064-8.352-16.288-16.576-24.608-24.64-1.248-1.184-3.36-2.176-5.056-2.080-21.248 0.96-42.464 2.080-63.712 3.36-3.168 0.192-4.864-0.704-6.080-3.648-4.768-11.68-9.664-23.296-14.56-34.912-1.184-2.848-0.608-4.672 1.792-6.816 15.648-13.92 31.104-28.064 46.752-41.984 2.4-2.144 2.88-4.16 2.784-7.264-0.32-10.624-0.384-21.248 0-31.872 0.128-3.36-0.544-5.472-3.008-7.68-15.648-13.92-31.104-28.032-46.72-41.984-1.92-1.728-2.944-3.2-1.792-5.888 5.12-12.064 10.016-24.224 15.296-36.224 0.64-1.44 3.232-2.912 4.864-2.816 21.248 0.928 42.464 2.208 63.712 3.136 1.952 0.096 4.48-0.928 5.888-2.304 8.256-7.936 16.32-16.064 24.288-24.256 1.216-1.248 2.368-3.328 2.272-4.96-0.96-21.248-2.080-42.464-3.328-63.712-0.192-3.072 0.384-4.96 3.424-6.176 11.68-4.768 23.296-9.632 34.88-14.592 3.104-1.312 4.992-0.48 7.2 1.984 13.6 15.264 27.424 30.336 40.992 45.632 2.56 2.88 4.928 3.808 8.896 3.616 10.112-0.512 20.256-0.448 30.368-0.032 3.68 0.16 6.048-0.384 8.576-3.2 13.76-15.552 27.808-30.88 41.664-46.368 1.92-2.176 3.616-2.912 6.368-1.728 11.904 5.056 23.904 9.888 35.744 15.136 1.44 0.64 3.008 3.2 2.944 4.8-0.928 21.248-2.208 42.464-3.104 63.712-0.096 2.080 1.12 4.672 2.592 6.24 7.776 8.16 15.776 16.16 23.872 24 1.344 1.312 3.616 2.4 5.408 2.336 21.248-0.96 42.464-2.112 63.712-3.36 2.944-0.16 4.608 0.64 5.76 3.392 4.768 11.68 9.632 23.296 14.624 34.88 1.312 3.040 0.608 4.96-1.92 7.168zM256 84c-73.44 0.672-139.872 67.072-140 140-0.128 73.056 66.848 139.936 140 140 59.776 0.064 119.904-44.704 137.344-100.032 1.568-4.96-2.496-7.968-7.68-7.968h-97.664v52l-84-84 84-84v52h97.536c5.184 0 9.248-3.040 7.68-8-17.632-55.776-77.696-100.544-137.216-100z" />
<glyph unicode="&#xe601;" d="M509.088 149.568c-17.76 15.744-35.264 31.808-52.992 47.584-2.88 2.56-3.488 5.024-3.36 8.832 0.416 12.128 0.384 24.288-0.032 36.416-0.128 3.648 0.608 5.92 3.296 8.288 17.728 15.808 35.2 31.84 52.992 47.584 3.104 2.752 3.648 5.184 2.144 8.736-5.568 13.088-11.072 26.176-16.448 39.36-1.376 3.392-5.312 4.288-8.928 4.032-11.936-0.896-37.728-1.408-37.728-2.048 0 0.032 0 0.064 0 0.064 0-0.608-21.984-1.376-33.952-1.664-2.4-0.064-4.48 1.152-6.208 2.816-9.312 8.896-17.952 18.048-26.88 27.328-1.568 1.632-2.592 4.48-2.496 6.688 1.088 24.288 2.656 48.544 3.712 72.8 0.096 1.888-1.472 4.896-3.072 5.6-13.504 5.984-27.2 11.552-40.8 17.312-3.264 1.376-5.344 0.544-7.712-2.144-15.776-17.76-31.808-35.264-47.616-52.992-2.496-2.784-4.864-3.712-8.736-3.52-11.744 0.512-23.552 0.672-35.264 0.096-4.736-0.224-7.52 0.896-10.624 4.352-15.488 17.504-31.328 34.656-46.848 52.128-2.464 2.752-4.608 3.36-7.776 2.016-13.472-5.664-27.008-11.136-40.32-17.088-1.76-0.8-3.616-3.936-3.52-5.92 1.056-24.48 2.496-48.928 3.616-73.376 0.096-1.888-1.056-4.32-2.432-5.728-9.216-9.536-18.592-18.912-28.128-28.16-1.408-1.376-3.84-2.496-5.76-2.4-24.288 1.12-48.544 2.368-72.8 3.84-3.648 0.224-5.568-0.832-6.944-4.16-5.44-13.344-11.040-26.624-16.64-39.872-1.376-3.232-0.672-5.344 2.048-7.776 17.888-15.904 35.52-32.064 53.408-47.968 2.752-2.432 3.296-4.768 3.168-8.32-0.384-12.128-0.448-24.288 0-36.416 0.128-3.84-0.608-6.24-3.424-8.768-17.856-15.904-35.552-32.032-53.408-48-2.208-1.984-3.36-3.648-2.048-6.72 5.856-13.76 11.424-27.68 17.472-41.376 0.704-1.632 3.712-3.328 5.568-3.232 24.288 1.056 48.544 2.496 72.8 3.584 2.24 0.096 5.12-1.056 6.752-2.624 9.44-9.056 18.656-18.336 27.744-27.744 1.376-1.44 2.688-3.808 2.624-5.664-1.088-24.288-2.368-48.544-3.808-72.8-0.224-3.52 0.448-5.664 3.904-7.072 13.344-5.44 26.624-11.008 39.872-16.672 3.52-1.504 5.728-0.544 8.224 2.272 15.52 17.472 31.36 34.656 46.848 52.128 2.912 3.296 5.632 4.352 10.176 4.128 11.552-0.608 23.168-0.544 34.72-0.032 4.192 0.192 6.912-0.416 9.792-3.68 15.744-17.792 31.776-35.264 47.616-52.992 2.208-2.464 4.128-3.328 7.296-1.984 13.6 5.792 27.328 11.296 40.864 17.28 1.664 0.736 3.424 3.648 3.36 5.504-1.056 24.288-2.496 48.544-3.552 72.8-0.096 2.368 1.28 5.344 2.976 7.136 8.896 9.344 18.016 18.464 27.264 27.424 1.536 1.472 4.16 2.752 6.208 2.656 24.288-1.088 48.544-2.432 72.8-3.84 3.36-0.192 5.28 0.704 6.56 3.872 5.472 13.344 11.008 26.624 16.704 39.872 1.408 3.488 0.608 5.664-2.272 8.224zM256 64c-83.936 0.768-159.872 76.64-160 160-0.128 83.488 76.416 159.904 160 160 68.288 0.064 137.024-53.376 156.96-116.608 1.792-5.664-2.848-11.392-8.768-11.392h-116.192v64l-96-96 96-96v64h116.064c5.952 0 10.56-5.76 8.768-11.424-20.16-63.744-88.768-117.216-156.832-116.576z" />
<glyph unicode="&#xe602;" d="M329.677 392.935c-27.571 0-53.581-6.554-76.8-17.895-23.219 11.341-49.229 17.894-76.8 17.894-96.896 0-175.463-78.566-175.463-175.462s78.541-175.462 175.463-175.462c27.597 0 53.581 6.553 76.8 17.894 23.219-11.341 49.203-17.894 76.8-17.894 96.896 0 175.462 78.541 175.462 175.462s-78.567 175.462-175.462 175.462zM176.077 80.409c-75.571 0-137.063 61.491-137.063 137.063s61.491 137.063 137.063 137.063c13.056 0 25.421-2.406 37.401-5.837-36.275-32.154-59.264-78.951-59.264-131.2s22.989-99.072 59.264-131.2c-11.981-3.456-24.346-5.888-37.401-5.888zM313.139 217.472c0-47.13-23.936-88.755-60.262-113.433-36.327 24.678-60.262 66.304-60.262 113.433s23.936 88.755 60.262 113.433c36.327-24.678 60.262-66.304 60.262-113.433zM329.677 80.409c-13.056 0-25.421 2.406-37.401 5.837 36.275 32.154 59.264 78.951 59.264 131.2s-22.989 99.072-59.264 131.2c11.955 3.43 24.346 5.837 37.401 5.837 75.571 0 137.063-61.491 137.063-137.063s-61.491-137.011-137.063-137.011z" />
<glyph unicode="&#xe603;" d="M480 32c-160 0-320 0-448 0 0 0 0 2.080 0 0.32 0-0.288 0 153.184 0 156.416 0 2.816 0.608 5.888 1.888 8.416 35.936 71.296 72 142.496 107.968 213.792 1.664 3.328 3.488 4.736 7.488 4.736 71.616-0.16 143.2-0.16 214.816 0 4 0 5.792-1.344 7.488-4.672 35.84-71.008 71.808-141.984 107.616-212.992 1.408-2.784 0.544-5.344 0.544-8.448 0 4.864 0.224-104.832 0.224-156.832-0.032-1.792-0.032-0.736-0.032-0.736zM63.552 192c2.4 0 4.16 0 5.92 0 23.328 0 74.304 0 74.304 0 3.584 0 36.896-50.048 53.568-75.008 2.144-3.2 4.32-5.76 8.352-5.728 33.984 0.16 67.968-0.384 101.92-0.576 4.032-0.032 6.208 4.352 8.352 7.552 16.768 25.12 48.512 73.728 51.744 73.728 0 0 74.656 0 76.128 0 1.76 0 3.552 0 5.92 0-1.024 0-1.696 4.64-2.496 6.208-31.104 61.44-62.24 123.2-93.216 184.704-1.696 3.392-3.52 4.896-7.488 4.896-59.968-0.16-119.904-0.064-179.872 0.096-3.968 0-5.76-1.28-7.488-4.672-31.008-61.472-62.144-123.616-93.216-185.024-0.768-1.568-1.44-6.176-2.432-6.176zM160 224v32c96 0 128 0 192 0v-32c-64 0-96 0-192 0zM192 288v32c32 0 96 0 128 0v-32c-32 0-96 0-128 0z" />
<glyph unicode="&#xe604;" d="M36.256 160c2.72 0 4.768 0 6.784 0 26.656 0 53.28-0.64 79.936-0.448 4.096 0.032 6.464-1.504 8.704-4.96 19.072-28.896 38.4-57.76 57.472-86.656 2.464-3.712 4.96-5.408 9.568-5.376 38.816 0.192 77.664 0.16 116.48-0.032 4.608-0.032 7.104 1.6 9.568 5.312 19.168 29.056 38.592 57.952 57.76 86.976 2.016 3.040 4.16 4.736 7.84 4.736 26.848-0.16 53.664 0.448 80.512 0.448 2.016 0 4.032 0 6.784 0-1.184 0-1.92 3.968-2.848 5.792-35.52 71.072-71.104 141.856-106.528 212.992-1.952 3.936-4 5.312-8.544 5.312-39.776 0-199.776-0.064-205.568-0.064-4.544 0-6.592-1.568-8.544-5.472-35.424-71.136-71.008-141.664-106.528-212.736-0.928-1.856-1.696-5.824-2.848-5.824zM512-32c-160 0-352 0-512 0 0 0 0 2.464 0 4.48 0 60.32 0.064 155.52 0.064 180.96 0 3.264 0.768 6.816 2.24 9.728 41.088 82.464 82.304 164.864 123.424 247.328 1.92 3.84 4 5.472 8.576 5.472 81.824-0.16 163.648-0.16 245.472 0 4.576 0 6.624-1.568 8.544-5.408 40.96-82.176 82.048-164.256 123.008-246.432 1.6-3.232 0.544-9.792 0.544-9.792 0 5.632 0.16-179.872 0.16-181.408-0.032-2.048-0.032-4.928-0.032-4.928zM128 192v32c64 0 192 0 256 0v-32c-64 0-192 0-256 0zM160 256v32c64 0 128 0 192 0v-32c-64 0-128 0-192 0z" />
<glyph unicode="&#xe605;" d="M485.043 190.31c0 0-0.256 5.863-1.69 8.755-36.659 73.575-73.447 147.072-110.106 220.621-1.715 3.456-3.558 4.864-7.654 4.864-73.267-0.154-146.509-0.154-219.75 0-4.096 0-5.965-1.459-7.68-4.889-36.787-73.83-73.703-147.584-110.49-221.44-1.305-2.611-1.997-5.786-1.997-8.729l-0.077-170.291c143.232 0 307.2 0 460.8 0 0 0 0 6.861 0 8.704 0 1.382-1.357 167.45-1.357 162.406zM447.155 198.4c-24.013 0-48.051-2.048-72.064-1.894-3.303 0.026-5.197-4.070-7.014-6.784-17.178-25.984-34.56-51.251-51.712-77.261-2.202-3.328-4.429-4.377-8.55-4.377-34.765 0.179-69.529 0.563-104.294 0.384-4.121-0.026-6.375 2.022-8.55 5.351-17.075 25.882-34.381 52.633-51.43 78.515-2.023 3.072-4.121 4.173-7.808 4.147-23.885-0.205-47.744 1.92-71.603 1.92-1.818 0-3.609 0-6.067 0 1.050 0 1.715 2.151 2.535 3.789 31.821 63.616 63.667 124.262 95.36 187.955 1.741 3.507 3.584 5.683 7.655 5.683 5.171 0 148.403 0.793 184.038 0.793 4.070 0 5.913-0.205 7.654-3.712 31.719-63.667 63.565-127.283 95.36-190.899 0.819-1.613 1.485-3.584 2.534-3.584-2.432-0.026-4.224-0.026-6.041-0.026zM256 345.6c-53.837 0-96-30.925-96-70.4s42.163-70.4 96-70.4c53.837 0 96 30.925 96 70.4s-42.163 70.4-96 70.4zM256 243.2c-33.946 0-57.6 16.87-57.6 32s23.655 32 57.6 32 57.6-16.87 57.6-32-23.654-32-57.6-32z" />
<glyph unicode="&#xe606;" d="M32 280c0 4.256 1.76 8.256 4.736 11.264l128 128c3.008 3.008 7.008 4.736 11.264 4.736 8.736 0 16-7.264 16-16v-56h56c81.984 0 184-18.496 218.752-104.736 10.496-26.496 13.248-57.248 13.248-85.248 0-35.008-17.504-81.76-31.744-113.76-2.752-5.76-5.504-14.24-9.248-19.488-1.76-2.496-3.488-4.512-7.008-4.512-4.992 0-8 3.872-8 8.64 0 4 0.992 8.448 1.248 12.448 0.736 10.24 1.248 24.48 1.248 34.72 0 119.264-70.752 143.968-178.496 143.968h-56v-72c0-8.736-7.264-16-16-16-4.256 0-8.256 1.76-11.264 4.736l-128 128c-2.976 2.976-4.736 6.976-4.736 11.232z" />
<glyph unicode="&#xe607;" d="M352 352v-128h-160v64l-96-96 96-96v64h224v192z" />
<glyph unicode="&#xe608;" d="M96 160h80l80 96 80-96h80l-160 192z" />
<glyph unicode="&#xe609;" d="M250.592 384c36.832 0 52.448-2.208 67.712-8.48 9.216-4 17.6-10.72 25.216-20.128 12.032-14.336 18.432-32.608 18.432-51.84 0-30.4-15.616-57.216-40.032-69.28 34.048-11.2 54.080-39.328 54.080-75.968 0-29.056-11.232-57.216-29.664-73.28-17.632-15.68-34.464-21.024-75.328-21.024h-135.008v320h114.592zM193.696 256.64h62.464c34.080 0 49.696 11.584 49.696 37.536 0 16.992-8.832 30.4-21.632 33.952-8.832 2.208-15.232 2.688-57.312 2.688h-33.248v-74.176zM193.696 118.080h69.696c38.048 0.448 52.896 12.096 52.896 41.568 0 15.2-5.632 27.744-15.616 34.4-10.816 7.616-21.664 9.408-60.096 9.408h-46.88v-85.376z" />
<glyph unicode="&#xe60a;" d="M384 256v96h-32v-64l-96 96-160-160h32v-160h256v160h32l-32 32zM288 128h-64v64h64v-64z" />
<glyph unicode="&#xe60b;" d="M491.328 436.672l-22.656 22.656-212.672-212.704-212.672 212.704-22.656-22.656 212.704-212.672-212.704-212.672 22.656-22.656 212.672 212.704 212.672-212.704 22.656 22.656-212.704 212.672z" />
<glyph unicode="&#xe60c;" d="M416.819 428.8h-321.639c-52.48 0-95.181-42.701-95.181-95.181v-168.038c0-52.48 42.701-95.181 95.181-95.181h32.819v-91.264c0-10.854 9.575-15.923 16.717-7.731l129.101 98.995h143.001c52.48 0 95.181 42.701 95.181 95.181v168.038c0 52.48-42.701 95.181-95.181 95.181zM460.8 151.45c0-16.486-13.363-29.849-29.849-29.849h-189.696l-87.655-102.4v102.4h-72.55c-16.487 0-29.849 13.363-29.849 29.849v196.301c0 16.486 13.363 29.85 29.849 29.85h349.901c16.486 0 29.849-13.363 29.849-29.85v-196.301zM230.4 275.2h51.2v-51.2h-51.2v51.2zM128 275.2h51.2v-51.2h-51.2v51.2zM332.8 275.2h51.2v-51.2h-51.2v51.2z" />
<glyph unicode="&#xe60d;" d="M463.086 461.714h-139.411c-6.949 0-12.819-5.869-12.819-13.111v-430.94c0-7.223 5.87-13.092 12.818-13.092h139.411c6.949 0 12.343 5.87 12.343 13.111v430.921c0 7.241-5.394 13.111-12.343 13.111zM438.857 41.143h-91.428v384h91.428v-384zM163.584 449.043c-3.529 5.632-12.325 5.632-15.853 0l-109.933-175.799c-3.511-5.632 0.896-12.672 7.936-12.672h219.849c7.040 0 11.447 7.040 7.918 12.672l-109.916 175.799zM98.487 297.143l57.179 109.714 57.179-109.714h-114.359zM155.667 224c-60.507 0-109.715-49.207-109.715-109.714s49.207-109.714 109.715-109.714 109.715 49.207 109.715 109.714-49.207 109.714-109.714 109.714zM155.667 41.143c-40.339 0-73.143 32.805-73.143 73.143s32.804 73.143 73.143 73.143 73.143-32.805 73.143-73.143-32.804-73.143-73.143-73.143z" />
<glyph unicode="&#xe60e;" d="M448 32h32v-32h-32v32zM448 96h32v-32h-32v32zM448 160h32v-32h-32v32zM448 224h32v-32h-32v32zM448 288h32v-32h-32v32zM384 32h32v-32h-32v32zM320 32h32v-32h-32v32zM448 352h32v-32h-32v32zM256 32h32v-32h-32v32zM192 32h32v-32h-32v32zM256 288h32v-32h-32v32zM320 352v-32h-32v-32h32v-64h-64v32h-32v-32h-32v-96h-128v160h104c13.248 0 24 10.752 24 24v104h96v-64h32v72c0 13.248-10.752 24-24 24h-104c-13.248 0-31.744-7.744-40.992-16.992l-102.016-102.016c-9.248-9.248-16.992-27.744-16.992-40.992v-168c0-13.248 10.752-24 24-24h136v-32h32v128h128v128h64v32h-96zM160 394.752v-74.752h-74.752l74.752 74.752z" />
<glyph unicode="&#xe60f;" d="M300.629 31.733l-1.137 17.169 0.091 0.006 1.137-17.169-0.091-0.006zM203.593 32.622l1.152 0.256-0.018 0.073zM250.039 322.871l-0.055 0.293-2.268 15.379 0.659-0.329 1.975-14.885zM367.909 47.981l19.565 4.132-30.19 132.772-11.538 3.84-10.807-16.603-5.541 32.036-23.699 8.411-9.125 76.215 11.611 12.38-40.375 24.082-7.753 68.243-7.168-0.147-2.542-56.448-2.633 1.645-37.212-50.451 9.234-6.692-7.497-72.21-0.53-0.201-0.201 33.335-3.565 0.64-5.212-8.576-5.779-39.003-20.535 3.932-13.843-56.759 5.376 55.168-6.345-6.418-3.913-19.291-5.065-4.315-27.757-108.452-0.384-1.171 15.981-15.031v-0.11h0.128l0.036-0.019v0.019l44.069 7.918-5.193-11.373 19.84-8.101 10.733 5.010-5.724-6.82 32.073-12.489 62.244 11.428 0.877 20.882h0.055l3.548-17.134 6.418-1.024v0.421l34.596 6.62-1.171 6.985 0.64-0.256 10.441-2.524 14.245 2.999-0.603 3.053 0.183-0.548zM263.589 277.65l-0.75 31.031 22.875-11.758 2.487-31.488-24.613 12.215zM263.735 272.457l25.18-11.666 3.328-35.2-27.666 11.155-0.841 35.712zM265.197 213.12l-0.329 17.756 27.282-11.081 1.317-16.585-28.269 9.911zM283.264 357.833c-1.353 0.75-2.267 0.531-2.67 1.993-0.695 2.505 0.531 4.151 0.805 4.589 1.408 2.157 2.487 3.931 3.383 6.016 1.975 4.498 2.908 9.124 2.834 14.153-0.402 18.944-16.164 34.012-35.127 33.701-19.108-0.421-34.267-16.22-33.92-35.182 0.109-5.011 1.244-9.82 3.364-14.19 0.988-2.103 2.195-4.151 3.566-6.107 0.365-0.567 1.683-2.871 1.079-5.413-0.347-1.481-1.262-2.688-2.615-3.493l-0.768-0.476-2.213-0.402c-3.108-0.055-5.376 2.285-5.797 2.761-1.865 2.377-3.419 4.827-4.7 7.461-2.963 6.199-4.517 12.764-4.663 19.584-0.512 26.039 20.261 47.652 46.299 48.164 26.185 0.512 47.799-20.279 48.311-46.317 0.128-6.82-0.493-13.805-3.895-19.712-6.583-11.447-13.276-7.132-13.276-7.132z" />
<glyph unicode="&#xe610;" d="M457.764 343.625c0 75.813-62.391 137.509-138.221 137.509-45.293 0-86.125-22.108-111.195-55.991h-171.776v-457.143h402.286v304.036c18.286 20.882 18.907 45.349 18.907 71.589zM318.866 445.349c56.082 0 101.724-45.641 101.724-101.742 0-56.082-45.641-101.723-101.724-101.723-56.101 0-101.742 45.641-101.742 101.723 0 56.101 45.641 101.742 101.742 101.742zM73.143 4.572v384h115.913c-4.9-14.116-7.698-29.202-7.698-44.947 0-75.813 63.104-137.509 138.917-137.509 30.116 0 63.726 9.856 82.012 26.35v-227.895h-329.143zM313.747 313.893c2.761-2.743 6.546-4.462 10.752-4.462s8.009 1.7 10.752 4.462l0.512-0.512 45.623 45.641-22.51 22.51-34.359-34.377-34.377 34.377-22.51-22.51 45.641-45.641 0.476 0.512zM201.143 169.143h146.285v-36.572h-146.286v36.572zM201.143 96h146.285v-36.572h-146.286v36.572zM128 169.143h36.572v-36.572h-36.572v36.572zM128 242.286h36.572v-36.572h-36.572v36.572zM128 96h36.572v-36.572h-36.572v36.572z" />
<glyph unicode="&#xe611;" d="M102.4 300.8v-211.251c0-38.861 31.488-70.349 70.349-70.349h169.267c23.194 0 41.984 18.791 41.984 42.010v239.59h-281.6zM179.2 96h-25.6v128h25.6v-128zM256 96h-25.6v128h25.6v-128zM332.8 96h-25.6v128h25.6v-128zM408.474 326.4c-2.304 32.615-19.456 76.8-60.109 76.8h-69.863c0 0 5.99 25.6-21.171 25.6h-34.714c-27.136 0-16.333-25.6-16.333-25.6h-52.685c-42.419 0-72.064-44.185-76.8-76.8h331.673z" />
<glyph unicode="&#xe612;" d="M270.957 291.346c7.168 0.403 14.336 0.695 21.486 1.244 2.158 0.164 3.383-0.384 4.205-2.413 3.219-7.899 6.546-15.744 9.875-23.607 0.896-2.139 0.585-3.584-1.28-5.248-10.661-9.435-21.156-19.072-31.781-28.544-1.609-1.427-2.048-2.798-1.975-4.974 0.256-7.278 0.274-14.573 0.019-21.833-0.073-2.267 0.293-3.767 2.029-5.303 10.642-9.472 21.139-19.091 31.781-28.544 1.719-1.536 2.212-2.834 1.298-4.955-3.401-7.936-6.729-15.909-10.021-23.918-0.768-1.884-1.92-2.432-3.932-2.322-14.555 0.86-29.092 1.646-43.666 2.304-1.225 0.055-2.798-0.713-3.712-1.591-5.559-5.376-11.026-10.844-16.347-16.439-1.006-1.060-1.847-2.853-1.774-4.279 0.621-14.555 1.5-29.111 2.139-43.666 0.055-1.097-1.006-2.853-2.012-3.291-8.119-3.584-16.347-6.894-24.503-10.368-1.883-0.805-3.054-0.293-4.37 1.188-9.49 10.624-19.108 21.12-28.544 31.781-1.719 1.957-3.364 2.304-5.869 2.195-6.93-0.311-13.897-0.348-20.809 0.019-2.725 0.147-4.333-0.493-6.089-2.469-9.289-10.478-18.779-20.791-28.087-31.269-1.499-1.683-2.816-2.267-4.937-1.353-7.954 3.401-15.909 6.748-23.918 10.002-2.067 0.841-2.469 2.121-2.341 4.243 0.859 14.555 1.627 29.111 2.285 43.666 0.055 1.115-0.731 2.541-1.573 3.401-5.468 5.632-10.989 11.209-16.64 16.64-0.969 0.933-2.706 1.627-4.041 1.572-14.592-0.64-29.148-1.5-43.703-2.139-1.116-0.055-2.908 0.969-3.328 1.938-3.62 8.211-6.967 16.548-10.477 24.813-0.786 1.847-0.092 2.853 1.225 4.041 10.697 9.563 21.303 19.236 32.019 28.781 1.7 1.517 2.139 2.962 2.066 5.267-0.275 7.277-0.237 14.555 0 21.833 0.073 2.139-0.256 3.529-1.901 4.992-10.733 9.545-21.321 19.255-32.055 28.781-1.645 1.463-2.048 2.725-1.225 4.663 3.365 7.954 6.711 15.927 9.984 23.918 0.823 1.993 1.975 2.615 4.169 2.487 14.555-0.877 29.111-1.627 43.666-2.286 1.152-0.055 2.615 0.622 3.456 1.445 5.705 5.541 11.319 11.173 16.859 16.896 0.823 0.841 1.499 2.304 1.445 3.438-0.677 14.665-1.555 29.33-2.176 43.995-0.055 1.189 1.061 3.072 2.121 3.548 7.991 3.565 16.109 6.857 24.192 10.24 1.901 0.805 3.2 0.439 4.663-1.207 9.308-10.477 18.816-20.772 28.087-31.268 1.828-2.084 3.529-2.761 6.345-2.615 7.040 0.348 14.117 0.256 21.156-0.055 2.34-0.11 3.767 0.421 5.267 2.103 9.472 10.624 19.090 21.12 28.563 31.781 1.445 1.609 2.688 2.121 4.644 1.298 8.173-3.456 16.384-6.784 24.503-10.387 0.969-0.421 1.939-2.231 1.883-3.364-0.64-14.556-1.518-29.111-2.157-43.667-0.055-1.335 0.695-3.036 1.645-4.005 5.357-5.577 10.807-11.063 16.403-16.403 1.042-1.005 2.852-1.719 4.297-1.683 7.168 0.165 14.336 0.64 21.504 1.006-0.036-0.018-0.036-0.036-0.036-0.055zM153.545 300.087c-45.805-0.036-83.365-37.65-83.273-83.401 0.073-45.678 37.156-82.779 83.145-83.2 45.422-0.421 83.237 37.303 83.456 83.236 0.201 45.587-37.613 83.419-83.328 83.365zM153.691 255.47c21.248-0.091 38.547-17.481 38.51-38.674-0.036-21.376-17.481-38.656-38.912-38.565-21.138 0.073-38.51 17.664-38.364 38.82 0.128 21.23 17.573 38.51 38.765 38.418zM489.070 209.7c4.553 0.256 9.106 0.439 13.659 0.786 1.372 0.11 2.139-0.238 2.67-1.536 2.048-5.010 4.151-10.002 6.272-14.995 0.567-1.353 0.366-2.286-0.805-3.328-6.784-5.998-13.44-12.123-20.188-18.139-1.024-0.914-1.298-1.774-1.262-3.163 0.164-4.627 0.164-9.252 0.019-13.879-0.055-1.445 0.183-2.396 1.28-3.365 6.765-6.016 13.421-12.123 20.205-18.139 1.097-0.969 1.408-1.81 0.823-3.145-2.158-5.047-4.279-10.112-6.363-15.195-0.493-1.207-1.225-1.555-2.505-1.481-9.252 0.548-18.487 1.043-27.74 1.463-0.786 0.036-1.774-0.457-2.359-1.024-3.529-3.42-7.003-6.894-10.387-10.459-0.64-0.676-1.171-1.81-1.134-2.707 0.402-9.252 0.951-18.505 1.353-27.757 0.036-0.695-0.64-1.81-1.28-2.084-5.156-2.286-10.387-4.389-15.561-6.583-1.207-0.512-1.938-0.183-2.779 0.768-6.034 6.748-12.142 13.421-18.139 20.188-1.097 1.243-2.139 1.463-3.731 1.408-4.407-0.201-8.832-0.219-13.221 0.019-1.719 0.091-2.761-0.311-3.877-1.572-5.906-6.656-11.94-13.221-17.847-19.877-0.951-1.079-1.792-1.445-3.127-0.86-5.047 2.158-10.112 4.279-15.195 6.363-1.317 0.531-1.572 1.353-1.481 2.688 0.548 9.252 1.043 18.487 1.445 27.74 0.036 0.713-0.457 1.609-0.988 2.158-3.474 3.584-6.985 7.113-10.569 10.569-0.622 0.603-1.719 1.043-2.56 1.005-9.252-0.421-18.505-0.969-27.757-1.372-0.713-0.036-1.847 0.603-2.121 1.225-2.304 5.229-4.425 10.514-6.656 15.762-0.493 1.171-0.055 1.81 0.786 2.56 6.803 6.089 13.531 12.233 20.352 18.286 1.079 0.969 1.372 1.884 1.317 3.346-0.164 4.627-0.147 9.252 0 13.879 0.036 1.353-0.164 2.249-1.207 3.163-6.82 6.071-13.531 12.233-20.352 18.286-1.043 0.933-1.298 1.737-0.786 2.962 2.139 5.065 4.279 10.112 6.345 15.195 0.512 1.28 1.262 1.664 2.651 1.591 9.252-0.548 18.487-1.043 27.74-1.463 0.731-0.036 1.664 0.384 2.195 0.914 3.62 3.529 7.204 7.095 10.716 10.733 0.512 0.531 0.951 1.463 0.933 2.176-0.421 9.326-0.988 18.633-1.389 27.959-0.036 0.75 0.676 1.957 1.353 2.249 5.084 2.268 10.24 4.352 15.36 6.509 1.207 0.512 2.029 0.274 2.962-0.768 5.906-6.656 11.959-13.202 17.847-19.876 1.171-1.335 2.249-1.756 4.041-1.664 4.48 0.22 8.96 0.165 13.44-0.036 1.481-0.073 2.377 0.274 3.328 1.353 6.016 6.748 12.142 13.422 18.139 20.187 0.914 1.024 1.719 1.353 2.944 0.823 5.193-2.195 10.423-4.315 15.561-6.601 0.622-0.274 1.225-1.427 1.207-2.139-0.402-9.252-0.951-18.505-1.372-27.757-0.036-0.841 0.439-1.92 1.043-2.541 3.401-3.548 6.875-7.022 10.423-10.423 0.659-0.64 1.81-1.097 2.724-1.079 4.553 0.11 9.106 0.402 13.659 0.64-0.073 0.073-0.073 0.073-0.055 0.055zM414.445 215.26c-29.111-0.036-52.974-23.936-52.919-53.010 0.055-29.038 23.607-52.608 52.846-52.864 28.873-0.256 52.901 23.716 53.029 52.901 0.128 28.964-23.899 53.010-52.955 52.974zM414.537 186.899c13.495-0.055 24.503-11.099 24.466-24.576-0.036-13.587-11.099-24.558-24.74-24.503-13.44 0.055-24.466 11.228-24.375 24.668 0.091 13.495 11.173 24.466 24.649 24.411z" />
<glyph unicode="&#xe613;" d="M438.675 333.714l-69.943 137.234-368.567-168.685 72.978-178.231v-119.461h438.857v329.143h-73.326zM397.952 333.714h-36.407l-22.949 61.897-142.519-61.897h-57.472l217.107 95.927 42.24-95.927zM73.143 245.212v-54.637l-35.072 96.476 35.072 15.507v-57.344zM475.428 41.143h-365.714v256h365.714v-256zM216.814 227.657c0-18.855-15.285-34.139-34.139-34.139s-34.139 15.284-34.139 34.139c0 18.855 15.285 34.139 34.139 34.139s34.139-15.285 34.139-34.139zM329.417 204.435c-1.5 1.774-4.425 1.7-5.76-0.183l-72.228-91.502c-1.408-1.993-4.718-1.774-6.107 0.219l-37.65 34.121c-1.463 2.084-5.632 2.871-7.004 0.731l-59.447-70.108h292.572l-104.375 126.72z" />
<glyph unicode="&#xe614;" d="M383.424 351.008c-28.096 0-55.808-9.92-57.76-12.032-29.6 56.896-87.68 93.056-152.864 93.056-95.296 0-172.832-77.536-172.832-172.832 0-65.984 38.432-127.168 97.952-155.808 3.008-1.44 6.176-2.112 9.312-2.112 8 0 15.648 4.48 19.36 12.16 5.152 10.688 0.672 23.52-10.048 28.672-44.736 21.536-73.632 67.488-73.632 117.12 0 71.616 58.272 129.888 129.888 129.888 53.248 0 100.512-31.904 120.48-81.248 4.416-10.976 16.96-16.288 27.936-11.872 4.672 1.888 34.752 12.096 62.176 12.096 47.872 0 86.848-40.096 86.848-89.376 0-38.784-24.032-72.928-59.776-84.96-10.976-3.68-16.928-15.808-13.344-27.072 2.88-9.056 11.040-14.816 19.84-14.816 2.144 0 4.32 0.32 6.464 1.056 52.96 17.824 88.576 68.384 88.576 125.792 0 72.896-57.664 132.288-128.576 132.288zM288 256h-64v-128h-64l96-128 96 128h-64z" />
<glyph unicode="&#xe615;" d="M170.982 32.384c-70.579 0-128 57.421-128 128s57.421 128 128 128v38.4c-91.751 0-166.4-74.649-166.4-166.4s74.65-166.4 166.4-166.4 166.4 74.649 166.4 166.4h-38.4c0-70.579-57.421-128-128-128zM179.2 288.793v-78.464c-22.375-2.227-39.911-20.889-39.911-43.827 0-24.448 19.815-44.262 44.262-44.262s44.288 19.815 44.288 44.262c0 2.151-0.333 4.224-0.64 6.298h51.993l-99.993 115.993zM449.613 452.685c-34.074 34.074-76.8 25.6-76.8 25.6l-155.546-155.571 95.591-109.209 162.355 162.355c0 0.025 8.755 42.496-25.6 76.825zM284.262 293.325l-25.063 28.262 125.594 120.269c0 0 12.007-7.193 28.007-24.807l-128.537-123.725z" />
<glyph unicode="&#xe616;" d="M480 328v-304c0-13.248-10.752-24-24-24h-240c-13.248 0-24 10.752-24 24v72h-136c-13.248 0-24 10.752-24 24v168c0 13.248 7.744 31.744 16.992 40.992l102.016 102.016c9.248 9.248 27.744 16.992 40.992 16.992h104c13.248 0 24-10.752 24-24v-81.984c9.76 5.76 22.24 9.984 32 9.984h104c13.248 0 24-10.752 24-24zM288 312v104h-96v-104c0-13.248-10.752-24-24-24h-104v-160h128v64c0 13.248 7.744 31.744 16.992 40.992l79.008 79.008zM85.248 320h74.752v74.752l-74.752-74.752zM448 320h-96v-104c0-13.248-10.752-24-24-24h-104v-160h224v288zM245.248 224h74.752v74.752l-74.752-74.752z" />
<glyph unicode="&#xe617;" d="M309.504 206.317c-0.548 0.091-1.847-0.073-2.359 0.293-0.311-1.079 0.164-1.5 2.359-0.293zM260.955 406.034c-2.322 0.11-4.608 0.329-6.93 0.348 1.316-1.207 2.816-2.267 4.352-2.067 1.517 0.219 2.158 0.915 2.579 1.719zM195.584 394.35c3.639-1.646 14.19-3.877 16.165-6.62 2.633-3.675-2.286-7.113 3.219-9.692 1.756-0.823 5.394-0.988 6.912 0.695 2.451 2.798-1.024 3.42-1.609 6.62-1.133 6.162 0.75 3.712 3.84 6.016 6.327 4.663 4.9 4.955 2.633 12.38-0.036 0.146-0.147 0.42-0.201 0.585-11.794-1.774-23.168-4.736-34.048-8.796 1.133-0.384 2.231-0.787 3.090-1.189zM239.433 67.017c0.603 1.627 0.109 2.267 0.621 3.858 1.774 5.522 0.988 3.438 0 7.716-2.34 10.094 0.841 12.837 3.584 22.034 2.816 9.472 2.56 21.724 4.352 31.927 0.859 4.882 2.268 15.031 0.567 19.639-1.883 5.193-10.295 9.289-14.135 12.764-5.449 4.955-8.339 10.332-12.38 16.457-2.066 3.108-4.407 6.163-5.998 9.545-3.438 7.241 0 2.925 0.567 7.204 0.548 4.115-0.494 7.827 1.152 12.142 1.81 4.791 6.327 7.772 7.827 12.599 1.335 4.279 0.329 9.709-4.096 11.136-2.469 0.823-5.175-1.042-7.643-0.64-3.438 0.548-7.351 3.127-10.057 5.193-3.785 2.871-5.212 7.552-9.234 10.295-3.364 2.268-5.76 0.896-9.363 1.957-3.749 1.115-6.071 5.76-9.107 7.204-4.553 2.176-7.113-0.951-11.923-0.311-4.060 0.531-10.313 5.047-14.117 6.784-7.772 3.456-12.507 7.315-15.597 15.177-2.669 6.748-6.528 9.893-11.1 15.524-4.608 5.705-6.071 10.551-13.203 12.069-0.841 0.183 1.755-5.998 2.011-6.473 2.541-4.717 6.364-9.015 9.454-13.422 4.535-6.455 2.579-7.68-1.993-1.426-5.266 7.168-11.373 14.263-15.945 21.833-1.445 2.413-1.555 4.114-3.2 6.217-12.178-23.497-19.163-50.121-19.163-78.409 0-89.728 69.23-163.163 157.184-170.13 0.274 0.548 0.713 0.951 0.933 1.536zM325.596 389.687c-2.981-6.675-5.998-13.038-14.025-11.081-6.765 1.645-11.557 9.673-14.976 14.903-1.847 2.834-4.407 5.412-5.413 8.301-6.071 1.427-12.252 2.56-18.56 3.31 0.348-0.841 0.713-1.719 1.079-2.596 2.396-5.632 4.644-7.753 8.887-11.356 1.993-1.683 10.642-7.698 9.82-11.392-0.548-2.505-10.441-6.272-13.075-7.113-9.655-3.053-27.776 5.010-29.751-10.313 3.767 1.408 14.427 10.112 17.628 5.979 1.463-1.883-1.171-4.589-0.548-6.455 1.829-5.577 6.125-3.639 10.624-2.743-0.274-0.183-0.603-0.348-0.951-0.512 6.18 3.182 5.541 2.505 8.356 7.644 0.933 1.7 2.286 5.76 3.584 6.948 4.48 4.115 5.193 1.28 7.936-1.901 0.731-0.841 7.607-10.715 5.156-10.221-7.973 1.609-15.635 1.389-22.272-2.963-3.803-2.523-7.406-5.924-11.977-7.607-1.097-0.384-9.18-1.152-8.211 0.22 1.389 2.011 6.18 3.346 8.101 5.522-5.248 2.157-9.655-2.615-13.769-5.413-4.37-2.066-5.376-5.925-9.125-9.325-1.609-1.481-4.7-1.719-6.309-3.657-1.554-1.884-1.737-4.864-3.2-6.637-1.024-1.243-3.675-0.493-4.736-2.377-1.408-2.487 1.262-4.755 0.677-6.547-1.079-3.218-7.204-5.979-9.582-8.284 0.311 0.311 0.64 0.604 0.951 0.933-2.359-2.487-5.357-4.315-7.204-7.186 0.841-4.060 3.511-13.733 2.78-15.945-2.451-7.351-7.241 3.968-9.179 6.894-6.656 10.039-19.968 3.309-29.075 2.505-11.63-1.079-23.022-16.183-15.853-28.435 3.456-5.869 9.252-8.156 15.909-6.784 5.906 1.207 7.68 9.49 13.257 9.637 10.24 0.274 0.22-10.020-0.659-13.824-0.823-3.493 1.28-3.821 4.882-4.681 2.669-0.64 6.436 1.133 8.759-0.365 1.445-0.969 1.389-6.236 3.383-4.572-3.931-3.273-3.017-11.008 1.006-13.787 4.499-3.108 9.764-0.238 14.428-1.427 8.869-2.268 4.626 0.677 12.416 5.376 5.23 3.145 6.089-0.603 9.655-0.603 2.451-0.018 4.005 3.493 8.083 2.469 3.328-0.841 4.627-3.401 8.594-3.987 1.627-0.256 3.31 0.603 4.864 0.421 7.369-0.804 12.964-5.504 18.761-9.746 4.755-3.493 7.918-2.78 13.495-4.388 4.077-1.152 11.593-7.040 11.191-12.215-0.055-0.914-3.603-5.577-4.243-7.661 1.043-0.713 8.284 0.896 10.404 1.043-0.695-0.823-5.613-4.279-5.613-2.432 0-0.951 3.474-2.889 4.334-3.474 2.56 8.356 6.803 2.962 11.868 0.914 4.315-1.774 9.655-1.865 14.263-2.962 3.913-0.914 12.544-3.565 15.433-6.748 3.511-3.858 1.097-10.112-1.481-13.933-3.383-5.029-8.485-6.949-10.606-12.855-1.646-4.681-0.402-9.417-1.353-14.611-1.298-7.022-2.322-4.553-6.857-8.851-3.803-3.603-0.055-2.981-5.229-5.284-5.212-2.322-9.801-1.646-13.421-7.332 0.164 0.348 0.274 0.713 0.365 1.097-1.517-2.139-2.286-6.491-2.999-7.936-1.829-3.639-4.334-5.943-7.204-8.997-1.097-1.171-11.228-14.995-11.813-13.897-0.768 1.445-8.74-1.445-9.106 0.622 0.311-1.719-0.073-1.152 1.884-2.158-1.829-11.373-6.637-13.056-17.792-13.166 0.951-5.467-4.060-4.37-6.4-7.315-1.335-1.719-1.993-6.528-2.944-8.759-0.293-0.731-1.591-2.56-2.798-4.334 90.606 4.205 162.853 78.775 162.853 170.423 0 67.95-39.844 126.5-97.353 153.984zM214.637 307.62c0.018 0.055 0.055 0.073 0.091 0.128-0.091 0.476-0.183 0.896-0.22 1.189 0.018-0.439 0.073-0.86 0.128-1.317zM307.145 206.611v0l-0.055 0.019z" />
<glyph unicode="&#xe618;" d="M143.040 79.040l-144.992 144.96 144.992 144.96 33.92-33.92-111.008-111.040 111.008-111.040zM192 256h128v-64h-128v64zM368.96 79.040l-33.92 33.92 111.008 111.040-111.008 111.040 33.92 33.92 144.992-144.96z" />
<glyph unicode="&#xe619;" d="M64 256h160v160h-160v-160zM96 384h96v-96h-96v96zM288 416v-160h160v160h-160zM416 288h-96v96h96v-96zM64 32h160v160h-160v-160zM96 160h96v-96h-96v96zM288 32h160v160h-160v-160zM320 160h96v-96h-96v96z" />
<glyph unicode="&#xe61a;" d="M384 288h-64v160h-128v-160h-64l128-160zM384 160v-96h-256v96h-64v-160h384v160z" />
<glyph unicode="&#xe61b;" d="M96 192v96l128 128h136c13.248 0 24-10.752 24-24v-304c0-13.248-10.752-24-24-24h-240c-13.248 0-24 10.752-24 24v104zM352 384h-96v-104c0-13.248-10.752-24-24-24h-104v-160h224v288zM140 288h84v84l-84-84z" />
<glyph unicode="&#xe61c;" d="M128 384h64v-320h-64v320zM352.96 384l48.96-48.96-110.976-112 111.008-112-48.992-48.992-160.96 160.992z" />
<glyph unicode="&#xe61d;" d="M416 288v-256h-288v320h96v64h-160v-448h416v320zM448 416h-128l-126.528-192h61.056l-62.528-128 224 192h-100.384z" />
<glyph unicode="&#xe61e;" d="M288 448h160l-160-224h128l-320-256 96 224h-96z" />
<glyph unicode="&#xe61f;" d="M168 256c-1.28 0-72-96-72-96v128h320c0 21.664-7.072 64-32 64h-192c0 23.84-4.896 32-32 32h-64c-32.48 0-32-32-32-32 0-12.128 0-288 0-288h312l104 192h-312z" />
<glyph unicode="&#xe620;" d="M146.286 278.857c-1.28 0-29.952-69.193-54.857-129.883v148.169h310.857v18.285c0 12.581-7.424 18.286-18.286 18.286h-182.857c0 23.424-6.035 36.572-33.060 36.572h-80.877c-32.347 0-32.347-36.572-32.347-36.572 0-12.069 0-274.286 0-274.286h339.693l80.877 219.428h-329.143z" />
<glyph unicode="&#xe621;" d="M46.95 34.637c14.643 0.973 26.419 7.629 35.328 19.891 5.734 7.731 13.952 24.73 24.653 51.072l135.065 332.8h16.922l135.68-319.437c15.232-35.84 26.624-58.931 34.151-69.325s18.202-15.385 32.051-15.002v-15.437h-196.839v15.437c19.789 0.793 32.793 2.457 39.040 5.043s9.344 9.113 9.344 19.584c0 4.762-1.562 11.955-4.762 21.683-1.997 5.735-4.659 12.672-8.013 20.787l-15.462 36.813h-136.474c-8.935-24.141-14.669-39.859-17.255-47.207-5.35-15.642-8.013-27.008-8.013-34.151 0-8.704 5.837-15.053 17.511-18.995 6.912-2.176 17.305-3.353 31.181-3.558v-15.437h-124.109v15.437zM275.2 162.586l-58.496 140.723h-5.095l-54.861-140.723h118.451z" />
<glyph unicode="&#xe622;" d="M144 152.576l-80-83.904 32.768-36.672 87.808 80 71.424-63.616v175.616h-175.616zM448 379.328l-32.768 36.672-87.808-80-71.424 63.616v-175.616h175.616l-63.616 71.424z" />
<glyph unicode="&#xe623;" d="M448 416h-160l60.8-60.8-80-80 32.768-32.768 80 80 66.432-66.432zM207.616 208.384l-80-80-63.616 63.616v-160h160l-63.616 63.616 80 80z" />
<glyph unicode="&#xe624;" d="M363.52 288.494c-17.298 28.525-44.672 48.621-77.075 56.631-32.439 7.972-66.048 2.871-94.702-14.391-17.298-10.423-31.47-24.393-41.965-41.527-24.484-39.936-24.649-89.618-0.365-129.664 35.712-58.825 112.695-77.805 171.739-42.276 57.892 34.834 76.983 113.993 42.368 171.228zM293.961 161.755c-34.395-20.717-79.287-9.655-100.041 24.649-14.117 23.351-14.061 52.315 0.183 75.593 6.144 9.984 14.428 18.139 24.448 24.192 16.768 10.057 36.297 13.037 55.223 8.411 18.925-4.663 34.889-16.384 44.964-33.024 20.115-33.389 8.997-79.507-24.777-99.822zM266.642 4.772c-18.195-0.786-36.499 0.695-54.382 4.37l5.797 28.032c24.393-5.010 49.756-5.358 74.532-0.676l5.339-28.142c-10.368-1.92-20.846-3.127-31.287-3.584zM378.533 41.143l-9.070 11.209-7.095 12.471c20.681 13.678 37.961 31.049 51.731 51.84l23.918-15.781c-15.853-23.991-35.858-44.087-59.483-59.74zM133.248 42.295c-23.68 15.981-43.757 36.205-59.721 60.123l23.497 16.439 0.384-0.603c13.879-20.755 31.36-38.345 51.913-52.224l-16.073-23.735zM470.711 179.731l-28.105 5.779c3.328 16.164 4.644 32.659 3.932 49.042-0.365 8.54-1.298 17.060-2.779 25.491l28.269 4.973c1.737-9.618 2.761-19.456 3.182-29.22 0.823-18.743-0.676-37.596-4.498-56.064zM40.667 182.125c-2.103 10.624-3.401 21.486-3.877 32.365-0.768 17.792 0.64 35.657 4.188 53.12l28.142-5.724c-3.091-15.177-4.334-30.702-3.657-46.153 0.403-9.435 1.536-18.889 3.347-28.105l-28.142-5.504zM416.457 328.996l11.995 7.79-12.16-7.552c-14.135 21.175-31.524 38.765-52.005 52.626l16.128 23.68c23.515-15.945 43.557-36.188 59.557-60.142l-23.515-16.403zM97.847 330.459l-23.844 15.964c15.963 23.789 36.48 44.032 60.873 60.178l9.381-10.971 6.857-12.635c-21.613-14.3-39.369-31.872-53.267-52.535zM295.497 410.825l3.108 13.971-3.785-13.843c-24.832 4.992-49.701 5.102-73.637 0.567l-5.376 28.124c27.63 5.248 56.393 5.047 84.371-0.548l-1.572-14.3-3.108-13.971z" />
<glyph unicode="&#xe625;" d="M470.528 192.103c-15.283 9.267-33.69 16.793-49.945 23.45l-2.151 0.793c-3.61 2.534-17.28 15.053-25.498 25.344 1.817 3.686 5.709 12.237 8.32 20.327 1.485 0.614 2.381 1.152 2.406 1.178 14.003 8.781 15.437 29.901 16.384 43.878l0.281 3.968c0.589 6.323-1.92 10.983-4.045 13.568 13.466 64-16.563 83.968-34.663 89.83-8.038 3.251-23.065 9.319-41.805 10.214-16.87-0.896-31.616-6.758-39.757-10.061-10.573 12.8-23.526 19.789-33.817 23.091-11.161 4.582-31.975 13.005-58.137 14.285-23.885-1.28-44.697-9.702-54.502-13.721-26.522-8.627-68.249-36.377-50.355-125.082-2.099-3.865-5.632-10.317-4.787-18.969l0.409-5.479c1.305-19.481 3.277-48.921 22.63-61.081 0.973-0.614 2.176-1.229 3.481-1.792 3.558-10.854 8.653-22.17 11.392-27.571 0.077-0.154 0.051-0.333 0.128-0.486 0-0.026 0.128-0.231 0.128-0.256-11.879-14.618-31.565-32.615-34.458-34.637l-4.070-1.767c-22.579-9.216-22.579-19.84-43.801-32.717-30.797-18.688-46.976-60.185-48.051-122.547-0.179-9.498 3.379-19.175 10.035-25.959s15.591-11.904 25.139-11.904h364.979c17.075 0 28.954 16.051 28.8 25.6-0.435 24.678-0.717 58.854-5.837 76.8h50.406c6.912 0 13.337 6.707 18.151 11.648 4.787 4.864 7.322 15.334 7.168 22.118-0.793 44.902-12.416 74.496-34.56 87.936zM339.763 394.368c12.083-0.64 23.526-5.274 31.385-8.423 16.717-5.427 21.786-23.987 15.232-55.065-1.843-8.883 0.793-15.488 3.123-19.942l-0.538-1.792c-0.307-4.147-1.894-16.256-2.816-19.661-0.205-0.026-2.151-0.077-2.151-0.103v-0.077c0-0.154-0.973-0.537-2.227-1.024-5.274-1.971-7.45-6.989-8.141-12.595-0.333-2.586-3.84-12.774-7.859-20.813-0.128-0.256-0.154-0.537-0.256-0.819-0.231-0.384-0.589-0.64-0.793-1.049-0.333-0.666-8.064-16.41-23.629-16.41-15.897 0-25.549 18.509-25.6 18.611-0.103 0.205-0.281 0.333-0.409 0.512 3.021 11.187 3.84 23.219 4.505 32.819l0.435 5.632c0.768 8.729-2.714 15.155-5.683 18.739 6.835 32.435 5.529 56.551 0 74.727 6.938 2.765 16.461 6.195 25.421 6.733zM145.357 321.613c-9.113 43.238-1.946 68.992 22.656 77.031 9.575 3.891 25.523 10.342 40.090 11.238 15.565-0.819 30.003-6.221 43.725-11.725 23.219-7.552 30.413-33.306 21.273-76.544-2.611-12.339 1.382-21.581 4.634-27.75l-0.179-2.432c-0.409-5.837-1.587-22.835-2.944-27.469-1.664-0.154-3.328-0.461-4.941-0.947-7.808-2.509-13.491-9.523-14.515-17.638-0.461-3.609-5.351-17.459-10.957-28.647-0.384-0.768-0.461-1.613-0.793-2.406-0.205-0.358-0.537-0.563-0.717-0.921-0.435-0.947-11.213-22.81-32.793-22.81-21.965 0-35.303 25.319-35.635 25.959-5.657 11.392-10.47 25.011-10.88 28.57-0.793 8.269-6.375 15.334-14.285 17.971-1.434 0.487-2.893 0.793-4.352 0.973-2.458 6.912-3.482 22.041-3.815 27.469l-0.179 2.304c2.714 5.094 7.373 14.694 4.608 27.776zM51.2 8.525c1.664 36.275 8.781 77.466 24.986 87.322 18.381 11.161 16.742 17.817 37.862 26.445l1.715 0.87c12.441 3.43 37.095 29.286 48.256 41.728 11.571-9.037 26.726-16.461 45.85-16.461 18.662 0 33.792 6.861 45.465 15.846 11.495-12.697 34.765-36.839 44.928-39.501l4.122-0.921c21.12-8.627 45.107-16.87 63.462-28.007 16.231-9.831 16.154-87.322 16.154-87.322h-332.8zM419.303 96c-7.577 14.336-17.382 25.395-29.543 32.768-21.197 12.877-46.797 23.322-69.376 32.538l-2.995 1.152c-4.992 3.481-24.013 20.915-35.481 35.226 2.56 5.069 7.936 16.921 11.597 28.185 1.28 0.537 2.432 1.101 3.379 1.69 0.281 0.179 0.486 0.435 0.768 0.614 8.499-10.035 22.81-21.939 43.469-21.939 13.082 0 23.731 4.711 32.051 10.957 7.987-9.139 25.498-28.16 32.998-30.131l2.944-2.791c15.207-6.195 32.461-16.435 45.671-24.499 11.648-7.065 18.611-12.57 19.815-63.769h-55.296z" />
<glyph unicode="&#xe626;" d="M370.496 352c-6.080-15.296-16.672-28.128-32.512-39.168-16.64-11.744-35.36-21.376-49.984-25.632v-44.192c27.232 7.84 64 20.672 64 37.056v-184.064h64v256h-45.504zM192 256h-64v96h-64v-256h64v96h64v-96h64v256h-64z" />
<glyph unicode="&#xe627;" d="M457.344 97.44h-169.344c1.056 10.912 4.224 22.88 8.448 33.088 9.152 20.768 27.104 42.592 62.304 75.68 34.144 31.328 39.424 37.664 46.112 51.744 2.464 5.664 3.872 11.968 3.872 19.040 0 21.12-11.968 33.44-32.384 33.44-21.12 0-32.736-13.024-34.496-39.424l-48.224 4.928c3.52 33.792 16.896 54.56 40.832 65.472 13.728 6.336 27.104 9.152 42.944 9.152 47.904 0 79.936-28.192 79.936-70.048 0-14.432-4.576-31.328-11.264-43.328-10.56-19.328-17.6-27.424-45.408-53.12-30.976-28.544-33.088-31.008-39.424-41.952h96.096v-44.672zM192 352v-96h-64v96h-64v-256h64v96h64v-96h64v256z" />
<glyph unicode="&#xe628;" d="M329.632 172.032c2.816-22.88 16.544-36.928 35.936-36.928 20.768 0 35.2 17.6 35.2 42.24 0 23.232-13.728 39.424-33.44 39.424-6.688 0-13.024-1.056-22.176-3.52l5.28 39.104h3.168c21.824 0 36.96 13.376 36.96 32.704 0 16.896-10.912 27.808-27.808 27.808-17.6 0-29.216-12.672-31.68-33.792l-44.704 7.744c4.928 23.936 12.32 37.632 25.696 48.896 13.024 10.56 32.032 16.896 52.096 16.896 41.92 0 75.008-28.512 75.008-64.768 0-14.080-5.984-28.16-16.192-38.72-5.984-6.016-9.504-8.448-20.064-14.048 29.216-6.368 47.52-29.248 47.52-60.224 0-45.408-36.96-79.552-85.216-79.552-44.352 0-77.44 28.544-82.368 71.104l46.784 5.632zM192 352v-96h-64v96h-64v-256h64v96h64v-96h64v256z" />
<glyph unicode="&#xe629;" d="M396.864 148.128h-103.488v42.24l109.472 160.192h40.48v-159.808h31.328v-42.624h-31.328v-50.688h-46.464v50.688zM396.864 276.64h-0.704l-57.376-85.888h58.080v85.888zM192 352v-96h-64v96h-64v-256h64v96h64v-96h64v256z" />
<glyph unicode="&#xe62a;" d="M331.648 169.248c2.816-20.736 17.248-35.2 35.552-35.2 22.176 0 36.256 19.008 36.256 49.28 0 28.864-14.080 46.464-37.664 46.464-13.728 0-26.048-5.984-37.344-18.656l-39.072 5.664 24.672 131.328h127.776v-45.056h-91.168l-7.392-42.976c11.264 5.984 21.12 8.096 32.736 8.096 44.352 0 77.12-35.904 77.12-84.128 0-51.072-36.96-88.704-86.272-88.704-46.112 0-77.44 26.016-83.424 68.992l48.224 4.896zM192 352v-96h-64v96h-64v-256h64v96h64v-96h64v256z" />
<glyph unicode="&#xe62b;" d="M401.792 284.736c-2.112 18.304-11.968 28.16-27.808 28.16-23.936 0-35.904-20.416-38.72-67.584l-0.352-2.464 0.704-0.704c11.264 13.76 26.4 21.12 44 21.12 42.24 0 73.568-35.2 73.568-82.368 0-51.040-33.088-85.536-80.96-85.536-56.32 0-87.328 45.056-87.328 127.104 0 84.512 32.384 130.24 91.904 130.24 39.424 0 64.768-22.176 71.808-62.688l-46.816-5.28zM374.688 135.104c19.712 0 31.328 16.576 31.328 45.056 0 29.568-12.672 47.488-33.792 47.488-20.064 0-33.088-16.864-33.088-42.208 0-29.568 14.784-50.336 35.552-50.336zM192 352v-96h-64v96h-64v-256h64v96h64v-96h64v256z" />
<glyph unicode="&#xe62c;" d="M158.048 418.432c24.544 15.808 54.688 25.92 90.432 25.92 46.976 0 86.016-10.112 117.12-32.576 31.072-22.464 46.624-55.168 46.624-99.232 0-27.040-6.752-49.536-20.224-68.032-7.872-11.232-23.040-25.44-45.408-42.912l-22.080-17.088c-12.032-9.344-20-13.76-23.936-26.24-2.496-7.904-3.84-30.304-4.064-30.304h-84.512c1.248 0 4.576 52.928 9.952 66.336s19.264 25.6 41.664 43.072l22.72 16.16c7.424 5.6 13.472 10.944 18.048 17.6 8.256 11.424 12.416 23.616 12.416 37.344 0 15.808-4.64 29.984-13.824 43.008-9.248 12.992-26.080 19.392-50.592 19.392-24.064 0-41.12-12.48-51.2-28.512-10.016-16-15.072-54.4-15.072-54.4h-90.112c2.496 64.032 23.168 105.728 62.048 130.464zM314.176 32c0-35.346-28.654-64-64-64s-64 28.654-64 64c0 35.346 28.654 64 64 64s64-28.654 64-64z" />
<glyph unicode="&#xe62d;" d="M379.040 353.44l71.936 71.936-22.624 22.624-78.432-78.432c-29.056 13.472-60.704 21.472-94.176 21.472-99.392 0-184.8-65.632-223.776-160 17.088-41.312 43.424-76.608 75.584-103.808l-70.24-70.24 22.624-22.624 73.632 73.632c36.064-23.136 77.568-36.928 122.176-36.928 99.36 0 184.8 65.632 223.776 160-21.28 51.52-56.736 93.984-100.48 122.368zM64 231.040c36.864 76.288 114.72 128 191.776 128 23.488 0 46.976-5.312 69.472-14.144l-195.168-195.168c-27.168 21.44-50.432 48.96-66.080 81.312zM255.776 103.040c-34.016 0-68 10.56-98.752 28.384l198.656 198.656c38.56-22.56 71.872-56.8 92.288-99.040-36.832-76.288-115.136-128-192.192-128z" />
<glyph unicode="&#xe62e;" d="M255.776 416c-113.6 0-211.232-78.784-255.776-192 44.544-113.216 142.176-192 255.776-192s211.232 78.784 255.776 192c-44.544 113.216-142.176 192-255.776 192zM255.776 64c-92.576 0-178.208 62.4-221.12 160 42.912 97.632 128.544 160 221.12 160s178.208-62.4 221.12-160c-42.912-97.6-128.544-160-221.12-160zM31.822 12.601l434.397 434.397 22.627-22.627-434.397-434.397-22.627 22.627z" />
<glyph unicode="&#xe62f;" d="M256.224 416c-113.6 0-211.232-78.784-255.776-192 44.544-113.216 142.176-192 255.776-192s211.232 78.784 255.776 192c-44.544 113.216-142.176 192-255.776 192zM256.224 75.456c-86.56 0-166.848 57.76-208.576 148.544 36.864 80.288 104.8 133.184 178.816 146.080 37.504 5.92 60.096-0.064 60.096-0.064 74.624-11.744 141.44-65.984 178.24-146.048-41.728-90.752-122.016-148.512-208.576-148.512zM31.825 12.603l434.397 434.397 22.627-22.627-434.397-434.397-22.627 22.627z" />
<glyph unicode="&#xe630;" d="M224 192h64v-96h-64v96zM448 256v160h-96v-64l-96 96-256-256h64v-192h384v192h64l-64 64zM416 32h-320v192l160 160 160-160v-192zM416 320h-32v64h32v-64z" />
<glyph unicode="&#xe631;" d="M448 256v160h-96v-64l-96 96-256-256h64v-192h384v192h64l-64 64zM96 224l160 160 28.672-28.672-188.672-188.704v57.376zM96 121.376l211.328 211.328 41.376-41.376-252.704-252.704v82.752zM134.624 32l236.672 236.672 41.376-41.376-194.496-194.496 0.8-0.8h-84.352zM416 32h-25.376l25.376 25.376v-25.376zM416 101.024l-0.8 0.8-69.024-69.024 0.8-0.8h-84.352l153.376 153.376v-84.352z" />
<glyph unicode="&#xe632;" d="M0 224h128v-96h-128v96zM160 224h192v-96h-192v96zM384 224h128v-96h-128v96zM96 352h160v-96h-160v96zM288 352h128v-96h-128v96zM96 96h128v-96h-128v96zM256 96h160v-96h-160v96z" />
<glyph unicode="&#xe633;" d="M439.104 288h8.896v128h-64v-84.864l-121.632 105.792-242.976-212.928h44.608v-224h384v224h66.080l-74.976 64zM288 64h-64v96h64v-96z" />
<glyph unicode="&#xe634;" d="M160 352h224v-32h-224v32zM96 248h352v-48h-352v48zM160 128h224v-32h-224v32z" />
<glyph unicode="&#xe635;" d="M163.2 296.192c0-26.404-20.058-47.808-44.8-47.808s-44.8 21.404-44.8 47.808c0 26.404 20.058 47.808 44.8 47.808s44.8-21.404 44.8-47.808zM311.008 268.544c-1.984 2.496-5.824-0.032-7.552-2.688l-94.784-129.312c-1.856-2.784-6.208-3.104-8-0.288l-49.408 47.456c-1.92 2.912-7.392 8.736-9.184 5.728l-78.080-93.44h384l-136.992 172.544zM0 416v-384h512v384h-512zM480 64h-448v320h448v-320z" />
<glyph unicode="&#xe636;" d="M128 288h64v-160h128v160h64l-128 160zM384 160v-96h-256v96h-64v-160h384v160z" />
<glyph unicode="&#xe637;" d="M224 356.384v-8.768c0-15.264 12.352-27.616 27.616-27.616h8.768c15.264 0 27.616 12.352 27.616 27.616v8.768c0 15.264-12.352 27.616-27.616 27.616h-8.768c-15.264 0-27.616-12.352-27.616-27.616zM251.616 96h8.768c15.264 0 27.616 12.352 27.616 27.616v136.768c0 15.264-12.352 27.616-27.616 27.616h-8.768c-15.264 0-27.616-12.352-27.616-27.616v-136.768c0-15.264 12.352-27.616 27.616-27.616z" />
<glyph unicode="&#xe638;" d="M219.429 187.428h73.143v146.286h40.613l-75.008 100.005-75.008-100.005h36.261zM383.561 315.428l43.282-49.335-105.837-90.496 48.841-48.951 90.825 92.397 51.328-51.127v147.511zM92.781 260.060l50.889 55.369h-143.671v-136.521l47.415 43.283 89.527-105.837 48.476 48.841zM257.171 154.861c-40.339 0-73.143-32.805-73.143-73.143s32.804-73.143 73.143-73.143 73.143 32.805 73.143 73.143-32.786 73.143-73.143 73.143zM257.171 45.147c-20.169 0-36.572 16.402-36.572 36.572s16.403 36.572 36.572 36.572 36.572-16.402 36.572-36.572-16.402-36.572-36.572-36.572z" />
<glyph unicode="&#xe639;" d="M296 295.52l-48.256-231.52h-63.008l48.704 231.52h62.56zM314.336 384l-11.616-56.736h-62.56l11.616 56.736h62.56z" />
<glyph unicode="&#xe63a;" d="M320 384h64v-320h-64v320zM160.96 62.048l-48.96 48.96 111.008 112.032-111.008 111.968 48.96 48.992 160.992-160.96z" />
<glyph unicode="&#xe63b;" d="M288 288v-64h-64v64h-224v-192h224v64h64v-64h224v192h-224zM192 128h-160v128h160v-32h-32c-17.664 0-32-14.336-32-32s14.336-32 32-32h32v-32zM480 128h-160v32h32c17.664 0 32 14.336 32 32s-14.336 32-32 32h-32v32h160v-128z" />
<glyph unicode="&#xe63c;" d="M160 288v53.344c0 44.032 44.608 82.656 100 82.656 50.848 0 91.488-32.608 98.56-72h48.16c-6.624 65.984-76.544 120-154.72 120-82.4 0-156-59.84-156-130.656v-53.344h-32v-288h384v288h-288zM416 32h-320v224h320v-224zM224 160h64v-96h-64v96z" />
<glyph unicode="&#xe63d;" d="M416 288v53.344c0 70.816-77.6 130.656-160 130.656s-160-59.84-160-130.656v-53.344h-32v-288h384v288h-32zM160 341.344c0 44.032 40.608 82.656 96 82.656s96-38.624 96-82.656v-53.344h-192v53.344zM416 32h-320v224h320v-224zM224 160h64v-96h-64v96z" />
<glyph unicode="&#xe63e;" d="M256 480c-141.376 0-256-114.592-256-256s114.624-256 256-256c141.376 0 256 114.592 256 256s-114.624 256-256 256zM256 32c-105.856 0-192 86.144-192 192s86.144 192 192 192 192-86.144 192-192-86.144-192-192-192zM388.672 347.328l-124.896-124.896c-2.56 0.672-5.024 1.568-7.808 1.568s-5.248-0.928-7.808-1.568l-76.896 76.896-22.624-22.624 76.896-76.896c-0.672-2.56-1.568-5.024-1.568-7.808 0-17.664 14.304-32 32-32s32 14.336 32 32c0 2.752-0.928 5.248-1.568 7.808l124.896 124.896-22.624 22.624z" />
<glyph unicode="&#xe63f;" d="M504.448 141.543c-8.217 25.421-25.831 46.106-49.613 58.265-14.055 7.193-29.773 10.983-45.466 10.983-6.093 0-12.032-0.743-17.869-1.792l-65.433 79.257c7.45 7.373 13.952 15.846 18.893 25.523 25.088 49.075 5.632 109.415-43.418 134.528-14.055 7.193-29.773 10.983-45.466 10.983-37.76 0-71.885-20.839-89.063-54.425-20.48-40.013-10.88-87.296 19.917-117.069l-59.264-80.051c-7.885 1.971-15.975 3.072-24.064 3.072-37.76 0-71.885-20.839-89.063-54.425-12.185-23.757-14.361-50.841-6.144-76.262s25.831-46.106 49.613-58.265c14.054-7.193 29.773-10.983 45.465-10.983 37.76 0 71.859 20.839 89.063 54.4 20.506 40.064 10.88 87.347-19.917 117.146l59.239 80.025c7.885-1.971 15.975-3.072 24.089-3.072 8.55 0 16.845 1.203 24.883 3.251l63.053-76.365c-9.472-8.243-17.587-18.227-23.552-29.875-12.185-23.757-14.361-50.841-6.144-76.262s25.831-46.106 49.613-58.265c14.055-7.193 29.773-10.983 45.466-10.983 37.76 0 71.859 20.839 89.063 54.4 12.135 23.782 14.31 50.867 6.118 76.262zM152.525 85.76c-13.389-26.265-47.463-37.529-74.087-23.911-13.082 6.707-22.784 18.099-27.264 32.077-4.531 13.978-3.328 28.902 3.379 41.984 9.446 18.483 28.237 29.978 49.050 29.978 8.755 0 17.152-2.048 25.037-6.067 26.982-13.824 37.709-47.053 23.885-74.061zM230.938 310.4c-27.008 13.824-37.734 47.027-23.911 74.061 9.447 18.483 28.237 29.952 49.050 29.952 8.729 0 17.127-2.048 24.986-6.067 27.034-13.824 37.76-47.053 23.936-74.061-13.44-26.265-47.462-37.453-74.061-23.885zM458.291 85.76c-13.389-26.265-47.462-37.529-74.087-23.911-13.082 6.707-22.784 18.099-27.264 32.077-4.531 13.978-3.328 28.902 3.379 41.984 9.447 18.483 28.262 29.978 49.050 29.978 8.755 0 17.152-2.048 25.037-6.067 26.983-13.824 37.709-47.053 23.885-74.061z" />
<glyph unicode="&#xe640;" d="M128 192v64h256v-64h-256z" />
<glyph unicode="&#xe641;" d="M96 256h320v-96h-320v96z" />
<glyph unicode="&#xe642;" d="M48.589 403.2c-26.727 0-48.589-21.863-48.589-48.589v-2.611h177.28l152.601-157.184c6.195-6.247 16.743-8.141 23.168-2.176l107.75 133.76v-230.4h-307.2v-0.512c0-27.878 22.81-50.688 50.688-50.688h307.712v358.4h-463.411zM343.808 227.815c-1.51-1.587-4.070 0.154-5.529 1.817l-107.879 122.368h208.717l-95.309-124.185zM51.2 300.8h102.4v-51.2h-102.4v51.2zM102.4 198.4h102.4v-51.2h-102.4v51.2z" />
<glyph unicode="&#xe643;" d="M224.96 62.048l-48.96 48.96 111.008 112.032-111.008 111.968 48.96 48.992 160.992-160.96z" />
<glyph unicode="&#xe644;" d="M352 96c-23.584 0-44-12.96-55.104-32h-136.896v96h136.896c11.104-19.040 31.52-32 55.104-32 35.296 0 64 28.704 64 64s-28.704 64-64 64-64-28.704-64-64h-128v45.632c47.52 7.712 84 48.736 84 98.368 0 55.136-44.864 100-100 100s-100-44.864-100-100c0-49.664 36.48-90.656 84-98.368v-205.632h160c0-35.296 28.704-64 64-64s64 28.704 64 64-28.704 64-64 64zM84 336c0 33.088 26.912 60 60 60s60-26.912 60-60-26.912-60-60-60-60 26.912-60 60z" />
<glyph unicode="&#xe645;" d="M347.428 114.286c-23.844 0-43.94-15.305-51.493-36.572h-94.793v109.714h94.793c7.552-21.267 27.648-36.572 51.493-36.572 30.3 0 54.857 24.558 54.857 54.857s-24.558 54.857-54.857 54.857c-23.844 0-43.94-15.305-51.493-36.571h-94.793v57.454c31.452 8.173 54.857 36.553 54.857 70.546 0 40.339-32.804 73.143-73.143 73.143s-73.143-32.804-73.143-73.143c0-33.993 23.405-62.373 54.857-70.546v-240.311h131.364c7.552-21.267 27.648-36.572 51.493-36.572 30.3 0 54.857 24.558 54.857 54.857s-24.558 54.857-54.857 54.857zM146.286 352c0 20.169 16.403 36.572 36.572 36.572s36.572-16.403 36.572-36.572-16.403-36.572-36.572-36.572-36.572 16.403-36.572 36.572z" />
<glyph unicode="&#xe646;" d="M96 256h32v-32h-32v32zM160 256h256v-32h-256v32zM32 448v-416h448v416h-448zM448 64h-384v96h384v-96zM448 192h-384v96h384v-96zM448 320h-384v96h384v-96zM96 384h32v-32h-32v32zM160 384h256v-32h-256v32zM96 128h32v-32h-32v32zM160 128h256v-32h-256v32z" />
<glyph unicode="&#xe647;" d="M217.536 384h224v-32h-224v32zM89.536 320h32v128h-64v-32h32zM57.536 256h64v-32h32v64h-96zM89.536 192h-32v-32h96v32h-32v32h-32zM217.536 224h224v-32h-224v32zM89.536 128h-32v-32h64v-64h-64v-32h96v128h-32zM217.536 64h224v-32h-224v32z" />
<glyph unicode="&#xe648;" d="M128 224h256v-32h-256v32z" />
<glyph unicode="&#xe649;" d="M416 224h-128v128h-32v-128h-128v-32h128v-128h32v128h128z" />
<glyph unicode="&#xe64a;" d="M182.254 190.793c12.781 25.070 27.319 53.321 38.948 81.683v0l4.608 11.191c-15.196 57.837-24.302 104.247-16.165 134.272v0c2.195 7.827 11.245 12.563 20.956 12.563v0l5.906-0.091h1.079c13.257 0.201 19.511-16.676 20.224-23.241v0c1.171-10.916-3.876-29.422-3.876-29.422v0c0 7.461 0.292 19.529-4.425 29.952v0c-5.486 12.051-10.733 19.237-15.433 20.389v0c-2.377-1.591-4.681-4.864-5.468-11.173v0c-1.627-8.851-2.121-20.023-2.121-25.783v0c0-20.352 4.005-47.195 11.886-74.88v0c1.481 4.279 2.798 8.412 3.821 12.269v0c1.609 6.089 11.868 46.391 11.868 46.391v0c0 0-2.578-53.651-6.199-69.888v0c-0.768-3.438-1.627-6.821-2.524-10.295v0c12.983-36.279 33.902-68.644 58.843-91.94v0c9.837-9.197 22.253-16.603 34.029-23.369v0c25.673 3.675 49.335 5.413 69.047 5.193v0c26.167-0.348 45.385-4.224 53.156-11.868v0c3.803-3.731 5.358-8.228 5.833-13.276v0c0.11-1.957-0.841-6.565-1.134-7.735v0c0.293 1.389 0.293 8.284-20.717 14.995v0c-16.548 5.284-47.507 5.12-84.681 1.171v0c42.971-21.029 84.846-31.469 98.121-25.216v0c3.255 1.572 7.187 6.967 7.187 6.967v0c0 0-2.341-10.624-4.023-13.293v0c-2.139-2.889-6.345-6.016-10.332-7.058v0c-20.955-5.596-75.502 7.351-123.063 34.524v0c-53.139-7.827-111.488-22.272-158.263-37.613v0c-45.971-80.548-80.531-117.541-108.635-103.479v0l-10.331 5.193c-4.206 2.396-4.846 8.247-3.877 13.019v0c3.273 16.036 23.388 40.192 63.781 64.311v0c4.352 2.633 23.716 12.873 23.716 12.873v0c0 0-14.336-13.879-17.701-16.603v0c-32.237-26.423-56.028-59.648-55.443-72.539v0l0.109-1.115c27.428 3.877 68.499 59.63 121.289 162.925zM198.985 182.236c-8.814-16.603-17.445-32-25.399-46.135v0c44.013 18.45 91.392 30.245 136.503 38.62v0c-6.071 4.188-11.94 8.613-17.481 13.293v0c-24.832 21.029-43.776 47.269-57.49 74.861v0c-8.704-23.442-19.053-48.365-36.132-80.64z" />
<glyph unicode="&#xe64b;" d="M128 32h-96v-32h220.992l-124.992 144.992zM466.016 349.856c-42.592 42.592-96 32-96 32l-194.432-194.464 119.488-136.512 202.944 202.944c0 0.032 10.944 53.12-32 96.032zM259.328 150.656l-31.328 35.328 156.992 150.336c0 0 15.008-8.992 35.008-31.008l-160.672-154.656z" />
<glyph unicode="&#xe64c;" d="M256 448c-123.52 0-224-100.48-224-224s100.48-224 224-224 224 100.48 224 224-100.48 224-224 224zM256 38.4c-102.349 0-185.6 83.251-185.6 185.6s83.251 185.6 185.6 185.6c0 0 0-134.4 2.816-134.682-0.947 0.051-1.843 0.281-2.816 0.281-28.288 0-51.2-22.912-51.2-51.2s22.912-51.2 51.2-51.2c28.288 0 51.2 22.912 51.2 51.2h128c1.715 13.517 6.4 12.903 6.4 0 0-102.349-83.251-185.6-185.6-185.6z" />
<glyph unicode="&#xe64d;" d="M288 256v128h-64v-128h-128v-64h128v-128h64v128h128v64z" />
<glyph unicode="&#xe64e;" d="M448 256h-128v128h-96v-128h-128v-96h128v-128h96v128h128z" />
<glyph unicode="&#xe64f;" d="M288.96 384l48.96-48.96-110.976-112 111.008-112-48.992-48.992-160.96 160.992z" />
<glyph unicode="&#xe650;" d="M188.416 275.2l-39.584-39.584 82.56-82.56 25.12-28.384 203.84 269.12-44.8 33.6-162.56-216.736-64.576 64.544zM468.448 251.904l-51.296 51.296-19.904-26.56 47.968-47.968c2.592-2.592 2.592-6.784 0-9.376l-184.512-184.512c-1.6-1.6-3.424-1.952-4.672-1.952s-3.072 0.32-4.672 1.952l-184.512 184.512c-2.592 2.592-2.592 6.784 0 9.376l184.512 184.512c1.6 1.6 3.424 1.952 4.672 1.952s3.072-0.32 4.672-1.952l40.256-40.256 19.904 26.56-36.96 36.96c-7.712 7.712-17.824 11.552-27.904 11.552s-20.224-3.84-27.904-11.552l-184.512-184.512c-15.424-15.424-15.424-40.416 0-55.84l184.512-184.512c7.712-7.712 17.824-11.552 27.904-11.552s20.224 3.84 27.904 11.552l184.512 184.512c15.424 15.392 15.424 40.416 0.032 55.808z" />
<glyph unicode="&#xe651;" d="M178.752 282.496l-45.248-45.248 94.368-94.368 28.704-32.448 232.96 307.552-51.2 38.4-185.76-247.68-73.824 73.792zM498.784 255.904l-58.624 58.624-22.752-30.336 54.816-54.816c2.944-2.944 2.944-7.744 0-10.72l-210.88-210.88c-1.824-1.824-3.936-2.208-5.344-2.208s-3.52 0.384-5.344 2.208l-210.88 210.88c-2.944 2.944-2.944 7.776 0 10.72l210.88 210.88c1.824 1.824 3.936 2.208 5.344 2.208s3.52-0.384 5.344-2.208l46.016-46.016 22.752 30.336-42.24 42.24c-8.8 8.8-20.352 13.216-31.904 13.216s-23.104-4.416-31.904-13.216l-210.88-210.88c-17.632-17.632-17.632-46.176 0-63.808l210.88-210.88c8.8-8.8 20.352-13.216 31.904-13.216s23.104 4.416 31.904 13.216l210.88 210.88c17.664 17.6 17.664 46.144 0.032 63.776z" />
<glyph unicode="&#xe652;" d="M208.352 352h-96.704c-8.64 0-15.648-7.008-15.648-15.648v-96.704c0-8.64 7.008-15.648 15.648-15.648h80.352v-31.456c0-2.624-2.656-64.544-48-64.544h-16v-32h16c60.736 0 78.88 62.432 80 96v144.352c0 8.64-7.008 15.648-15.648 15.648zM368.352 352h-96.704c-8.64 0-15.648-7.008-15.648-15.648v-96.704c0-8.64 7.008-15.648 15.648-15.648h80.352v-31.456c0-2.624-2.656-64.544-48-64.544h-16v-32h16c60.736 0 78.88 62.432 80 96v144.352c0 8.64-7.008 15.648-15.648 15.648z" />
<glyph unicode="&#xe653;" d="M64 480c0 0 0-114.272 0-224s192-256 192-256 192 146.272 192 256 0 224 0 224h-384zM416 256c0-62.144-91.296-158.464-160-215.136-68.704 56.672-160 152.992-160 215.136v192h320v-192zM257.76 244.512l69.664-69.664 22.624 22.656-90.496 90.496-1.792-1.76-1.76 1.76-90.496-90.496 22.624-22.656zM257.76 372.512l69.664-69.664 22.624 22.656-90.496 90.496-1.792-1.76-1.76 1.76-90.496-90.496 22.624-22.656z" />
<glyph unicode="&#xe654;" d="M96 256h224v-64h-224v64zM96 352h128v-64h-128v64zM96 160h320v-64h-320v64z" />
<glyph unicode="&#xe655;" d="M96 256h224v-64h-224v64zM96 160h128v-64h-128v64zM96 352h320v-64h-320v64z" />
<glyph unicode="&#xe656;" d="M416 384h-224c-38.4 0-96-34.976-96-88s57.6-88 96-88v-176h64v320h32v-320h64v320h64v32z" />
<glyph unicode="&#xe657;" d="M391.232 264.352c0-59.872-30.944-116.256-86.592-152.256l61.12-104.064h-106.144l-106.944 186.656v-186.656h-80.736v432h140.64c104.992-0.032 178.656-73.184 178.656-175.68zM303.104 266.304c0 50.464-38.816 92.32-92.512 92.32h-59.968l108.512-167.872c30.624 21.12 43.968 44.64 43.968 75.552zM449.6 116.384c30.176 0 54.464-24.288 54.464-54.4s-24.32-53.632-54.464-53.632c-29.376 0-53.696 23.488-53.696 53.632s24.32 54.4 53.696 54.4z" />
<glyph unicode="&#xe658;" d="M441.472 156.979c-20.992 12.8-46.361 23.168-68.711 32.307l-3.968 1.613c-5.376 3.84-23.962 20.941-35.149 35.021 2.534 5.069 7.911 16.922 11.546 28.135 2.022 0.896 3.277 1.613 3.379 1.664 19.456 12.211 21.453 41.651 22.759 61.133l0.384 5.351c0.845 8.781-2.663 15.207-5.632 18.841 18.739 88.883-22.963 116.634-48.128 124.749-11.161 4.505-31.949 12.928-58.137 14.208-23.987-1.28-44.749-9.703-54.477-13.696-26.547-8.627-68.275-36.327-50.381-125.005-2.073-3.865-5.581-10.291-4.813-18.969l0.435-5.632c1.331-19.43 3.303-48.768 22.938-61.107 0.051-0.025 1.229-0.717 3.174-1.587 3.584-10.957 8.781-22.425 11.469-27.725 0.051-0.077 0.025-0.179 0.077-0.281 0-0.025 0.128-0.231 0.154-0.281-11.367-14.003-29.927-31.155-35.303-34.995l-3.968-1.792c-22.349-9.139-47.693-19.865-68.71-32.615-30.745-18.663-46.925-60.467-48.051-122.88-0.154-9.472 3.431-19.815 10.087-26.547 6.656-6.784 15.565-13.286 25.088-13.286h69.222c11.648 0 21.069 13.952 21.069 25.6s-9.421 25.6-21.069 25.6h-62.029c1.664 25.6 13.722 68.122 29.901 77.978 18.176 11.008 44.211 18.969 65.127 27.52l9.447 1.971v0.051c0 5.453 24.909 27.136 38.4 39.271 11.315-8.346 25.933-14.925 44.006-14.925 18.611 0 33.715 6.81 45.389 15.769 10.829-11.93 32.333-34.151 45.031-39.705l4.787-1.587c20.915-8.55 44.621-17.382 62.797-28.416 16.179-9.805 25.882-52.327 27.571-77.926h-57.139c-11.648 0-21.069-13.952-21.069-25.6s9.421-25.6 21.069-25.6h64.333c9.549 0 18.483 6.528 25.139 13.312 6.656 6.759 10.189 18.509 10.035 27.955-1.101 62.361-17.28 103.45-48.077 122.112zM261.606 218.803c-22.093 0-35.507 25.728-35.635 25.984-5.581 11.085-10.47 25.011-10.931 28.569-0.768 7.936-5.965 14.745-13.44 17.587-1.664 0.666-3.405 1.075-5.145 1.28-2.432 6.861-3.456 21.939-3.84 27.341l-0.154 2.432c2.714 5.069 7.373 14.643 4.583 27.776-9.088 43.187-1.946 68.915 22.733 76.979 8.857 3.584 25.344 10.265 40.038 11.161 15.591-0.819 30.029-6.221 43.699-11.699 23.245-7.552 30.413-33.28 21.299-76.441-2.637-12.365 1.357-21.581 4.608-27.75l-0.179-2.33c-0.384-5.529-1.408-20.992-3.917-27.75-1.613-0.205-3.226-0.589-4.813-1.152-7.399-2.714-12.723-9.575-13.696-17.383-0.461-3.584-5.351-17.408-10.906-28.544-0.358-0.743-0.435-1.536-0.743-2.279-0.205-0.384-0.589-0.614-0.768-1.024-0.435-0.922-11.213-22.759-32.793-22.759zM370.791 96h-82.355l-25.447 75.315-25.447-75.315h-82.329l66.611-49.613-25.447-78.387 66.611 46.541 66.637-46.541-25.447 78.387z" />
<glyph unicode="&#xe659;" d="M448 52.48c0-11.296-9.152-20.48-20.48-20.48h-339.52c-13.248 0-24 10.752-24 24v332.48c0 15.136 12.384 27.52 27.52 27.52h228.48l128-96v-267.52zM416 64v241.344l-96 75.136v-104c0-11.296-9.152-20.48-20.48-20.48h-147.52c-13.248 0-24 10.752-24 24v104h-32v-320h32v100.48c0 15.136 12.384 27.52 27.52 27.52h204.48c13.248 0 24-10.752 24-24v-104h32zM352 64v96h-192v-96h192zM288 376c0 4.416-3.584 8-8 8h-48c-4.416 0-8-3.584-8-8v-80c0-4.416 3.584-8 8-8h48c4.416 0 8 3.584 8 8v80z" />
<glyph unicode="&#xe65a;" d="M330.656 416h-242.112c-13.568 0-24.576-11.008-24.576-24.576v-334.88c0-13.568 11.008-24.576 24.576-24.576h334.88c13.568 0 24.576 11.008 24.576 24.576v263.424l-117.344 96.032zM320 64h-192v96h192v-96zM320 288v-32h-192v128h96v-96h64v96h32v-96z" />
<glyph unicode="&#xe65b;" d="M448 52.48c0-11.296-9.152-20.48-20.48-20.48h-339.52c-13.248 0-24 10.752-24 24v332.48c0 15.136 12.384 27.52 27.52 27.52h228.48l128-96v-267.52zM416 64v241.344l-96 75.136v-104c0-11.296-9.152-20.48-20.48-20.48h-147.52c-13.248 0-24 10.752-24 24v104h-32v-320h320zM288 376c0 4.416-3.584 8-8 8h-48c-4.416 0-8-3.584-8-8v-80c0-4.416 3.584-8 8-8h48c4.416 0 8 3.584 8 8v80z" />
<glyph unicode="&#xe65c;" d="M330.656 416h-241.728c-13.76 0-24.928-11.168-24.928-24.928v-334.112c0-13.76 11.168-24.928 24.928-24.928h334.112c13.76 0 24.928 11.168 24.928 24.928v263.072l-117.312 95.968zM320 288v-32h-192v128h96v-96h64v96h32v-96z" />
<glyph unicode="&#xe65d;" d="M341.344 448h-284.768c-13.568 0-24.576-11.008-24.576-24.576v-398.88c0-13.568 11.008-24.576 24.576-24.576h398.88c13.568 0 24.576 11.008 24.576 24.576v311.424l-138.688 112.032zM320 320v-32h-224v128h128v-96h64v96h32v-96z" />
<glyph unicode="&#xe65e;" d="M341.344 448h-284.768c-13.568 0-24.576-11.008-24.576-24.576v-398.88c0-13.568 11.008-24.576 24.576-24.576h398.88c13.568 0 24.576 11.008 24.576 24.576v311.424l-138.688 112.032zM320 32h-224v128h224v-128zM320 320v-32h-224v128h128v-96h64v96h32v-96z" />
<glyph unicode="&#xe65f;" d="M77.44-28.979c-12.16 0-23.578 4.711-32.128 13.312l-28.979 28.979c-8.601 8.576-13.338 19.993-13.338 32.103 0 12.16 4.736 23.552 13.338 32.128l247.552 240.589c-0.435 5.299-1.152 10.419-1.869 15.437-3.533 25.498-7.526 54.375 25.395 87.296 16.666 16.666 61.286 62.387 130.791 58.931 7.014-0.256 13.261-4.711 15.872-11.367 2.329-5.965 1.331-12.621-2.509-17.536l-55.859-84.813 22.477-22.477 84.762 55.91c3.098 2.457 6.938 3.763 10.957 3.763 9.651 0 17.536-7.475 17.971-17.050 2.918-68.915-42.035-113.869-58.983-130.791-19.175-19.174-38.195-27.75-61.645-27.75h-0.026c-8.755 0-17.229 1.178-25.472 2.304-5.043 0.691-10.189 1.434-15.539 1.869l-240.512-247.373c-8.704-8.755-20.121-13.466-32.256-13.466zM394.701 448.998c-43.52-6.4-72.883-35.738-86.272-49.126-22.451-22.477-20.275-38.272-16.947-62.208 1.075-7.885 2.227-16.025 2.483-24.986l0.205-6.528-256.973-249.779c-2.816-2.816-4.48-6.759-4.48-10.957 0-4.173 1.639-8.115 4.633-11.111l28.979-28.979c5.965-5.939 16.256-5.965 22.221 0l249.651 256.743 6.528-0.179c9.011-0.282 17.178-1.383 25.088-2.483 7.577-1.049 14.695-2.022 21.427-2.022 11.238 0 23.936 2.329 40.653 19.046 13.568 13.568 42.777 42.778 49.152 86.247l-86.733-57.19-56.755 56.755 57.139 86.759zM495.565 61.901l-172.211 175.616-80.845-80.819 175.104-172.723c10.675-10.649 24.627-15.974 38.605-15.974 13.952 0 27.93 5.325 38.579 15.974l0.768 0.768c21.325 21.325 21.325 55.859 0 77.159zM214.681 239.257l27.853 25.216-148.813 146.637-3.302 20.966-51.456 47.36-38.963-38.963 47.36-51.405 16.973-0.845z" />
<glyph unicode="&#xe660;" d="M451.815 348.39c11.93 0.666 23.885 1.178 35.815 2.074 3.584 0.281 5.632-0.64 7.014-4.019 5.376-13.159 10.906-26.266 16.461-39.347 1.51-3.558 0.973-5.99-2.125-8.729-17.767-15.744-35.277-31.795-52.992-47.59-2.688-2.381-3.43-4.659-3.303-8.294 0.435-12.135 0.461-24.295 0.051-36.403-0.128-3.789 0.512-6.272 3.379-8.832 17.741-15.769 35.251-31.821 52.992-47.591 2.867-2.56 3.686-4.736 2.176-8.243-5.683-13.235-11.238-26.547-16.691-39.859-1.28-3.149-3.226-4.070-6.553-3.865-24.269 1.433-48.512 2.739-72.806 3.84-2.048 0.103-4.659-1.178-6.195-2.663-9.267-8.986-18.381-18.099-27.264-27.418-1.69-1.767-3.072-4.762-2.969-7.117 1.050-24.269 2.509-48.538 3.558-72.806 0.077-1.843-1.69-4.762-3.353-5.478-13.517-5.965-27.238-11.495-40.858-17.28-3.149-1.331-5.069-0.486-7.296 1.997-15.821 17.715-31.872 35.2-47.591 52.992-2.867 3.251-5.606 3.865-9.805 3.687-11.546-0.512-23.168-0.589-34.714 0.026-4.531 0.231-7.245-0.819-10.163-4.122-15.488-17.485-31.309-34.688-46.848-52.121-2.535-2.944-4.71-3.917-8.243-2.406-13.261 5.658-26.522 11.238-39.885 16.691-3.456 1.408-4.121 3.558-3.917 7.065 1.434 24.269 2.714 48.538 3.815 72.806 0.077 1.869-1.229 4.224-2.611 5.658-9.114 9.395-18.329 18.663-27.751 27.725-1.638 1.562-4.505 2.714-6.733 2.611-24.269-1.075-48.538-2.534-72.806-3.584-1.869-0.077-4.838 1.613-5.555 3.226-6.041 13.696-11.623 27.597-17.485 41.37-1.306 3.072-0.153 4.762 2.048 6.733 17.843 15.949 35.533 32.077 53.401 48 2.842 2.534 3.584 4.941 3.431 8.781-0.435 12.135-0.384 24.294 0 36.403 0.102 3.559-0.435 5.888-3.175 8.32-17.895 15.949-35.533 32.128-53.427 48.025-2.739 2.406-3.43 4.531-2.048 7.783 5.606 13.261 11.213 26.547 16.64 39.885 1.357 3.328 3.303 4.352 6.938 4.147 24.269-1.459 48.538-2.713 72.806-3.84 1.894-0.077 4.352 1.024 5.76 2.406 9.523 9.241 18.893 18.637 28.109 28.185 1.357 1.408 2.509 3.84 2.432 5.735-1.126 24.448-2.585 48.896-3.635 73.369-0.077 1.971 1.767 5.12 3.533 5.913 13.338 5.939 26.88 11.418 40.32 17.075 3.149 1.331 5.325 0.743 7.782-2.023 15.513-17.485 31.36-34.637 46.848-52.147 3.072-3.481 5.888-4.608 10.624-4.377 11.725 0.563 23.527 0.41 35.277-0.102 3.891-0.179 6.247 0.742 8.755 3.533 15.821 17.715 31.846 35.226 47.616 52.992 2.406 2.688 4.48 3.533 7.731 2.151 13.619-5.76 27.341-11.315 40.832-17.305 1.613-0.717 3.226-3.738 3.149-5.607-1.075-24.269-2.509-48.537-3.584-72.806-0.103-2.227 1.152-5.043 2.739-6.682 8.935-9.293 18.022-18.432 27.366-27.341 1.741-1.664 4.762-2.867 7.168-2.816 11.955 0.281 23.885 1.050 35.84 1.664-0.026 0-0.026-0.026-0.026-0.051zM256.026 362.957c-76.391-0.077-138.982-62.797-138.855-139.085 0.128-76.185 61.952-138.035 138.649-138.726 75.751-0.691 138.803 62.208 139.161 138.803 0.333 76.007-62.72 139.085-138.957 139.008zM256.281 288.538c35.405-0.154 64.281-29.133 64.205-64.487-0.077-35.635-29.159-64.461-64.896-64.307-35.251 0.128-64.205 29.44-63.975 64.743 0.231 35.405 29.312 64.205 64.665 64.051z" />
<glyph unicode="&#xe661;" d="M91.428 461.714h36.572v-128h-36.572v128zM91.428 132.572h36.572v-128h-36.572v128zM146.286 286.025c0 16.238-13.166 29.404-29.404 29.404h-14.336c-16.237 0-29.403-13.165-29.403-29.404v-105.764c0-16.238 13.165-29.404 29.404-29.404h14.336c16.237 0 29.403 13.166 29.403 29.404v105.764zM384 461.714h36.572v-201.143h-36.572v201.143zM384 59.428h36.572v-54.857h-36.572v54.857zM438.857 213.577c0 15.853-12.855 28.709-28.727 28.709h-15.689c-15.872 0-28.727-12.855-28.727-28.709v-107.154c0-15.853 12.855-28.709 28.727-28.709h15.689c15.872 0 28.727 12.855 28.727 28.709v107.154zM237.714 461.714h36.572v-36.571h-36.572v36.571zM237.714 224h36.572v-219.428h-36.572v219.429zM292.572 378.533c0 15.635-12.69 28.324-28.325 28.324h-16.494c-15.635 0-28.325-12.69-28.325-28.324v-107.923c0-15.635 12.691-28.325 28.325-28.325h16.494c15.635 0 28.325 12.69 28.325 28.325v107.923z" />
<glyph unicode="&#xe662;" d="M213.431 297.709c-0.951 0.768-2.066 1.207-3.255 1.207-1.518 0-2.944-0.713-4.041-1.92-1.427-1.536-2.34-3.858-2.377-6.455l-0.018-0.859-2.596-84.736 1.335-31.579 1.298-30.72c0.055-4.553 2.925-8.301 6.4-8.301s6.345 3.748 6.4 8.375v-0.073l2.852 62.3-2.852 85.613c-0.036 3.017-1.298 5.687-3.145 7.149zM176.859 277.65c-0.951 0.768-2.066 1.207-3.255 1.207-1.536 0-2.944-0.713-4.041-1.92-1.427-1.536-2.34-3.858-2.359-6.455l-0.018-0.859-2.615-64.676 1.335-31.579 1.298-30.72c0.055-4.553 2.925-8.301 6.4-8.301s6.345 3.748 6.4 8.375v-0.073l2.852 62.3-2.852 65.555c-0.036 3.036-1.298 5.687-3.145 7.149zM141.001 246.967c-0.951 0.768-2.066 1.207-3.255 1.207-1.536 0-2.944-0.713-4.041-1.92-1.427-1.536-2.34-3.858-2.359-6.455l-0.018-0.859-2.615-36.462 1.335-31.579 1.298-30.72c0.055-4.553 2.925-8.301 6.4-8.301s6.345 3.748 6.4 8.375v-0.073l2.852 62.3-2.852 37.339c-0.036 3.017-1.298 5.687-3.145 7.149zM103.716 258.669c-0.951 0.768-2.067 1.207-3.255 1.207-1.536 0-2.944-0.713-4.041-1.92-1.427-1.536-2.341-3.858-2.359-6.455l-0.019-0.859-2.615-27.411 1.335-49.865 1.299-30.72c0.055-4.553 2.925-8.301 6.4-8.301s6.345 3.748 6.4 8.375v-0.073l2.853 80.585-2.853 28.288c-0.037 3.036-1.299 5.687-3.145 7.149zM67.145 222.793c-0.951 0.768-2.067 1.207-3.255 1.207-1.536 0-2.944-0.713-4.041-1.92-1.426-1.536-2.34-3.858-2.359-6.455l-0.019-0.86-2.615-40.649 1.335-12.507 1.298-4.297c0.055-4.553 2.925-8.301 6.4-8.301s6.345 3.748 6.4 8.375v-0.073l2.853 16.805-2.853 41.527c-0.037 3.036-1.299 5.687-3.145 7.149zM407.424 231.772c-6.82 0-13.312-1.389-19.236-3.858-3.95 44.8-40.887 86.382-86.729 86.382-27.191 0-46.135-8.631-55.79-12.361-3.749-1.463-4.755-2.944-4.791-5.851v-157.805c0.036-3.036 2.395-5.413 5.376-5.705 0.128-0.019 161.152 0 161.152 0 27.465 0 49.719 22.016 49.719 49.481 0.019 27.465-22.236 49.719-49.7 49.719z" />
<glyph unicode="&#xe663;" d="M32 384h64v-320h-64v320zM416 384h64v-320h-64v320zM224 128v192l-96-96zM288 128l96 96-96 96z" />
<glyph unicode="&#xe664;" d="M384 224c0-17.673-14.327-32-32-32s-32 14.327-32 32c0 17.673 14.327 32 32 32s32-14.327 32-32zM347.776 404.224c-15.2 0-29.824-2.432-43.776-6.688-13.952 4.224-28.608 6.688-43.776 6.688-16.704 0-32.8-2.784-48-7.872-15.2 5.088-31.296 7.872-48 7.872-90.688 0-164.224-80.672-164.224-180.224s73.504-180.224 164.224-180.224c16.704 0 32.8 2.784 48 7.872 15.2-5.088 31.296-7.872 48-7.872 15.2 0 29.824 2.432 43.776 6.688 13.952-4.224 28.608-6.688 43.776-6.688 90.688 0 164.224 80.672 164.224 180.224s-73.504 180.224-164.224 180.224zM164.224 77.312c-72.064 0-130.688 65.792-130.688 146.688s58.624 146.688 130.688 146.688c0.256 0 0.48-0.096 0.736-0.096-41.696-32.672-68.96-86.080-68.96-146.592s27.264-113.92 68.96-146.592c-0.256 0-0.48-0.096-0.736-0.096zM212.224 87.872c-48.32 21.536-82.688 74.304-82.688 136.128s34.368 114.592 82.688 136.128c6.368-2.848 12.288-6.432 18.112-10.304-28.896-32.48-46.752-76.832-46.752-125.824s17.856-93.312 46.752-125.824c-5.824-3.872-11.776-7.456-18.112-10.304zM347.776 77.312c-53.632 0-99.744 36.512-119.84 88.512-0.096 0.288-0.288 0.512-0.384 0.8-2.944 7.744-5.056 15.904-6.784 24.256-0.256 1.184-0.736 2.24-0.96 3.456-1.76 9.6-2.688 19.52-2.688 29.664s0.928 20.096 2.688 29.664c0.224 1.216 0.704 2.272 0.96 3.488 1.728 8.32 3.84 16.512 6.784 24.224 0.128 0.352 0.352 0.64 0.48 0.992 20.16 51.904 66.176 88.32 119.744 88.32 72.064 0 130.688-65.792 130.688-146.688s-58.624-146.688-130.688-146.688z" />
<glyph unicode="&#xe665;" d="M384 32l-128 96-128-96 64 160-123.808 96h145.056l44.832 128 44.832-128h145.088l-128-96 64-160z" />
<glyph unicode="&#xe666;" d="M32 32h448v-32h-448v32zM32 160h64v-96h-64v96zM128 256h64v-192h-64v192zM224 384h64v-320h-64v320zM320 320h64v-256h-64v256zM416 416h64v-352h-64v352z" />
<glyph unicode="&#xe667;" d="M387.744 387.328l50.72-38.464-212.192-285.92-152.704 154.304 44.832 45.312 100.992-102.048 168.352 226.816zM384.096 412.992l-166.656-224.512-99.008 100.064-12.96-13.12-57.536-58.144 180.352-182.24 12.672 17.056 222.944 300.416-79.808 60.48z" />
<glyph unicode="&#xe668;" d="M397.44 395.36l-161.632-222.72-96.544 99.808-54.4-56.224 159.328-164.64 214.848 296.032z" />
<glyph unicode="&#xe669;" d="M288 64v32h-128v129.6c54.208 7.84 96 54.016 96 110.4 0 61.856-50.144 112-112 112s-112-50.144-112-112c0-56.384 41.792-102.56 96-110.4v-161.6h160zM512 167.104l-24.896 24.896-87.104-87.104-87.104 87.104-24.896-24.896 87.104-87.104-87.104-87.104 24.896-24.896 87.104 87.104 87.104-87.104 24.896 24.896-87.104 87.104z" />
<glyph unicode="&#xe66a;" d="M288 64v32h-160v161.6c54.208 7.84 96 54.016 96 110.4 0 61.856-50.144 112-112 112s-112-50.144-112-112c0-56.384 41.792-102.56 96-110.4v-193.6h192zM512 167.104l-24.896 24.896-87.104-87.104-87.104 87.104-24.896-24.896 87.104-87.104-87.104-87.104 24.896-24.896 87.104 87.104 87.104-87.104 24.896 24.896-87.104 87.104z" />
<glyph unicode="&#xe66b;" d="M448 224h-122.848c-12.48 10.624-28.416 19.776-48.096 27.904-42.144 17.92-60.352 30.208-60.352 56.832 0 19.968 15.904 41.472 52.384 41.472 29.504 0 51.488-9.728 62.72-16.384l14.016 50.688c-16.384 9.216-41.632 17.44-75.776 17.44-68.352 0-111.36-43.008-111.36-99.328 0-34.56 16.384-59.584 43.712-78.592h-138.4v-32h202.144c23.776-12.704 33.824-26.56 33.824-47.136 0-28.128-20.608-47.072-57.568-47.072-29.504 0-57.568 10.208-76.288 22.016l-12.608-52.224c17.312-11.264 51.936-21.504 85.152-21.504 81.44 0 119.808 48.16 119.808 103.424 0 16.16-3.136 30.048-8.8 42.496h98.336v31.968z" />
<glyph unicode="&#xe66c;" d="M25.6 454.4v-281.6h435.2v281.6h-435.2zM232.499 320.409l-104.499 82.791h230.4l-108.339-82.509c-5.12-4.096-12.314-4.199-17.561-0.282zM76.8 224v173.286l164.582-126.592 168.218 126.592v-173.286h-332.8zM460.8-6.4h-128c0 0 28.647 76.8 64 76.8s64-76.8 64-76.8zM307.2-6.4h-128c0 0 28.647 76.8 64 76.8s64-76.8 64-76.8zM153.6-6.4h-128c0 0 28.647 76.8 64 76.8s64-76.8 64-76.8zM128 108.8c0-21.207-17.192-38.4-38.4-38.4s-38.4 17.192-38.4 38.4c0 21.207 17.193 38.4 38.4 38.4s38.4-17.192 38.4-38.4zM281.6 108.8c0-21.207-17.192-38.4-38.4-38.4s-38.4 17.192-38.4 38.4c0 21.207 17.192 38.4 38.4 38.4s38.4-17.192 38.4-38.4zM435.2 108.8c0-21.207-17.192-38.4-38.4-38.4s-38.4 17.192-38.4 38.4c0 21.207 17.192 38.4 38.4 38.4s38.4-17.192 38.4-38.4z" />
<glyph unicode="&#xe66d;" d="M253.344 384c-195.328 0-253.344-101.44-253.344-162.272 0 0 0.992-157.728 128-157.728 63.232 0 128 64 128 64s62.080-64 128-64c120 0 128 157.728 128 157.728 0 60.928-41.984 162.272-258.656 162.272zM146.944 160c-42.56 0-77.056 48-77.056 48s34.496 48 77.056 48 77.056-48 77.056-48-34.496-48-77.056-48zM370.944 160c-42.56 0-77.056 48-77.056 48s34.496 48 77.056 48 77.056-48 77.056-48-34.496-48-77.056-48z" />
<glyph unicode="&#xe66e;" d="M384 416h-256l-96-128 224-256 224 256-96 128zM416 303.040l-66.336-85.824c-3.104 32.256-24.64 54.080-67.264 69.824-33.728 12.832-48.48 20.192-48.48 36.864 0 13.568 12.416 25.248 38.016 25.248s44.224-7.392 54.72-12.448l11.040 39.936 24.864 0.064 53.44-73.664zM155.008 376.16l47.456 0.096c-18.176-14.208-28.288-34.336-28.288-57.408 0-38.016 28.32-62.080 71.776-77.184 31.424-11.264 43.84-20.576 43.84-36.864 0-17.088-14.368-28.32-41.504-28.32-25.216 0-65.92 14.816-65.92 14.816l-86.368 111.744 59.008 73.12zM230.592 128.864c4.704-0.384 9.376-0.864 14.176-0.864 15.040 0 28.032 1.952 39.776 4.96l-28.544-36.96-25.408 32.864z" />
<glyph unicode="&#xe66f;" d="M179.2 377.6h-51.2v-51.2h51.2v51.2zM384 198.4h-128v-128h128v128zM384 377.6h-128v-128h128v128zM358.4 275.2h-76.8v76.8h76.8v-76.8zM179.2 96h-51.2v25.6h51.2v25.6h-51.2v25.6h51.2v25.6h-76.8v-128h76.8v25.6zM204.8 96v25.6h-25.6v-25.6h25.6zM0 480v-512h486.4v512h-486.4zM435.2 19.2h-384v409.6h384v-409.6zM204.8 147.2v25.6h-25.6v-25.6h25.6zM128 275.2h51.2v-25.6h25.6v76.8h-25.6v-25.6h-51.2v25.6h-25.6v-76.8h25.6v25.6z" />
<glyph unicode="&#xe670;" d="M211.31 397.696l-10.167 9.161-132.243-0.128c-13.861-1.683-13.861-1.683-13.459-76.8l-0.311-87.533c-1.152-8.978 1.719-15.945 7.479-22.509l192.091-178.925 146.981 146.981-190.373 209.755zM151.516 273.591c-20.206 0-36.572 16.365-36.572 36.572s16.366 36.572 36.572 36.572c20.206 0 36.571-16.365 36.571-36.572s-16.365-36.572-36.572-36.572zM321.171 366.391c-2.304 2.322-4.462 3.364-7.789 2.925-5.431-0.713-23.095-3.365-33.426-4.919l159.506-177.481-127.981-127.981 37.87-29.349 144.403 162.761c-0.365 0.384-117.668 119.004-172.581 174.043z" />
<glyph unicode="&#xe671;" d="M301.916 434.707c-2.816 2.816-5.431 4.096-9.472 3.565-9.509-1.243-50.157-7.424-50.157-7.424l-19.090 19.474c-2.322 3.145-8.521 11.392-20.352 11.392l-185.746-0.164c-16.896-2.030-16.896-2.030-16.384-93.477l-0.384-106.551c-1.408-10.935 2.103-19.401 9.107-27.411l246.565-229.541 46.738 49.133 33.5-28.983 175.763 198.144c-0.439 0.457-143.232 144.841-210.084 211.84zM252.196 48l-215.625 212.572v164.571h159.982c0.457-0.512 0.933-1.043 1.445-1.536 70.382-70.565 140.873-141.019 211.401-211.511l-157.202-164.096zM146.286 351.964c0-20.198-16.374-36.572-36.572-36.572s-36.572 16.373-36.572 36.572c0 20.198 16.374 36.572 36.572 36.572s36.572-16.373 36.572-36.572z" />
<glyph unicode="&#xe672;" d="M102.4 275.2h179.2v-51.2h-179.2v51.2zM128 198.4h102.4v-128h-102.4v128zM256 198.4h76.8v-76.8h-76.8v76.8zM462.438 454.4h-361.677c-13.235 0-23.962-10.726-23.962-23.962v-27.238h358.4v-358.4h27.238c13.235 0 23.962 10.726 23.962 23.962v361.677c0 13.235-10.726 23.962-23.962 23.962zM25.6 353.639v-361.677c0-13.235 10.727-23.962 23.962-23.962h336.077c13.235 0 23.962 10.726 23.962 23.962v385.639h-360.038c-13.235 0-23.962-10.726-23.962-23.962zM76.8 326.4h281.6v-307.2h-281.6v307.2z" />
<glyph unicode="&#xe673;" d="M91.469 164.25c-1.51-0.051-2.969-0.231-4.505-0.231-18.919 0-36.992 3.353-53.888 9.267 26.88-89.19 109.721-154.368 207.565-154.368 2.15 0 4.224 0.256 6.349 0.333-12.647 15.411-22.451 33.229-28.826 52.582-55.962 7.629-103.040 43.289-126.695 92.416zM233.549 400.999c2.381 0.102 4.71 0.358 7.091 0.358 74.24 0 137.216-49.101 158.182-116.506 20.275-3.123 39.296-9.856 56.397-19.661-14.438 105.651-105.037 187.392-214.579 187.392-14.618 0-28.877-1.485-42.675-4.275 14.566-13.44 26.649-29.414 35.584-47.309zM177.229 262.989h-38.656l-15.36 39.987h-70.349l-14.515-39.987h-37.709l68.557 176h37.581l70.451-176zM111.821 332.621l-24.269 65.306-23.757-65.306h48.025zM366.387-8.115c1.255 9.753 1.741 18.253 1.741 35.251v45.005c-18.739-11.008-39.245-19.251-71.987-29.005-6.759 17.51-10.752 25.011-20.505 38.502 26.496 5.504 52.505 13.747 75.008 23.757 25.498 11.238 42.24 22.502 63.002 41.754l-80.845 0.051c-21.76 0-14.592 0.998-25.6 0l-6.067 38.681c11.495-1.51 21.504-1.997 36.505-1.997h29.747v13.747c0 11.238-0.256 14.49-1.255 23.245l43.469 3.123c-0.998-7.245 0-16.358 0-25.6l1.536-14.285h39.757c7.245 0 11.238 0.743 16 2.739l19.507-22.759c-3.993-2.739-3.993-2.739-11.495-11.495-12.749-14.259-15.488-16.998-46.003-43.238 31.744-11.238 55.757-22.989 80.999-39.245l-24.755-36.762c-20.762 15.769-46.285 24.295-75.546 37.043v-51.2c0-19.738-1.51-13.337 0-25.6l-43.213-1.715z" />
<glyph unicode="&#xe674;" d="M288 256h-32v-128h32v128zM370.016 384h-35.136c0 0-18.592 32-41.44 32h-50.752c-22.816 0-41.376-32-41.376-32h-42.496c-38.688 0-62.848-23.36-62.848-58.176v-37.824h32v-208.576c0-29.216 15.36-47.424 43.072-47.424h197.376c28.16 0 47.552 18.208 47.552 47.424v208.576h32v37.824c0.032 37.824-41.056 58.176-77.952 58.176zM384 79.424c0-12.928-6.688-15.424-15.552-15.424h-197.376c-7.584 0-11.072 1.152-11.072 15.424v208.576h224v-208.576zM416 320h-288v5.824c0 22.816 18.624 26.176 30.848 26.176h211.2c17.792 0 45.984-8.288 45.984-26.176v-5.824zM352 256h-32v-128h32v128zM224 256h-32v-128h32v128z" />
<glyph unicode="&#xe675;" d="M128 96.064c0-32-0.928-64.064 31.072-64.064h224c32 0 32.928 32.064 32.928 64.064v191.936h-288v-191.936zM320 256h32v-128h-32v128zM256 256h32v-128h-32v128zM192 256h32v-128h-32v128zM387.616 384h-68.544c0 0 5.888 32-20.768 32h-59.2c-26.624 0-16.032-32-16.032-32h-49.824c-41.632 0-72.608-32-77.216-64h350.592c-2.304 32-19.104 64-59.008 64z" />
<glyph unicode="&#xe676;" d="M192 256h32v-160h-32v160zM256 256h32v-160h-32v160zM320 256h32v-160h-32v160zM448 357.824c0 37.824-41.088 58.176-77.984 58.176h-35.136c0 0-18.592 32-41.44 32h-50.752c-22.816 0-41.376-32-41.376-32h-42.496c-38.688 0-62.848-23.36-62.848-58.176v-37.824h32v-272.576c0-29.216 15.36-47.424 43.072-47.424h197.376c28.16 0 47.552 18.208 47.552 47.424v272.576h32v37.824zM384 47.424c0-12.928-6.688-15.424-15.552-15.424h-197.376c-7.584 0-11.072 1.152-11.072 15.424v272.576h224v-272.576zM416 352h-288v5.824c0 22.816 18.624 26.176 30.848 26.176h211.2c17.792 0 45.984-8.288 45.984-26.176v-5.824z" />
<glyph unicode="&#xe677;" d="M446.592 352c-2.272 32-19.104 64-58.976 64h-68.544c0 0 5.888 32-20.768 32h-59.2c-26.624 0-16.032-32-16.032-32h-49.824c-41.632 0-72.608-32-77.216-64h350.56zM128 64.064c0-32-0.928-64.064 31.072-64.064h224c32 0 32.928 32.064 32.928 64.064v255.936h-288v-255.936zM320 256h32v-160h-32v160zM256 256h32v-160h-32v160zM192 256h32v-160h-32v160z" />
<glyph unicode="&#xe678;" d="M256-23.776c-122.496 0-222.144 99.68-222.144 222.176 0 70.528 32.384 135.296 88.864 177.728 13.312 9.952 32.224 7.296 42.208-6.016 9.984-13.344 7.328-32.256-6.016-42.24-41.152-30.912-64.768-78.080-64.768-129.472 0-89.248 72.608-161.888 161.856-161.888s161.856 72.64 161.856 161.888c0 51.36-23.584 98.56-64.704 129.504-13.312 9.984-16 28.896-5.984 42.208 9.984 13.312 28.896 16 42.208 5.984 56.448-42.4 88.768-107.2 88.768-177.696 0-122.496-99.648-222.176-222.144-222.176zM256.32 192h-0.64c-17.504 0-31.68 14.176-31.68 31.68v192.64c0 17.504 14.176 31.68 31.68 31.68h0.64c17.504 0 31.68-14.176 31.68-31.68v-192.64c0-17.504-14.176-31.68-31.68-31.68z" />
<glyph unicode="&#xe679;" d="M57.536 448h96v-96h-96v96zM57.536 288h96v-96h-96v96zM57.536 128h96v-96h-96v96zM217.536 384h224v-32h-224v32zM217.536 224h224v-32h-224v32zM217.536 64h224v-32h-224v32z" />
<glyph unicode="&#xe67a;" d="M405.28 198.496c-8.928-72.864-72.672-129.792-150.688-129.792-84.064 0-152.48 65.888-152.48 146.88 0 68.128 48.672 125.056 114.112 141.568 4.288 14.848 10.72 28.8 19.68 41.088-96.48-9.056-171.904-87.36-171.904-182.656 0-101.376 85.344-183.584 190.592-183.584s190.592 82.208 190.592 183.584c0 2.752-0.32 5.44-0.416 8.16-11.584-10.4-24.8-19.104-39.488-25.248zM448 389.088l-27.936 26.912-62.848-60.544-62.848 60.544-27.936-26.912 62.848-60.544-62.848-60.544 27.936-26.88 62.848 60.512 62.848-60.512 27.936 26.88-62.848 60.544z" />
<glyph unicode="&#xe67b;" d="M404.448 188.64c-9.728-82.56-79.328-147.040-164.448-147.040-91.744 0-166.4 74.656-166.4 166.4 0 77.216 53.088 141.696 124.512 160.416 4.672 16.832 11.712 32.608 21.472 46.56-105.28-10.272-187.584-98.976-187.584-206.976 0-114.88 93.12-208 208-208s208 93.12 208 208c0 3.136-0.32 6.176-0.48 9.248-12.608-11.776-27.008-21.632-43.072-28.608zM451.072 404.608l-30.496 30.464-68.576-68.576-68.576 68.576-30.496-30.464 68.576-68.608-68.576-68.608 30.496-30.464 68.576 68.576 68.576-68.576 30.496 30.464-68.576 68.608z" />
<glyph unicode="&#xe67c;" d="M320 224h32v-128h-32v128zM384 47.424c0-12.928-6.688-15.424-15.552-15.424h-197.376c-7.584 0-11.072 1.152-11.072 15.424v208.576h-32v-208.576c0-29.216 15.36-47.424 43.072-47.424h197.376c28.16 0 47.552 18.208 47.552 47.424v208.576h-32v-208.576zM256 224h32v-128h-32v128zM192 224h32v-128h-32v128zM175.328 352h48.672v-96h96v96h54.656l-102.656 128zM96 288h96v-32h-96v32zM352 288h96v-32h-96v32z" />
<glyph unicode="&#xe67d;" d="M160 128h64v-128h64v128h64l-96 128zM383.424 351.008c-28.096 0-55.808-9.92-57.76-12.032-29.6 56.896-87.68 93.056-152.864 93.056-95.296 0-172.832-77.536-172.832-172.832 0-65.984 38.432-127.168 97.952-155.808 3.008-1.44 6.176-2.112 9.312-2.112 8 0 15.648 4.48 19.36 12.16 5.152 10.688 0.672 23.52-10.048 28.672-44.736 21.536-73.632 67.488-73.632 117.12 0 71.616 58.272 129.888 129.888 129.888 53.248 0 100.512-31.904 120.48-81.248 4.416-10.976 16.96-16.288 27.936-11.872 4.672 1.888 34.752 12.096 62.176 12.096 47.872 0 86.848-40.096 86.848-89.376 0-38.784-24.032-72.928-59.776-84.96-10.976-3.68-16.928-15.808-13.344-27.072 2.88-9.056 11.040-14.816 19.84-14.816 2.144 0 4.32 0.32 6.464 1.056 52.96 17.824 88.576 68.384 88.576 125.792 0 72.896-57.664 132.288-128.576 132.288z" />
<glyph unicode="&#xe67e;" d="M512 225.613c0 140.185-114.841 254.387-256 254.387s-256-113.715-256-253.901c0-65.843 25.241-126.848 70.886-174.285 18.713-18.227 89.907-83.814 185.113-83.814 108.007 0 177.613 72.807 187.034 84.762 44.416 47.181 68.966 107.93 68.966 172.851zM256 447.437c123.264 0 223.539-99.584 223.539-221.978 0-54.067-19.43-104.986-54.835-145.357-19.584 11.801-43.187 21.376-64 29.849l-2.816 1.075c-4.634 3.175-22.221 19.175-32.743 32.307 2.329 4.685 7.322 15.539 10.701 25.856 1.178 0.486 2.227 0.998 3.123 1.562 17.971 11.213 19.789 38.195 20.992 56.038l0.358 5.018c0.743 8.013-2.483 13.927-5.171 17.255 17.28 81.613-21.248 107.059-44.467 114.483-15.283 6.17-32.103 12.032-53.709 13.082-22.246-1.229-41.395-8.934-50.381-12.621-24.499-7.885-63.053-33.382-46.515-114.765-1.946-3.533-5.197-9.447-4.429-17.382l0.358-5.095c1.203-17.843 3.021-44.826 20.864-55.936 0.922-0.589 2.023-1.127 3.251-1.664 3.379-10.317 8.345-21.171 10.675-25.753 0.025-0.051 0.077-0.128 0.128-0.205-10.957-13.414-29.133-29.875-31.821-31.693l-3.968-1.639c-20.787-8.448-44.365-18.022-63.872-29.824-0.793-0.461-1.51-1.152-2.304-1.664-36.455 40.653-56.448 92.185-56.448 147.047-0.051 122.445 100.224 222.003 223.488 222.003zM225.69 160.64c-5.145 10.24-9.677 23.014-10.087 26.24-0.743 7.629-5.939 14.055-13.235 16.486-1.305 0.409-2.637 0.691-3.942 0.845-0.358 1.050-0.64 2.509-0.947 3.865-0.691 7.271 1.126 16.947 0.87 21.069l6.451 3.097c0 0 0 0.025 0 0.051 0 4.352 0.154 12.441-2.329 24.064-3.865 18.227-6.042 33.050-4.813 44.826 3.021 13.543 10.189 22.502 22.554 26.496 8.166 3.328 23.245 9.472 36.864 10.266 15.693-0.819 30.797-6.938 40.295-10.726 21.453-6.912 28.058-30.541 19.661-70.17-2.457-11.366 1.229-19.84 4.224-25.523l-0.154-2.176c-0.358-5.376-1.459-21.223-2.637-25.293-1.562-0.103-3.098-0.409-4.634-0.87-7.245-2.279-12.544-8.781-13.466-16.281-0.409-3.277-4.941-16.051-10.087-26.291-0.333-0.691-0.666-1.382-0.998-2.125-0.154-0.307-0.307-0.615-0.461-0.947-0.077-0.205-10.649-20.019-31.002-20.711-19.968 0.563-32.025 23.577-32.128 23.808zM256 6.707c-49.178 0-96.205 16.128-134.707 45.849 15.104 7.936 32.691 15.079 48.563 21.529l1.741 0.87c11.417 3.098 34.099 26.649 44.544 38.195 10.675-8.294 24.806-15.027 42.445-15.027 17.101 0 31.079 6.144 41.856 14.285 10.649-11.725 32.256-34.227 41.651-36.685l3.84-1.562c15.104-6.144 31.795-12.928 46.438-20.429-38.733-30.49-86.349-47.027-136.371-47.027z" />
<glyph unicode="&#xe67f;" d="M445.221 129.317c-22.163 13.641-49.152 24.813-72.942 34.688l-4.151 1.719c-5.815 3.95-27.026 23.936-39.187 39.168-1.317 1.646-1.5 3.932-0.476 5.998 3.803 7.735 9.38 20.846 12.764 32.109 2.012 0.695 3.84 1.5 5.084 2.304 18.359 11.703 20.37 41.764 21.668 61.659l0.439 5.98c0.713 7.789-2.396 13.587-4.444 17.427-0.585 1.060-1.426 2.651-1.463 3.529 19.072 91.794-22.546 120.119-47.891 128.42-11.593 4.755-33.134 13.641-59.52 14.958-24.595-1.317-46.135-10.204-56.576-14.537-26.514-8.722-68.115-37.065-48.969-129.207-0.091-0.494-0.933-2.103-1.518-3.163-2.048-3.84-5.175-9.655-4.444-17.335l0.439-6.071c1.298-19.895 3.273-49.957 21.668-61.659 1.262-0.804 3.072-1.591 5.083-2.286 3.364-11.282 8.96-24.393 12.763-32.128 1.024-2.067 0.823-4.389-0.494-6.016-12.142-15.214-33.335-35.219-39.186-39.168l-4.279-1.81c-23.735-9.856-50.669-21.101-72.796-34.724-31.031-19.108-47.379-62.080-48.512-127.415-0.146-8.759 3.127-17.28 9.161-23.515 6.053-6.272 14.19-10.24 22.857-10.24h411.428c8.685 0 16.823 3.986 22.857 10.276 6.034 6.236 9.289 15.031 9.125 23.772-1.134 65.335-17.445 108.16-48.493 127.269zM177.645 313.363c0.091 0.165 0.183 0.329 0.274 0.493 2.651 4.937 7.571 14.099 4.864 27.118-10.387 49.865-1.536 79.799 27.411 89.38 9.728 4.023 27.849 11.465 44.928 12.489 17.426-0.933 33.262-6.93 47.872-12.909 27.813-9.143 36.663-39.077 26.295-88.96-2.707-13.019 2.231-22.181 4.864-27.118 0.091-0.146 0.183-0.311 0.274-0.476l-0.311-4.132c-0.493-7.187-1.884-28.508-5.467-34.195-0.512-0.164-0.933-0.311-1.115-0.402-8.942 0.768-16.439-6.528-17.28-15.579-0.457-4.499-6.144-20.553-12.16-32.804-0.348-0.695-0.402-1.463-0.713-2.195-0.256-0.439-0.659-0.713-0.877-1.17-0.531-1.115-13.239-27.721-39.772-27.721-26.807 0-42.404 30.373-42.752 31.049 0 0.018-0.018 0.018-0.018 0.036-6.035 12.251-11.721 28.233-12.124 32.732-0.823 8.851-8.119 15.506-16.695 15.616-0.476 0.11-1.006 0.238-1.518 0.384-3.821 6.436-5.212 27.136-5.668 34.212l-0.311 4.151zM52.297 4.572c1.188 54.857 13.971 83.731 33.554 95.762 19.803 12.215 47.762 22.308 70.363 31.689l8.357 1.901v0.036c0 5.541 32.439 32.531 45.075 45.349 11.794-10.021 27.264-18.56 47.561-18.56 21.358 0 42.551 8.868 53.925 18.962 10.788-12.69 36.297-40.064 54.583-45.641v0.036l-0.877-1.737c22.637-9.399 45.587-19.767 65.463-32 19.748-12.178 28.452-40.942 30.043-95.799h-408.046z" />
<glyph unicode="&#xe680;" d="M409.618 289.518c-1.372-29.934-22.291-70.949-62.72-122.99-41.82-54.363-77.184-81.536-106.13-81.536-17.92 0-33.097 16.531-45.476 49.646-8.284 30.355-16.548 60.709-24.814 91.063-9.197 33.097-19.072 49.645-29.623 49.645-2.304 0-10.35-4.845-24.137-14.482l-14.483 18.633c15.195 13.348 30.153 26.697 44.891 40.045 20.224 17.5 35.438 26.716 45.568 27.648 23.936 2.286 38.674-14.080 44.197-49.097 5.98-37.797 10.112-61.312 12.435-70.51 6.894-31.379 14.483-47.013 22.784-47.013 6.437 0 16.11 10.167 29.001 30.5 12.873 20.334 19.785 35.822 20.7 46.464 1.847 17.555-5.065 26.349-20.7 26.349-7.369 0-14.957-1.7-22.765-5.047 15.123 49.517 43.995 73.564 86.601 72.192 31.579-0.933 46.483-21.431 44.672-61.513z" />
<glyph unicode="&#xe681;" d="M256.224 384c-99.392 0-184.8-65.632-223.776-160 38.976-94.368 124.416-160 223.776-160s184.8 65.632 223.776 160c-38.976 94.368-124.416 160-223.776 160zM256.224 96c-77.056 0-154.912 51.712-191.776 128 36.864 76.288 114.72 128 191.776 128s155.36-51.712 192.224-128c-36.864-76.288-115.168-128-192.224-128zM256.416 345.6c-56 0-101.568-45.568-101.568-101.568 0-56.032 45.568-101.6 101.568-101.6s101.6 45.568 101.6 101.6c0 56-45.6 101.568-101.6 101.568zM256.416 177.632c-36.608 0-66.4 29.792-66.4 66.4s29.792 66.368 66.4 66.368 66.4-29.792 66.4-66.368c0-36.64-29.792-66.4-66.4-66.4z" />
<glyph unicode="&#xe682;" d="M255.776 416c-113.6 0-211.232-78.784-255.776-192 44.544-113.216 142.176-192 255.776-192s211.232 78.784 255.776 192c-44.544 113.216-142.176 192-255.776 192zM255.776 64c-92.576 0-178.208 62.4-221.12 160 42.912 97.632 128.544 160 221.12 160s178.208-62.4 221.12-160c-42.912-97.6-128.544-160-221.12-160zM256 368c-61.76 0-112-50.24-112-112s50.24-112 112-112 112 50.24 112 112-50.24 112-112 112zM256 176c-44.096 0-80 35.872-80 80s35.904 80 80 80 80-35.872 80-80-35.904-80-80-80z" />
<glyph unicode="&#xe683;" d="M256.224 416c-113.6 0-211.232-78.784-255.776-192 44.544-113.216 142.176-192 255.776-192s211.232 78.784 255.776 192c-44.544 113.216-142.176 192-255.776 192zM256.448 329.6c40.576 0 73.6-32.992 73.6-73.6s-33.024-73.6-73.6-73.6-73.6 32.992-73.6 73.6 33.024 73.6 73.6 73.6zM256.224 75.456c-86.56 0-166.848 57.76-208.576 148.544 36.864 80.288 103.968 134.56 178.816 146.080-50.72-13.376-88.448-59.232-88.448-114.080 0-65.28 53.12-118.4 118.4-118.4s118.4 53.12 118.4 118.4c0 54.816-37.632 100.608-88.288 114.048 74.624-11.744 141.44-65.984 178.24-146.048-41.696-90.784-121.984-148.544-208.544-148.544z" />
<glyph unicode="&#xe684;" d="M143.287 77.714l1.353 50.487-1.353 45.587c-0.732 22.949-1.463 39.827-2.195 49.298-1.28 19.31-3.383 37.577-6.291 54.144-3.273 19.493-20.041 31.397-24.137 35.401s-37.541 6.18-37.541 6.18v14.756l31.104 2.743c17.481 2.724 39.918 5.559 54.199 8.466 14.299 2.907 23.534 4.188 21.156 3.821l4.644 0.548c4.188-10.569 8.685-26.862 11.886-48.896 3.181-22.034 5.357-38.51 5.724-49.445l2.56-54.125 43.538 77.202c6.93 12.233 14.391 17.646 22.308 31.141 7.918 13.513 15.031 28.69 21.229 28.69h15.616l17.536-177.774c19.493 22.949 33.883 44.507 43.154 57.271 15.652 21.851 23.497 39.296 23.497 48.567 0 5.65-3.822 15.086-11.465 26.477-7.644 11.374-11.483 21.267-11.483 28.745 0 8.558 3.182 16.128 9.563 22.217s13.659 9.271 21.851 9.271c8.74 0 16.659-3.091 23.772-9.363 7.113-6.291 10.661-15.141 10.661-26.606 0-27.685-20.132-70.967-60.38-124.507-22.4-29.696-53.101-76.269-92.068-110.299h-15.579c-0.548 0-1.28 22.528-2.176 38.199-0.548 10.021-1.463 23.277-2.724 37.139-0.731 8.923-1.829 21.705-3.273 37.010l-4.644 50.596c-18.029-31.872-30.135-52.919-36.334-63.488-14.208-25.125-23.040-42.935-26.496-48.219l-31.689-51.219h-15.524z" />
<glyph unicode="&#xe685;" d="M420.572 370.286h-94.757l-60.672-91.429-64 91.429h-94.757l111.379-146.286-108.050-146.286h201.143l-73.143 73.143 22.254 24.284 84.132-97.427h94.757l-130.103 150.637 111.817 141.934zM362.916 116.077l-10.167-9.709-172.471 228.005 10.167 9.709 172.471-228.005z" />
<glyph unicode="&#xe686;" d="M153.107 388.188c7.571-21.98 12.269-38.528 14.428-49.828v-63.799h23.571v2.56h0.073v61.513l28.306 93.421h-0.732l0.786 2.578h-23.845l-16.073-61.86-16.75 61.861h-24.814c0.292-0.86 0.585-1.719 0.896-2.579h-0.969c4.956-14.592 10.149-29.239 15.123-43.868zM251.081 272.951c10.643 0 18.925 4.041 24.814 12.013 4.462 5.888 6.601 15.123 6.601 27.612v1.353c0 0.421 0.055 0.768 0.055 1.189v41.125c0 12.525-2.139 21.705-6.601 27.648-5.888 8.009-14.153 12.014-24.796 12.014-10.624 0-18.907-4.005-24.759-12.014-4.535-5.943-6.656-15.122-6.656-27.648v-0.805c-0.018-0.621-0.073-1.133-0.073-1.774v-41.088c0-12.489 2.139-21.741 6.656-27.611 5.888-7.973 14.135-12.014 24.759-12.014zM251.081 374.217c6.839 0 10.131-5.412 10.131-16.274v-47.762c-0.201-10.149-3.42-15.341-10.039-15.341-6.893 0-10.185 5.412-10.185 16.274v47.452c0.147 10.404 3.401 15.652 10.094 15.652zM315.593 272.951c7.735 0 15.799 4.699 24.284 14.428v-12.8h21.267v2.56h0.073v117.357h-21.267v-2.56h-0.073v-87.241c-4.7-6.583-9.125-9.856-13.367-9.856-2.853 0-4.517 1.664-4.974 4.974-0.274 0.695-0.274 3.292-0.274 8.265v86.4h-21.212v-2.56h-0.055v-92.819c0-8.284 0.731-13.897 1.901-17.445 2.121-5.906 6.839-8.704 13.696-8.704zM372.608 157.988c-7.003 0-10.533-5.394-10.533-16.128v-10.733h21.047v10.733c0 10.752-3.529 16.128-10.514 16.128zM294.528 157.988c-3.474 0-6.985-1.664-10.478-5.12v-70.803c3.511-3.511 7.003-5.193 10.478-5.193 6.053 0 9.143 5.193 9.143 15.671v49.572c0.019 10.496-3.072 15.872-9.143 15.872zM424.082 217.015c-4.26 18.524-19.419 32.183-37.632 34.213-43.173 4.845-86.875 4.864-130.413 4.845-43.501 0.019-87.204 0-130.377-4.845-18.231-2.030-33.371-15.689-37.614-34.213-6.089-26.387-6.144-55.149-6.144-82.322 0-27.136 0-55.936 6.052-82.286 4.243-18.541 19.383-32.201 37.614-34.231 43.172-4.827 86.876-4.846 130.413-4.827 43.502-0.036 87.204 0 130.377 4.827 18.231 2.029 33.408 15.689 37.651 34.231 6.053 26.349 6.108 55.149 6.108 82.286-0.019 27.173 0.019 55.936-6.034 82.322zM181.212 193.28h-25.234v-133.924h-23.405v133.924h-24.74v21.961h73.38v-21.961zM244.791 59.356h-21.047v12.69c-8.357-9.618-16.329-14.281-24.064-14.281-6.784 0-11.465 2.743-13.549 8.631-1.171 3.529-1.847 9.051-1.847 17.28v91.813h21.029v-85.504c0-4.901 0-7.515 0.22-8.173 0.494-3.255 2.084-4.937 4.919-4.937 4.206 0 8.631 3.255 13.312 9.856v88.759h21.047v-116.132zM324.736 94.208c0-10.733-0.731-18.487-2.121-23.387-2.816-8.649-8.448-13.056-16.841-13.056-7.461 0-14.72 4.151-21.724 12.855v-11.264h-21.047v155.886h21.047v-50.925c6.784 8.356 13.988 12.599 21.724 12.599 8.393 0 14.007-4.407 16.841-13.111 1.389-4.663 2.121-12.361 2.121-23.332v-46.263zM404.151 113.591h-42.075v-20.589c0-10.733 3.529-16.11 10.733-16.11 5.193 0 8.211 2.816 9.417 8.448 0.183 1.134 0.439 5.815 0.439 14.263h21.486v-3.091c0-6.765-0.238-11.428-0.439-13.55-0.713-4.663-2.359-8.851-4.919-12.617-5.833-8.411-14.483-12.581-25.454-12.581-11.026 0-19.383 3.986-25.472 11.885-4.48 5.796-6.765 14.995-6.765 27.319v40.685c0 12.416 2.029 21.486 6.528 27.356 6.053 7.954 14.445 11.904 25.18 11.904 10.569 0 18.962-3.95 24.851-11.904 4.407-5.888 6.491-14.957 6.491-27.356v-24.064z" />
</font>
</defs>
</svg>
