<?xml version="1.0" standalone="no"?>
<!DOCTYPE svg PUBLIC "-//W3C//DTD SVG 1.1//EN" "http://www.w3.org/Graphics/SVG/1.1/DTD/svg11.dtd" >
<svg xmlns="http://www.w3.org/2000/svg">
<metadata>
<json>
{
	"fontFamily": "rz-icons",
	"majorVersion": 1,
	"minorVersion": 0,
	"version": "Version 1.0",
	"fontId": "rz-icons",
	"psName": "rz-icons",
	"subFamily": "Regular",
	"fullName": "rz-icons",
	"description": "Font generated by IcoMoon."
}
</json>
</metadata>
<defs>
<font id="rz-icons" horiz-adv-x="512">
<font-face units-per-em="512" ascent="480" descent="-32" />
<missing-glyph horiz-adv-x="512" />
<glyph unicode="&#x20;" d="" horiz-adv-x="256" />
<glyph unicode="&#xe600;" d="M477.444 165.26c-15.538 13.788-30.853 27.826-46.373 41.635-2.514 2.238-3.067 4.408-2.954 7.724 0.363 10.612 0.341 21.25-0.034 31.862-0.111 3.18 0.542 5.17 2.885 7.261 15.504 13.825 30.81 27.874 46.365 41.643 2.717 2.405 3.187 4.534 1.868 7.644-4.858 11.452-9.69 22.918-14.399 34.434-1.208 2.956 7.346 3.756 4.202 3.521-10.433-0.783-21.006-1.23-21.006-1.805 0 0.022 0 0.065 0 0.065 0-0.526-31.24-1.206-41.7-1.454-2.099-0.052-9.916 1.001-11.44 2.457-8.156 7.788-18.71 15.783-26.522 23.92-1.376 1.433-3.77 3.912-3.683 5.849 0.942 21.242 1.569 42.469 2.5 63.713 0.072 1.64-1.666 4.279-3.075 4.905-11.825 5.248-23.983 10.109-35.901 15.144-2.846 1.201-4.758 0.469-6.853-1.889-13.795-15.535-27.868-30.856-41.7-46.359-2.184-2.448-4.284-3.237-7.678-3.088-10.276 0.448-20.611 0.583-30.879 0.086-4.131-0.2-6.597 0.774-9.29 3.822-13.538 15.315-27.419 30.333-40.989 45.622-2.147 2.42-4.040 2.933-6.805 1.77-11.775-4.949-23.621-9.739-35.285-14.94-1.542-0.688-3.16-3.447-3.087-5.177 0.915-21.408 2.19-42.803 3.174-64.21 0.077-1.657-0.927-3.781-2.121-5.016-8.073-8.34-16.274-16.563-24.6-24.651-1.233-1.197-3.374-2.17-5.042-2.095-21.241 0.969-42.477 2.078-63.703 3.347-3.181 0.191-4.88-0.716-6.071-3.636-4.763-11.671-9.652-23.29-14.566-34.899-1.2-2.837-0.593-4.686 1.797-6.807 15.657-13.908 31.094-28.063 46.74-41.982 2.397-2.131 2.873-4.163 2.774-7.275-0.335-10.613-0.388-21.253 0.004-31.864 0.125-3.349-0.53-5.471-3.008-7.68-15.638-13.927-31.114-28.035-46.719-42-1.929-1.728-2.938-3.2-1.792-5.889 5.134-12.053 10.008-24.221 15.294-36.208 0.629-1.427 3.237-2.899 4.861-2.83 21.243 0.927 42.471 2.197 63.715 3.144 1.955 0.087 4.471-0.927 5.896-2.296 8.253-7.925 16.314-16.055 24.283-24.265 1.215-1.25 2.358-3.32 2.285-4.955-0.953-21.241-2.070-42.478-3.329-63.704-0.183-3.077 0.393-4.952 3.42-6.185 11.674-4.76 23.298-9.644 34.889-14.596 3.094-1.323 5.002-0.483 7.195 1.985 13.585 15.276 27.43 30.322 40.991 45.617 2.561 2.889 4.93 3.817 8.893 3.613 10.101-0.526 20.261-0.463 30.371-0.022 3.664 0.16 6.057-0.371 8.573-3.215 13.771-15.555 27.818-30.865 41.652-46.366 1.929-2.162 3.625-2.914 6.375-1.743 11.906 5.063 23.914 9.896 35.746 15.125 1.449 0.639 2.999 3.201 2.929 4.803-0.916 21.243-2.198 42.469-3.115 63.713-0.089 2.065 1.127 4.688 2.596 6.231 7.779 8.167 15.764 16.144 23.863 23.996 1.34 1.301 3.63 2.415 5.423 2.333 21.24-0.963 42.473-2.116 63.699-3.369 2.933-0.174 4.616 0.628 5.746 3.383 4.783 11.664 9.646 23.296 14.612 34.883 1.322 3.081 0.62 4.988-1.895 7.221zM255.999 90.393c-73.45 0.673-139.88 67.061-140.003 140.003-0.123 73.053 66.862 139.923 140.003 140.003 59.761 0.066 119.903-44.701 137.349-100.029 1.56-4.949-2.486-7.97-7.675-7.97h-97.674v51.998l-84.002-84.002 84.002-84.002v52.006h97.545c5.195 0 9.238-3.036 7.673-7.988-17.64-55.796-77.683-100.567-137.219-100.019z" />
<glyph unicode="&#xe601;" d="M509.086 155.96c-17.758 15.758-35.26 31.801-52.996 47.582-2.873 2.557-3.504 5.037-3.375 8.828 0.414 12.127 0.389 24.285-0.039 36.412-0.127 3.635 0.619 5.908 3.297 8.297 17.719 15.801 35.211 31.856 52.988 47.592 3.105 2.748 3.642 5.182 2.135 8.737-5.553 13.088-11.074 26.191-16.455 39.352-1.381 3.379-5.322 4.293-8.916 4.024-11.924-0.894-37.724-1.405-37.724-2.063 0 0.025 0 0.074 0 0.074 0-0.601-21.985-1.379-33.938-1.662-2.399-0.059-4.473 1.144-6.215 2.809-9.322 8.9-17.954 18.037-26.882 27.336-1.572 1.638-2.594 4.471-2.494 6.685 1.076 24.276 2.651 48.535 3.715 72.813 0.082 1.875-1.474 4.891-3.086 5.606-13.514 5.998-27.194 11.553-40.815 17.307-3.252 1.373-5.33 0.537-7.724-2.158-15.765-17.754-31.795-35.264-47.603-52.981-2.496-2.797-4.869-3.699-8.748-3.529-11.744 0.512-23.541 0.666-35.275 0.097-4.72-0.228-7.533 0.885-10.609 4.367-15.472 17.504-31.332 34.666-46.84 52.139-2.453 2.765-4.615 3.351-7.775 2.023-13.457-5.656-26.994-11.131-40.324-17.074-1.762-0.787-3.612-3.94-3.528-5.916 1.045-24.467 2.502-48.916 3.627-73.381 0.088-1.894-1.059-4.321-2.424-5.733-9.227-9.531-18.597-18.927-28.114-28.172-1.408-1.367-3.856-2.481-5.761-2.394-24.275 1.107-48.545 2.375-72.802 3.826-3.635 0.217-5.576-0.819-6.938-4.156-5.444-13.338-11.031-26.617-16.646-39.883-1.371-3.242-0.677-5.356 2.053-7.779 17.895-15.894 35.535-32.071 53.416-47.978 2.739-2.435 3.283-4.758 3.17-8.315-0.383-12.129-0.444-24.289 0.004-36.414 0.142-3.828-0.605-6.254-3.438-8.777-17.871-15.916-35.559-32.039-53.392-47.998-2.205-1.974-3.357-3.658-2.049-6.731 5.867-13.776 11.438-27.68 17.479-41.379 0.718-1.631 3.699-3.315 5.555-3.235 24.277 1.058 48.537 2.51 72.815 3.592 2.234 0.099 5.109-1.058 6.739-2.623 9.431-9.057 18.645-18.348 27.752-27.733 1.388-1.428 2.696-3.793 2.612-5.662-1.090-24.276-2.365-48.545-3.804-72.803-0.209-3.517 0.449-5.66 3.908-7.068 13.342-5.44 26.625-11.022 39.873-16.682 3.535-1.511 5.717-0.551 8.222 2.267 15.525 17.457 31.347 34.652 46.845 52.133 2.928 3.303 5.635 4.363 10.164 4.129 11.543-0.601 23.154-0.529 34.709-0.026 4.188 0.183 6.922-0.424 9.797-3.674 15.738-17.777 31.791-35.274 47.601-52.988 2.205-2.471 4.142-3.33 7.285-1.992 13.608 5.785 27.33 11.308 40.851 17.285 1.656 0.731 3.428 3.658 3.348 5.49-1.047 24.277-2.512 48.535-3.56 72.813-0.101 2.36 1.287 5.358 2.967 7.121 8.89 9.334 18.015 18.451 27.272 27.424 1.531 1.486 4.149 2.76 6.197 2.666 24.274-1.099 48.539-2.418 72.797-3.849 3.351-0.199 5.276 0.717 6.567 3.865 5.467 13.33 11.024 26.623 16.699 39.865 1.51 3.522 0.709 5.701-2.166 8.252zM256.012 70.4c-83.942 0.769-159.859 76.64-160 160-0.141 83.489 76.412 159.908 160 160 68.297 0.075 137.029-53.374 156.967-116.604 1.783-5.656-2.841-11.396-8.771-11.396h-116.208v64l-96-96 96-96v64h116.061c5.937 0 10.558-5.752 8.768-11.413-20.16-63.764-88.779-117.212-156.817-116.587z" />
<glyph unicode="&#xe602;" d="M329.675 399.325c-27.583 0-53.577-6.542-76.798-17.885-23.222 11.342-49.217 17.885-76.802 17.885-96.9 0-175.453-78.555-175.453-175.454s78.553-175.453 175.453-175.453c27.584 0 53.579 6.542 76.802 17.885 23.222-11.342 49.216-17.885 76.798-17.885 96.901 0 175.454 78.553 175.454 175.453s-78.553 175.455-175.454 175.455zM176.075 86.817c-75.572 0-137.053 61.481-137.053 137.053s61.481 137.055 137.053 137.055c13.052 0 25.433-2.418 37.4-5.842-36.267-32.144-59.253-78.941-59.253-131.213s22.986-99.068 59.253-131.211c-11.967-3.423-24.349-5.842-37.4-5.842zM313.13 223.87c0-47.127-23.926-88.753-60.253-113.428-36.327 24.675-60.255 66.302-60.255 113.428s23.928 88.755 60.255 113.43c36.327-24.675 60.253-66.303 60.253-113.43zM329.675 86.817c-13.051 0-25.431 2.418-37.399 5.842 36.267 32.142 59.253 78.939 59.253 131.211s-22.986 99.069-59.253 131.213c11.967 3.423 24.347 5.842 37.399 5.842 75.572 0 137.055-61.483 137.055-137.055s-61.483-137.053-137.054-137.053z" />
<glyph unicode="&#xe603;" d="M480 38.4c-160 0-320 0-448 0 0 0 0 2.065 0 0.32 0-0.276 0 153.18 0 156.428 0 2.82 0.618 5.901 1.886 8.417 35.951 71.29 72.003 142.512 107.968 213.794 1.678 3.324 3.472 4.731 7.484 4.721 71.603-0.149 143.199-0.149 214.803 0.001 3.992 0.008 5.793-1.346 7.478-4.685 35.838-71.019 71.808-141.973 107.626-213.001 1.412-2.8 0.534-5.333 0.543-8.464 0 4.868 0.211-104.839 0.211-156.816 0-1.782 0-0.715 0-0.715zM63.537 198.4c2.393 0 4.163 0 5.932 0 23.317 0 74.298 0 74.298 0 3.594 0 36.886-50.036 53.564-75.014 2.145-3.213 4.336-5.745 8.367-5.726 33.978 0.17 67.958-0.394 101.935-0.563 4.032-0.021 6.223 4.356 8.366 7.567 16.764 25.119 48.522 73.736 51.749 73.736 0 0 74.66 0 76.113 0 1.769 0 3.539 0 5.932 0-1.024 0-1.688 4.625-2.481 6.195-31.094 61.434-62.231 123.211-93.222 184.694-1.712 3.397-3.508 4.903-7.486 4.892-59.959-0.147-119.919-0.056-179.879 0.092-3.98 0.010-5.774-1.273-7.484-4.667-30.993-61.482-62.129-123.601-93.222-185.035-0.794-1.568-1.458-6.17-2.48-6.17zM160 230.4v32c96 0 128 0 192 0v-32c-64 0-96 0-192 0zM192 294.4v32c32 0 96 0 128 0v-32c-32 0-96 0-128 0z" />
<glyph unicode="&#xe604;" d="M36.255 166.4c2.736 0 4.757 0 6.779 0 26.648 0 53.295-0.639 79.94-0.445 4.106 0.029 6.457-1.517 8.718-4.945 19.064-28.895 38.4-57.746 57.459-86.644 2.451-3.717 4.955-5.41 9.563-5.387 38.829 0.197 77.66 0.162 116.49-0.034 4.608-0.024 7.111 1.587 9.56 5.303 19.158 29.060 38.576 57.942 57.772 86.978 2.017 3.051 4.149 4.747 7.836 4.724 26.836-0.167 53.674 0.451 80.51 0.451 2.022 0 4.044 0 6.779 0-1.169 0-1.928 3.963-2.836 5.779-35.533 71.073-71.115 141.848-106.532 212.978-1.956 3.928-4.009 5.324-8.555 5.313-39.779 0-199.779-0.068-205.561-0.068-4.549 0-6.599-1.558-8.554-5.485-35.418-71.13-70.999-141.65-106.532-212.722-0.908-1.815-1.667-5.794-2.835-5.794zM512-25.6c-160 0-352 0-512 0 0 0 0 2.469 0 4.49 0 60.323 0.077 155.51 0.077 180.971 0 3.262 0.775 6.827 2.225 9.738 41.083 82.475 82.317 164.872 123.417 247.339 1.917 3.846 3.985 5.471 8.57 5.462 81.827-0.172 163.653-0.172 245.48 0.001 4.563 0.010 6.624-1.558 8.55-5.42 40.955-82.162 82.063-164.248 122.995-246.421 1.613-3.238 0.531-9.792 0.531-9.792 0 5.633 0.154-179.867 0.154-181.421 0-2.062 0-4.946 0-4.946zM128 198.4v32c64 0 192 0 256 0v-32c-64 0-192 0-256 0zM160 262.4v32c64 0 128 0 192 0v-32c-64 0-128 0-192 0z" />
<glyph unicode="&#xe605;" d="M485.044 196.709c0 0-0.25 5.865-1.695 8.765-36.644 73.564-73.445 147.052-110.109 220.606-1.724 3.457-3.57 4.86-7.654 4.852-73.255-0.155-146.508-0.155-219.762-0.002-4.105 0.010-5.956-1.447-7.673-4.889-36.794-73.828-73.708-147.594-110.487-221.428-1.297-2.604-1.992-5.797-1.992-8.717l-0.069-170.297c143.238 0 307.2 0 460.8 0 0 0 0 6.85 0 8.695 0 1.39-1.356 167.457-1.356 162.414zM447.151 204.8c-24.025 0-48.051-2.048-72.077-1.9-3.301 0.022-5.209-4.060-7.014-6.791-17.186-25.992-34.569-51.258-51.721-77.274-2.194-3.328-4.435-4.387-8.56-4.367-34.761 0.176-69.524 0.567-104.286 0.392-4.124-0.021-6.365 2.021-8.56 5.347-17.063 25.87-34.374 52.646-51.44 78.514-2.024 3.067-4.126 4.166-7.803 4.139-23.855-0.173-47.711 1.939-71.566 1.939-1.811 0-3.622 0-6.071 0 1.047 0 1.725 2.151 2.538 3.776 31.811 63.627 63.666 124.285 95.372 187.963 1.751 3.515 3.586 5.672 7.658 5.672 5.178 0 148.416 0.784 184.027 0.784 4.070 0.011 5.908-0.192 7.659-3.71 31.707-63.678 63.561-127.276 95.372-190.903 0.813-1.625 1.492-3.583 2.539-3.583-2.449 0-4.26 0-6.069 0zM256 352c-53.838 0-96-30.925-96-70.4s42.162-70.4 96-70.4c53.825 0 96 30.925 96 70.4s-42.175 70.4-96 70.4zM256 249.6c-33.95 0-57.6 16.862-57.6 32s23.65 32 57.6 32 57.6-16.863 57.6-32-23.65-32-57.6-32z" />
<glyph unicode="&#xe606;" d="M352 358.4v-128h-160v64l-96-96 96-96v64h224v192z" />
<glyph unicode="&#xe607;" d="M96 166.4h80l80 96 80-96h80l-160 192z" />
<glyph unicode="&#xe608;" d="M250.594 390.4c36.846 0 52.46-2.221 67.718-8.49 9.212-4.007 17.606-10.711 25.217-20.114 12.022-14.321 18.423-32.611 18.423-51.852 0-30.389-15.613-57.208-40.047-69.268 34.036-11.188 54.096-39.316 54.096-75.974 0-29.040-11.24-57.208-29.662-73.276-17.64-15.671-34.464-21.026-75.329-21.026h-135.009v320h114.594zM193.689 263.050h62.489c34.072 0 49.685 11.585 49.685 37.531 0 16.981-8.82 30.389-21.624 33.96-8.82 2.221-15.221 2.698-57.297 2.698h-33.254v-74.189zM193.689 124.474h69.709c38.055 0.437 52.887 12.099 52.887 41.577 0 15.195-5.619 27.731-15.613 34.396-10.812 7.617-21.659 9.402-60.106 9.402h-46.876v-85.375z" />
<glyph unicode="&#xe609;" d="M416.813 435.2h-321.625c-52.487 0-95.188-42.7-95.188-95.175v-168.050c0-52.475 42.7-95.175 95.188-95.175h32.813v-91.275c0-10.863 9.565-15.919 16.717-7.743l129.105 99.019h142.99c52.488 0 95.188 42.7 95.188 95.175v168.050c0 52.475-42.7 95.175-95.188 95.175zM460.8 157.84c0-16.481-13.36-29.841-29.841-29.841h-189.686l-87.674-102.4v102.4h-72.547c-16.487 0-29.853 13.365-29.853 29.853v196.307c0 16.481 13.36 29.84 29.84 29.84h349.906c16.488 0 29.853-13.365 29.853-29.853v-196.307zM230.4 281.6h51.2v-51.2h-51.2v51.2zM128 281.6h51.2v-51.2h-51.2v51.2zM332.8 281.6h51.2v-51.2h-51.2v51.2z" />
<glyph unicode="&#xe60a;" d="M463.093 468.115h-139.411c-6.949 0-12.826-5.87-12.826-13.111v-430.94c0-7.223 5.877-13.092 12.826-13.092h139.411c6.949 0 12.336 5.87 12.336 13.111v430.921c0 7.241-5.387 13.111-12.336 13.111zM438.857 47.543h-91.428v384h91.428v-384zM163.591 455.442c-3.529 5.632-12.325 5.632-15.853 0l-109.933-175.799c-3.511-5.632 0.896-12.672 7.936-12.672h219.849c7.040 0 11.447 7.040 7.918 12.672l-109.916 175.799zM98.495 303.543l57.18 109.714 57.179-109.714h-114.359zM155.674 230.4c-60.507 0-109.715-49.207-109.715-109.715s49.207-109.714 109.715-109.714 109.715 49.207 109.715 109.714-49.207 109.715-109.714 109.715zM155.674 47.543c-40.339 0-73.143 32.805-73.143 73.143s32.804 73.143 73.143 73.143 73.143-32.805 73.143-73.143-32.804-73.143-73.143-73.143z" />
<glyph unicode="&#xe60b;" d="M448 38.4h32v-32h-32v32zM448 102.4h32v-32h-32v32zM448 166.4h32v-32h-32v32zM448 230.4h32v-32h-32v32zM448 294.4h32v-32h-32v32zM384 38.4h32v-32h-32v32zM320 38.4h32v-32h-32v32zM448 358.4h32v-32h-32v32zM256 38.4h32v-32h-32v32zM192 38.4h32v-32h-32v32zM256 294.4h32v-32h-32v32zM320 358.4v-32h-32v-32h32v-64h-64v32h-32v-32h-32v-96h-128v160h104c13.25 0 24 10.75 24 24v104h96v-64h32v72c0 13.25-10.75 24-24 24h-104c-13.25 0-31.75-7.75-41-17l-102-102c-9.25-9.25-17-27.75-17-41v-168c0-13.25 10.75-24 24-24h136v-32h32v128h128v128h64v32h-96zM160 401.15v-74.75h-74.75l74.75 74.75z" />
<glyph unicode="&#xe60c;" d="M300.75 38.579l-1.139 17.178 0.084 0.005 1.139-17.178-0.084-0.005zM203.589 39.016l1.148 0.257-0.001 0.084zM250.037 329.263l-0.055 0.3-2.256 15.386 0.641-0.339 1.98-14.889zM367.902 54.375l19.573 4.139-30.185 132.765-11.547 3.832-10.813-16.595-5.537 32.037-23.694 8.404-9.125 76.218 11.615 12.383-40.382 24.073-7.749 68.245-7.161-0.14-2.535-56.441-2.638 1.653-37.219-50.442 9.233-6.698-7.503-72.202-0.531-0.21-0.202 33.343-3.57 0.649-5.209-8.585-5.781-39.005-20.533 3.923-13.833-56.762 5.381 55.159-6.336-6.418-3.914-19.298-5.057-4.322-27.75-108.451-0.377-1.175 15.99-15.034 0.002-0.116 0.133 0.003 0.035-0.017-0 0.017 44.063 7.909-5.188-11.373 19.846-8.095 10.739 5.003-5.728-6.825 32.072-12.481 62.247 11.423 0.875 20.89h0.051l3.541-17.13 6.416-1.027-0.008 0.418 34.603 6.623-1.171 6.991 0.639-0.255 10.435-2.515 14.236 2.999-0.595 3.062 0.144-0.548zM263.579 284.042l-0.741 31.028 22.873-11.759 2.488-31.495-24.62 12.226zM263.733 278.852l25.176-11.664 3.328-35.203-27.671 11.148-0.833 35.72zM265.195 219.517l-0.332 17.761 27.285-11.073 1.312-16.588-28.264 9.899zM283.267 364.231c-1.35 0.741-2.264 0.524-2.678 1.985-0.7 2.508 0.536 4.152 0.796 4.591 1.409 2.165 2.495 3.923 3.387 6.010 1.967 4.498 2.911 9.125 2.83 14.15-0.406 18.944-16.163 34.014-35.125 33.693-19.113-0.424-34.266-16.217-33.928-35.179 0.115-5.008 1.245-9.812 3.368-14.194 0.994-2.103 2.202-4.148 3.56-6.111 0.362-0.56 1.675-2.873 1.074-5.405-0.354-1.476-1.266-2.679-2.619-3.491l-0.775-0.483-2.213-0.409c-3.104-0.061-5.371 2.281-5.798 2.757-1.868 2.37-3.418 4.827-4.704 7.457-2.96 6.203-4.525 12.77-4.659 19.579-0.51 26.042 20.256 47.654 46.297 48.164 26.19 0.513 47.803-20.27 48.313-46.31 0.134-6.827-0.498-13.803-3.889-19.713-6.539-11.401-13.236-7.089-13.236-7.089z" />
<glyph unicode="&#xe60d;" d="M457.764 350.025c0 75.813-62.382 137.509-138.213 137.509-45.294 0-86.117-22.108-111.186-55.991h-171.793v-457.143h402.286v304.037c18.286 20.882 18.907 45.348 18.907 71.588zM318.865 451.748c56.082 0 101.724-45.641 101.724-101.741 0-56.083-45.641-101.724-101.724-101.724-56.101 0-101.742 45.641-101.742 101.724 0 56.1 45.641 101.741 101.742 101.741zM73.143 10.971v384h115.912c-4.9-14.116-7.698-29.202-7.698-44.947 0-75.813 63.105-137.509 138.917-137.509 30.116 0 63.726 9.856 82.012 26.35v-227.895h-329.143zM313.745 320.293c2.761-2.743 6.546-4.462 10.752-4.462s8.009 1.701 10.752 4.462l0.512-0.512 45.623 45.641-22.51 22.51-34.359-34.377-34.377 34.377-22.51-22.51 45.641-45.641 0.476 0.512zM201.143 175.543h146.285v-36.572h-146.286v36.572zM201.143 102.4h146.285v-36.572h-146.286v36.572zM128 175.543h36.572v-36.572h-36.572v36.572zM128 248.686h36.572v-36.572h-36.572v36.572zM128 102.4h36.572v-36.572h-36.572v36.572z" />
<glyph unicode="&#xe60e;" d="M102.4 256v-185.658c0-38.849 31.494-70.342 70.342-70.342h194.863c23.194 0 41.995 18.803 41.995 41.997v214.003h-307.2zM179.2 76.8h-25.6v128h25.6v-128zM256 76.8h-25.6v128h25.6v-128zM332.8 76.8h-25.6v128h25.6v-128zM434.078 332.8c-2.317 32.609-19.456 76.8-60.106 76.8h-69.863c0 0 5.997 25.6-21.161 25.6h-60.337c-27.12 0-16.331-25.6-16.331-25.6h-50.778c-42.42 0-73.977-44.191-78.702-76.8h357.278zM153.6 256v4.913c0 53.75 43.737 97.487 97.5 97.487h9.8c53.75 0 97.5-43.737 97.5-97.487v-4.913h25.6v4.913c0 67.875-55.225 123.087-123.1 123.087h-9.8c-67.875 0-123.1-55.212-123.1-123.087v-4.913h25.6zM257.091 281.6h-2.181c-13.536 0-24.51-10.974-24.51-24.51v-1.091h51.2v1.091c0 13.536-10.974 24.51-24.51 24.51z" />
<glyph unicode="&#xe60f;" d="M270.964 297.749c7.162 0.394 14.33 0.701 21.482 1.237 2.154 0.162 3.377-0.386 4.204-2.412 3.227-7.893 6.538-15.752 9.868-23.602 0.904-2.131 0.582-3.591-1.28-5.239-10.661-9.437-21.152-19.066-31.779-28.543-1.606-1.432-2.054-2.795-1.977-4.976 0.257-7.273 0.272-14.566 0.023-21.838-0.077-2.274 0.301-3.762 2.024-5.294 10.637-9.465 21.135-19.087 31.785-28.538 1.724-1.531 2.204-2.837 1.299-4.949-3.404-7.942-6.737-15.916-10.015-23.91-0.774-1.888-1.928-2.437-3.938-2.318-14.548 0.858-29.101 1.65-43.66 2.31-1.229 0.055-2.798-0.709-3.717-1.599-5.551-5.382-11.024-10.849-16.356-16.447-1.007-1.058-1.839-2.856-1.779-4.271 0.629-14.56 1.506-29.109 2.135-43.669 0.048-1.099-1.014-2.854-2.007-3.293-8.11-3.584-16.339-6.897-24.501-10.367-1.885-0.801-3.047-0.286-4.369 1.195-9.482 10.624-19.111 21.117-28.548 31.779-1.725 1.949-3.365 2.313-5.876 2.203-6.929-0.302-13.893-0.346-20.816 0.015-2.716 0.142-4.339-0.495-6.095-2.476-9.295-10.484-18.784-20.796-28.095-31.267-1.503-1.69-2.811-2.267-4.931-1.361-7.945 3.396-15.913 6.743-23.915 10.005-2.074 0.846-2.469 2.13-2.344 4.24 0.864 14.549 1.628 29.104 2.282 43.663 0.050 1.12-0.734 2.539-1.566 3.396-5.463 5.628-10.988 11.2-16.645 16.632-0.977 0.938-2.701 1.632-4.041 1.573-14.559-0.649-29.11-1.519-43.669-2.154-1.114-0.048-2.901 0.962-3.332 1.939-3.623 8.216-6.963 16.555-10.482 24.817-0.784 1.842-0.094 2.852 1.228 4.036 10.695 9.572 21.305 19.241 32.022 28.788 1.698 1.512 2.147 2.967 2.062 5.264-0.269 7.272-0.233 14.565-0.002 21.839 0.068 2.133-0.259 3.525-1.901 4.987-10.724 9.54-21.304 19.243-32.036 28.774-1.637 1.454-2.054 2.721-1.232 4.666 3.367 7.957 6.72 15.921 9.983 23.92 0.816 2.001 1.982 2.623 4.161 2.492 14.548-0.87 29.103-1.63 43.663-2.294 1.144-0.052 2.612 0.615 3.456 1.435 5.706 5.544 11.328 11.179 16.861 16.896 0.819 0.846 1.505 2.301 1.454 3.438-0.674 14.673-1.549 29.336-2.174 44.010-0.050 1.185 1.058 3.076 2.115 3.547 7.993 3.565 16.112 6.849 24.184 10.24 1.895 0.796 3.192 0.445 4.663-1.213 9.3-10.48 18.812-20.772 28.091-31.27 1.845-2.088 3.534-2.756 6.364-2.619 7.038 0.34 14.113 0.248 21.157-0.060 2.327-0.101 3.752 0.44 5.249 2.118 9.481 10.625 19.1 21.127 28.554 31.774 1.436 1.617 2.691 2.118 4.641 1.295 8.17-3.451 16.392-6.783 24.496-10.379 0.967-0.429 1.936-2.238 1.887-3.362-0.638-14.56-1.511-29.11-2.156-43.669-0.059-1.329 0.696-3.028 1.639-4.011 5.354-5.577 10.815-11.056 16.406-16.394 1.044-0.998 2.859-1.719 4.297-1.685 7.17 0.171 14.332 0.636 21.497 0.998 0.001-0.015 0.002-0.030 0.002-0.046zM153.547 306.495c-45.81-0.050-83.359-37.657-83.281-83.413 0.077-45.685 37.149-82.779 83.153-83.202 45.423-0.417 83.243 37.308 83.454 83.243 0.209 45.58-37.611 83.421-83.325 83.372zM153.694 261.863c21.24-0.089 38.547-17.475 38.502-38.676-0.045-21.374-17.48-38.652-38.919-38.57-21.141 0.082-38.512 17.659-38.369 38.825 0.144 21.232 17.586 38.51 38.785 38.421zM489.061 216.102c4.551 0.25 9.106 0.445 13.651 0.786 1.369 0.103 2.146-0.245 2.672-1.533 2.050-5.015 4.155-10.010 6.271-14.998 0.575-1.354 0.37-2.282-0.813-3.329-6.775-5.997-13.442-12.116-20.195-18.138-1.021-0.91-1.305-1.776-1.257-3.162 0.163-4.622 0.173-9.255 0.014-13.877-0.050-1.445 0.192-2.39 1.286-3.364 6.76-6.014 13.43-12.13 20.198-18.135 1.096-0.973 1.4-1.803 0.825-3.144-2.163-5.047-4.281-10.113-6.365-15.194-0.492-1.2-1.226-1.548-2.502-1.473-9.245 0.546-18.493 1.048-27.744 1.467-0.781 0.036-1.778-0.45-2.362-1.016-3.527-3.42-7.005-6.894-10.394-10.452-0.64-0.673-1.169-1.815-1.13-2.714 0.399-9.252 0.957-18.498 1.357-27.75 0.030-0.698-0.644-1.814-1.276-2.092-5.154-2.277-10.383-4.383-15.57-6.588-1.198-0.509-1.936-0.182-2.776 0.76-6.026 6.751-12.144 13.419-18.142 20.195-1.096 1.238-2.139 1.469-3.735 1.4-4.404-0.192-8.829-0.219-13.228 0.010-1.726 0.090-2.757-0.315-3.873-1.574-5.906-6.662-11.937-13.216-17.853-19.868-0.955-1.074-1.786-1.44-3.134-0.865-5.049 2.158-10.112 4.285-15.197 6.358-1.318 0.537-1.569 1.353-1.49 2.694 0.549 9.245 1.034 18.495 1.45 27.747 0.032 0.712-0.466 1.613-0.995 2.158-3.471 3.577-6.983 7.117-10.577 10.569-0.62 0.596-1.716 1.038-2.568 1-9.252-0.413-18.498-0.966-27.75-1.368-0.707-0.031-1.844 0.611-2.118 1.233-2.302 5.221-4.425 10.52-6.661 15.771-0.498 1.171-0.060 1.813 0.781 2.565 6.796 6.082 13.538 12.227 20.349 18.293 1.079 0.961 1.364 1.885 1.31 3.345-0.171 4.621-0.148 9.255-0.002 13.878 0.043 1.356-0.164 2.24-1.208 3.168-6.815 6.063-13.538 12.228-20.358 18.285-1.041 0.924-1.305 1.729-0.783 2.965 2.139 5.057 4.27 10.117 6.344 15.2 0.519 1.272 1.259 1.667 2.644 1.584 9.245-0.553 18.494-1.036 27.746-1.458 0.726-0.033 1.66 0.391 2.197 0.913 3.627 3.523 7.198 7.104 10.714 10.737 0.521 0.538 0.957 1.462 0.923 2.185-0.428 9.324-0.984 18.642-1.382 27.967-0.032 0.753 0.673 1.954 1.344 2.255 5.079 2.265 10.239 4.352 15.368 6.507 1.204 0.506 2.029 0.283 2.964-0.771 5.91-6.659 11.954-13.2 17.851-19.871 1.173-1.327 2.245-1.751 4.045-1.664 4.473 0.216 8.969 0.158 13.445-0.037 1.478-0.065 2.385 0.28 3.336 1.345 6.024 6.752 12.137 13.425 18.145 20.191 0.913 1.027 1.709 1.346 2.949 0.822 5.192-2.192 10.416-4.31 15.566-6.595 0.615-0.273 1.231-1.422 1.2-2.137-0.406-9.252-0.96-18.498-1.37-27.75-0.038-0.844 0.442-1.924 1.042-2.548 3.402-3.544 6.873-7.026 10.425-10.418 0.664-0.634 1.817-1.092 2.731-1.070 4.556 0.108 9.108 0.404 13.661 0.634 0-0.010 0.001-0.019 0.002-0.029zM414.447 221.66c-29.111-0.032-52.971-23.93-52.923-53.005 0.049-29.031 23.606-52.603 52.841-52.871 28.865-0.265 52.898 23.707 53.032 52.898 0.133 28.964-23.901 53.011-52.95 52.98zM414.54 193.298c13.497-0.057 24.495-11.104 24.467-24.577-0.029-13.582-11.108-24.562-24.732-24.51-13.435 0.052-24.473 11.221-24.382 24.672 0.091 13.492 11.175 24.471 24.647 24.415z" />
<glyph unicode="&#xe610;" d="M438.667 340.115l-69.943 137.234-368.563-168.685 72.982-178.231v-119.461h438.857v329.143h-73.333zM397.945 340.115h-36.407l-22.949 61.897-142.519-61.897h-57.472l217.107 95.927 42.24-95.927zM73.143 251.612v-54.638l-35.072 96.476 35.072 15.506v-57.344zM475.428 47.543h-365.714v256h365.714v-256zM216.806 234.057c0-18.855-15.285-34.139-34.139-34.139s-34.139 15.284-34.139 34.14c0 18.855 15.285 34.139 34.139 34.139s34.139-15.284 34.139-34.139zM329.41 210.834c-1.5 1.774-4.425 1.7-5.76-0.183l-72.228-91.502c-1.408-1.993-4.718-1.774-6.107 0.219l-37.65 34.121c-1.463 2.084-5.632 2.871-7.004 0.731l-59.447-70.108h292.572l-104.375 126.72z" />
<glyph unicode="&#xe611;" d="M383.438 357.394c-28.103 0-55.82-9.933-57.744-12.047-29.606 56.881-87.694 93.053-152.859 93.053-95.295 0-172.834-77.539-172.834-172.834 0-65.99 38.447-127.158 97.951-155.805 2.992-1.44 6.166-2.125 9.297-2.125 7.984 0 15.66 4.474 19.365 12.164 5.145 10.682 0.656 23.515-10.039 28.66-44.725 21.531-73.625 67.502-73.625 117.106 0 71.625 58.26 129.885 129.885 129.885 53.24 0 100.524-31.891 120.475-81.244 4.418-10.988 16.945-16.303 27.949-11.869 4.658 1.883 34.742 12.108 62.18 12.108 47.881 0 86.836-40.098 86.836-89.381 0-38.785-24.027-72.926-59.791-84.963-10.963-3.692-16.94-15.815-13.353-27.082 2.881-9.060 11.043-14.807 19.832-14.807 2.147 0 4.332 0.336 6.478 1.063 52.973 17.826 88.56 68.383 88.56 125.789 0 72.967-57.672 132.33-128.563 132.33zM288 262.4h-64v-128h-64l96.006-128 95.994 128h-64z" />
<glyph unicode="&#xe612;" d="M170.988 38.787c-70.575 0-128 57.425-128 128s57.425 128 128 128v38.4c-91.75 0-166.4-74.65-166.4-166.4s74.65-166.4 166.4-166.4 166.4 74.65 166.4 166.4h-38.4c0-70.575-57.425-128-128-128zM179.2 295.2v-78.474c-22.367-2.225-39.901-20.88-39.901-43.833 0-24.452 19.822-44.274 44.274-44.274s44.274 19.822 44.274 44.274c0 2.161-0.338 4.228-0.636 6.307h51.991l-100 116zM449.625 459.087c-34.068 34.069-76.8 25.6-76.8 25.6l-155.55-155.563 95.6-109.2 162.35 162.363c0 0 8.731 42.468-25.6 76.8zM284.267 299.735l-25.067 28.265 125.6 120.267c0 0 12-7.2 28-24.8l-128.533-123.733z" />
<glyph unicode="&#xe613;" d="M480 334.4v-304c0-13.25-10.75-24-24-24h-240c-13.25 0-24 10.75-24 24v72h-136c-13.25 0-24 10.75-24 24v168c0 13.25 7.75 31.75 17 41l102 102c9.25 9.25 27.75 17 41 17h104c13.25 0 24-10.75 24-24v-82c9.75 5.75 22.25 10 32 10h104c13.25 0 24-10.75 24-24zM288 318.4v104h-96v-104c0-13.25-10.75-24-24-24h-104v-160h128v64c0 13.25 7.75 31.75 17 41l79 79zM85.25 326.4h74.75v74.75l-74.75-74.75zM448 326.4h-96v-104c0-13.25-10.75-24-24-24h-104v-160h224v288zM245.25 230.4h74.75v74.75l-74.75-74.75z" />
<glyph unicode="&#xe614;" d="M309.505 212.709c-0.557 0.089-1.849-0.065-2.366 0.298-0.305-1.082 0.171-1.493 2.366-0.298zM260.954 412.43c-2.317 0.112-4.603 0.323-6.935 0.346 1.308-1.211 2.817-2.267 4.343-2.058 1.542 0.211 2.165 0.906 2.592 1.712zM195.588 400.751c3.631-1.638 14.181-3.885 16.158-6.612 2.641-3.672-2.292-7.12 3.221-9.685 1.761-0.824 5.401-0.994 6.918 0.692 2.453 2.794-1.018 3.415-1.615 6.619-1.137 6.169 0.75 3.714 3.842 6.015 6.33 4.656 4.908 4.949 2.641 12.382-0.041 0.145-0.147 0.427-0.203 0.59-11.793-1.776-23.175-4.73-34.047-8.791 1.132-0.412 2.213-0.815 3.085-1.209zM239.433 73.421c0.606 1.623 0.112 2.267 0.631 3.865 1.776 5.529 0.993 3.44 0 7.725-2.349 10.066 0.839 12.812 3.575 22.020 2.817 9.468 2.552 21.729 4.351 31.925 0.855 4.883 2.268 15.029 0.565 19.639-1.888 5.188-10.3 9.29-14.142 12.769-5.448 4.957-8.346 10.323-12.381 16.458-2.059 3.108-4.407 6.17-5.989 9.551-3.44 7.24 0 2.921 0.565 7.207 0.557 4.117-0.492 7.822 1.155 12.149 1.815 4.794 6.336 7.774 7.822 12.608 1.34 4.285 0.329 9.71-4.101 11.13-2.463 0.816-5.173-1.048-7.651-0.638-3.438 0.558-7.356 3.134-10.048 5.201-3.78 2.873-5.208 7.547-9.236 10.29-3.358 2.267-5.756 0.904-9.356 1.962-3.753 1.122-6.077 5.763-9.105 7.2-4.552 2.181-7.119-0.944-11.929-0.315-4.069 0.532-10.308 5.053-14.109 6.779-7.768 3.465-12.506 7.305-15.597 15.185-2.662 6.748-6.537 9.888-11.099 15.524-4.616 5.697-6.069 10.548-13.196 12.074-0.84 0.178 1.758-5.99 2.010-6.474 2.542-4.714 6.367-9.010 9.445-13.416 4.527-6.456 2.581-7.683-1.996-1.428-5.27 7.16-11.38 14.264-15.949 21.842-1.436 2.406-1.547 4.117-3.204 6.208-12.172-23.498-19.162-50.119-19.162-78.41 0-89.734 69.233-163.165 157.175-170.139 0.305 0.519 0.743 0.93 0.959 1.511zM325.591 396.084c-2.979-6.675-6.005-13.043-14.021-11.076-6.771 1.654-11.551 9.671-14.974 14.9-1.84 2.834-4.407 5.417-5.408 8.299-6.079 1.428-12.26 2.566-18.565 3.316 0.354-0.846 0.71-1.72 1.082-2.598 2.389-5.633 4.641-7.748 8.894-11.356 1.987-1.681 10.64-7.692 9.817-11.397-0.548-2.504-10.445-6.272-13.076-7.122-9.661-3.058-27.783 5.012-29.752-10.315 3.761 1.404 14.425 10.114 17.63 5.982 1.466-1.88-1.171-4.593-0.55-6.458 1.822-5.577 6.118-3.633 10.621-2.738-0.283-0.184-0.606-0.354-0.952-0.507 6.183 3.173 5.537 2.509 8.363 7.636 0.935 1.695 2.291 5.764 3.591 6.95 4.488 4.116 5.19 1.282 7.942-1.896 0.737-0.84 7.605-10.72 5.152-10.228-7.976 1.607-15.635 1.389-22.272-2.97-3.81-2.526-7.409-5.916-11.969-7.605-1.097-0.387-9.178-1.153-8.219 0.219 1.397 2.010 6.183 3.351 8.096 5.521-5.255 2.155-9.646-2.623-13.77-5.407-4.374-2.074-5.382-5.926-9.12-9.333-1.615-1.476-4.699-1.71-6.305-3.656-1.549-1.879-1.736-4.858-3.203-6.642-1.033-1.251-3.674-0.493-4.738-2.374-1.414-2.478 1.266-4.756 0.677-6.539-1.073-3.227-7.208-5.972-9.59-8.29 0.315 0.308 0.638 0.608 0.944 0.938-2.364-2.495-5.351-4.318-7.198-7.193 0.845-4.068 3.519-13.738 2.776-15.949-2.446-7.348-7.239 3.97-9.185 6.893-6.659 10.041-19.977 3.318-29.084 2.502-11.631-1.082-23.030-16.175-15.845-28.437 3.455-5.87 9.259-8.152 15.9-6.789 5.903 1.211 7.677 9.493 13.254 9.638 10.236 0.274 0.211-10.025-0.661-13.819-0.824-3.496 1.275-3.827 4.875-4.69 2.664-0.638 6.442 1.137 8.75-0.372 1.453-0.969 1.387-6.233 3.383-4.569-3.931-3.268-3.022-11.010 1.008-13.794 4.496-3.107 9.758-0.242 14.43-1.429 8.864-2.26 4.625 0.672 12.417 5.369 5.23 3.149 6.094-0.598 9.661-0.598 2.453-0.025 4.012 3.486 8.087 2.47 3.336-0.839 4.625-3.397 8.598-3.98 1.631-0.25 3.31 0.598 4.86 0.42 7.361-0.806 12.971-5.504 18.758-9.743 4.763-3.496 7.918-2.776 13.488-4.382 4.077-1.155 11.584-7.048 11.188-12.214-0.058-0.921-3.608-5.57-4.239-7.661 1.050-0.718 8.292 0.896 10.406 1.048-0.687-0.815-5.613-4.285-5.613-2.435 0-0.954 3.473-2.882 4.336-3.481 2.567 8.348 6.798 2.964 11.875 0.906 4.318-1.768 9.646-1.857 14.255-2.964 3.913-0.911 12.536-3.558 15.433-6.755 3.503-3.858 1.099-10.115-1.484-13.941-3.389-5.021-8.491-6.949-10.6-12.85-1.652-4.69-0.394-9.41-1.356-14.61-1.298-7.021-2.324-4.56-6.851-8.853-3.803-3.601-0.058-2.979-5.231-5.279-5.216-2.317-9.799-1.639-13.416-7.338 0.163 0.356 0.274 0.717 0.372 1.099-1.524-2.132-2.293-6.491-2.995-7.928-1.832-3.632-4.336-5.949-7.209-8.99-1.097-1.164-11.226-14.991-11.815-13.892-0.76 1.453-8.737-1.438-9.106 0.621 0.313-1.728-0.082-1.153 1.888-2.153-1.832-11.366-6.642-13.063-17.789-13.175 0.952-5.466-4.053-4.376-6.394-7.313-1.341-1.71-1.995-6.537-2.947-8.766-0.298-0.726-1.598-2.567-2.801-4.336 90.614 4.198 162.851 78.774 162.851 170.422 0 67.998-39.836 126.551-97.356 154.035zM214.629 314.025c0.016 0.048 0.064 0.074 0.089 0.122-0.089 0.468-0.188 0.888-0.219 1.186 0.031-0.428 0.089-0.863 0.13-1.308zM307.139 213.006v0.007l-0.046 0.007z" />
<glyph unicode="&#xe615;" d="M143.031 85.431l-144.969 144.969 144.969 144.969 33.938-33.938-111.031-111.031 111.031-111.032zM192 262.4h128v-64h-128v64zM368.969 85.431l-33.938 33.938 111.031 111.032-111.031 111.031 33.938 33.938 144.969-144.969z" />
<glyph unicode="&#xe616;" d="M64 262.4h160v160h-160v-160zM96 390.4h96v-96h-96v96zM288 422.4v-160h160v160h-160zM416 294.4h-96v96h96v-96zM64 38.4h160v160h-160v-160zM96 166.4h96v-96h-96v96zM288 38.4h160v160h-160v-160zM320 166.4h96v-96h-96v96z" />
<glyph unicode="&#xe617;" d="M384 294.4h-64v160h-128v-160h-64l128.008-160zM384 166.4v-96h-256v96h-64v-160h384v160z" />
<glyph unicode="&#xe618;" d="M288 230.4l96 80v80l-192-160 192-160v80zM128 390.4h64v-320h-64v320z" />
<glyph unicode="&#xe619;" d="M416 294.4v-256h-288v320h96v64h-160v-448h416v320zM448 422.4h-128l-126.543-192h61.074l-62.531-128 224 192h-100.394z" />
<glyph unicode="&#xe61a;" d="M288 454.4h160.003l-160.003-224h128l-320-256 96 224h-96z" />
<glyph unicode="&#xe61b;" d="M46.956 41.037c14.636 0.979 26.422 7.63 35.328 19.89 5.73 7.719 13.953 24.729 24.641 51.063l135.078 332.797h16.922l135.672-319.438c15.229-35.833 26.63-58.93 34.14-69.32s18.199-15.378 32.063-14.992v-15.438h-196.828v15.438c19.801 0.801 32.805 2.464 39.039 5.047s9.351 9.114 9.351 19.594c0 4.75-1.574 11.964-4.75 21.672-1.989 5.729-4.661 12.676-8.015 20.781l-15.467 36.813h-136.503c-8.936-24.136-14.666-39.87-17.249-47.203-5.344-15.646-8.016-27.015-8.016-34.14 0-8.699 5.849-15.051 17.516-19 6.917-2.167 17.308-3.354 31.172-3.563v-15.438h-124.094v15.438zM275.194 168.99l-58.484 140.719h-5.107l-54.863-140.719h118.453z" />
<glyph unicode="&#xe61c;" d="M381.432 305.638c-20.171 33.277-52.113 56.724-89.917 66.064-37.847 9.296-77.052 3.35-110.481-16.781-20.171-12.154-36.711-28.466-48.963-48.454-28.57-46.591-28.747-104.56-0.437-151.282 41.655-68.639 131.485-90.768 200.355-49.328 67.557 40.664 89.827 133.006 49.442 199.781zM300.291 157.788c-40.127-24.177-92.505-11.274-116.725 28.748-16.48 27.233-16.406 61.037 0.216 88.197 7.165 11.648 16.839 21.154 28.517 28.232 19.561 11.739 42.347 15.204 64.417 9.807 22.070-5.448 40.7-19.116 52.45-38.521 23.502-38.954 10.533-92.771-28.876-116.461zM268.414-25.365c-21.236-0.908-42.585 0.815-63.441 5.101l6.771 32.714c28.465-5.848 58.043-6.25 86.948-0.786l6.222-32.839c-12.099-2.252-24.326-3.663-36.5-4.19zM398.964 17.073l-10.579 13.067-8.268 14.558c24.12 15.962 44.279 36.233 60.355 60.47l27.894-18.411c-18.52-27.988-41.847-51.426-69.402-69.685zM112.794 18.406c-27.626 18.656-51.045 42.25-69.671 70.139l27.424 19.182 0.451-0.713c16.181-24.21 36.581-44.733 60.563-60.933l-18.767-27.675zM506.493 178.757l-32.788 6.742c3.882 18.857 5.418 38.111 4.587 57.207-0.433 9.954-1.517 19.903-3.248 29.73l32.985 5.805c2.026-11.219 3.224-22.696 3.719-34.086 0.951-21.853-0.793-43.855-5.256-65.398zM4.769 181.542c-2.448 12.385-3.978 25.076-4.529 37.752-0.903 20.764 0.75 41.601 4.893 61.968l32.83-6.669c-3.605-17.709-5.053-35.823-4.269-53.851 0.479-11.008 1.798-22.037 3.896-32.789l-32.821-6.411zM443.192 352.897l13.99 9.079-14.187-8.809c-16.484 24.697-36.788 45.236-60.676 61.404l18.817 27.632c27.435-18.604 50.808-42.215 69.483-70.162l-27.425-19.144zM71.489 354.612l-27.81 18.612c18.623 27.762 42.547 51.375 71.010 70.205l10.939-12.806 7.996-14.734c-25.204-16.68-45.913-37.183-62.136-61.277zM302.080 448.361l3.622 16.293-4.419-16.154c-28.976 5.816-57.984 5.942-85.918 0.669l-6.268 32.801c32.227 6.122 65.802 5.892 98.44-0.647l-1.834-16.669-3.622-16.293z" />
<glyph unicode="&#xe61d;" d="M470.525 198.5c-15.275 9.275-33.7 16.8-49.95 23.45l-2.15 0.8c-3.6 2.525-17.275 15.050-25.5 25.35 1.825 3.675 5.7 12.225 8.325 20.325 1.475 0.625 2.375 1.15 2.4 1.175 14 8.775 15.425 29.9 16.375 43.875l0.3 3.975c0.6 6.325-1.925 10.975-4.050 13.575 13.475 64-16.551 83.975-34.651 89.825-8.050 3.25-23.077 9.325-41.801 10.225-16.858-0.886-31.611-6.764-39.75-10.048-10.575 12.796-23.519 19.776-33.822 23.099-11.175 4.55-31.975 12.975-58.15 14.25-23.875-1.275-44.7-9.7-54.5-13.725-26.525-8.625-68.25-36.376-50.35-125.076-2.1-3.875-5.625-10.327-4.8-18.977l0.4-5.476c1.325-19.475 3.3-48.931 22.65-61.081 0.975-0.625 2.175-1.236 3.475-1.786 3.552-10.847 8.662-22.167 11.397-27.574 0.072-0.156 0.052-0.325 0.128-0.479 0.012-0.025 0.122-0.225 0.141-0.262-11.878-14.615-31.57-32.603-34.465-34.625l-4.075-1.762c-22.575-9.225-22.575-19.85-43.8-32.725-30.8-18.7-46.975-60.175-48.050-122.55-0.175-9.5 3.375-19.175 10.025-25.95 6.675-6.8 15.6-11.925 25.15-11.925h364.975c17.067 0 28.95 16.050 28.8 25.6-0.445 24.685-0.712 58.849-5.836 76.8h50.411c6.9 0 13.35 6.712 18.15 11.637 4.775 4.875 7.325 15.337 7.175 22.113-0.8 44.925-12.425 74.5-34.575 87.95zM339.775 400.775c12.075-0.65 23.525-5.275 31.375-8.425 16.725-5.425 21.775-23.975 15.225-55.075-1.85-8.875 0.8-15.5 3.125-19.95l-0.525-1.8c-0.3-4.15-1.9-16.25-2.825-19.65-0.2-0.025-2.15-0.075-2.15-0.1v-0.075c0-0.15-0.975-0.55-2.225-1.025-5.275-1.975-7.45-7-8.15-12.6-0.325-2.575-3.85-12.774-7.85-20.824-0.13-0.258-0.146-0.55-0.267-0.811-0.226-0.383-0.589-0.633-0.783-1.041-0.325-0.675-8.075-16.4-23.625-16.4-15.9 0-25.55 18.5-25.6 18.6-0.101 0.204-0.292 0.322-0.401 0.52 3.011 11.189 3.847 23.221 4.502 32.829l0.425 5.625c0.775 8.725-2.725 15.15-5.675 18.75 6.846 32.431 5.521 56.556 0.012 74.729 6.918 2.749 16.444 6.186 25.413 6.721zM145.35 328.025c-9.1 43.225-1.95 68.975 22.675 77.025 9.55 3.875 25.5 10.326 40.075 11.226 15.575-0.825 30-6.225 43.725-11.725 23.225-7.55 30.4-33.298 21.275-76.548-2.6-12.35 1.375-21.572 4.625-27.747l-0.175-2.444c-0.4-5.825-1.575-22.837-2.95-27.462-1.675-0.15-3.325-0.452-4.95-0.952-7.8-2.5-13.5-9.525-14.525-17.65-0.45-3.6-5.35-17.453-10.95-28.653-0.383-0.769-0.457-1.611-0.789-2.394-0.189-0.339-0.514-0.548-0.686-0.901-0.425-0.95-11.2-22.8-32.8-22.8-21.954 0-35.308 25.306-35.639 25.954-5.671 11.394-10.461 24.999-10.886 28.571-0.8 8.275-6.375 15.325-14.275 17.975-1.425 0.475-2.9 0.8-4.35 0.975-2.45 6.9-3.475 22.050-3.825 27.475l-0.175 2.3c2.725 5.075 7.375 14.675 4.6 27.775zM51.2 14.933c1.675 36.267 8.775 77.466 24.975 87.317 18.375 11.15 16.75 17.825 37.875 26.45l1.725 0.875c12.436 3.439 37.090 29.275 48.264 41.736 11.582-9.044 26.736-16.461 45.861-16.461 18.661 0 33.781 6.851 45.467 15.844 11.498-12.69 34.766-36.842 44.933-39.512l4.125-0.919c21.125-8.625 45.1-16.863 63.45-28.012 16.2-9.825 16.125-87.317 16.125-87.317h-332.8zM419.297 102.4c-7.577 14.344-17.372 25.387-29.547 32.775-21.2 12.875-46.8 23.325-69.375 32.55l-3 1.15c-5 3.475-24.025 20.925-35.475 35.225 2.55 5.075 7.925 16.925 11.6 28.175 1.275 0.525 2.425 1.1 3.375 1.7 0.284 0.179 0.486 0.439 0.762 0.625 8.505-10.042 22.806-21.95 43.462-21.95 13.092 0 23.731 4.714 32.056 10.945 7.995-9.151 25.489-28.169 32.994-30.142l2.95-2.797c15.2-6.2 32.45-16.444 45.675-24.493 11.65-7.050 18.625-12.563 19.825-63.762h-55.303z" />
<glyph unicode="&#xe61e;" d="M370.496 358.4c-6.096-15.297-16.666-28.127-32.519-39.158-16.647-11.758-35.349-21.365-49.976-25.631v-44.184c27.235 7.838 64 20.67 64 37.041v-184.068h64v256h-45.504zM192 262.4h-64v96h-64v-256h64v96h64v-96h64v256h-64z" />
<glyph unicode="&#xe61f;" d="M457.344 103.837h-169.344c1.063 10.906 4.235 22.875 8.453 33.094 9.156 20.781 27.11 42.594 62.313 75.688 34.156 31.344 39.438 37.656 46.125 51.75 2.453 5.656 3.875 11.968 3.875 19.031 0 21.125-11.969 33.438-32.39 33.438-21.125 0-32.75-13.031-34.5-39.438l-48.235 4.938c3.515 33.782 16.89 54.563 40.828 65.469 13.735 6.344 27.11 9.156 42.953 9.156 47.89 0 79.922-28.188 79.922-70.063 0-14.438-4.578-31.312-11.265-43.312-10.563-19.344-17.61-27.438-45.422-53.125-30.969-28.531-33.094-31-39.422-41.938h96.11v-44.688zM192 358.4v-96h-64v96h-64v-256h64v96h64v-96h64v256z" />
<glyph unicode="&#xe620;" d="M329.617 178.447c2.828-22.875 16.547-36.938 35.922-36.938 20.765 0 35.203 17.594 35.203 42.25 0 23.219-13.735 39.438-33.453 39.438-6.688 0-13.015-1.063-22.172-3.531l5.281 39.094h3.156c21.828 0 36.969 13.375 36.969 32.719 0 16.906-10.906 27.813-27.813 27.813-17.594 0-29.219-12.656-31.688-33.782l-44.703 7.75c4.922 23.938 12.328 37.625 25.703 48.906 13.015 10.563 32.031 16.906 52.094 16.906 41.906 0 75-28.5 75-64.781 0-14.094-5.985-28.156-16.203-38.719-5.985-6-9.5-8.438-20.063-14.063 29.219-6.375 47.531-29.25 47.531-60.219 0-45.406-36.969-79.563-85.203-79.563-44.36 0-77.453 28.531-82.375 71.094l46.813 5.625zM192 358.4v-96h-64v96h-64v-256h64v96h64v-96h64v256z" />
<glyph unicode="&#xe621;" d="M396.851 154.525h-103.5v42.25l109.485 160.188h40.485v-159.813h31.328v-42.625h-31.328v-50.688h-46.469v50.688zM396.851 283.025h-0.703l-57.39-85.875h58.094v85.875zM192 358.4v-96h-64v96h-64v-256h64v96h64v-96h64v256z" />
<glyph unicode="&#xe622;" d="M331.633 175.635c2.813-20.75 17.25-35.188 35.563-35.188 22.172 0 36.266 19 36.266 49.281 0 28.875-14.094 46.469-37.672 46.469-13.735 0-26.063-5.969-37.328-18.656l-39.078 5.656 24.656 131.313h127.781v-45.063h-91.172l-7.39-42.968c11.265 5.968 21.125 8.094 32.735 8.094 44.36 0 77.11-35.906 77.11-84.125 0-51.063-36.969-88.719-86.265-88.719-46.11 0-77.453 26.031-83.438 69l48.235 4.906zM192 358.4v-96h-64v96h-64v-256h64v96h64v-96h64v256z" />
<glyph unicode="&#xe623;" d="M401.789 291.135c-2.11 18.313-11.969 28.156-27.813 28.156-23.938 0-35.906-20.406-38.719-67.594l-0.36-2.469 0.703-0.719c11.265 13.75 26.406 21.125 44.016 21.125 42.25 0 73.578-35.188 73.578-82.375 0-51.031-33.094-85.531-80.969-85.531-56.328 0-87.313 45.063-87.313 127.094 0 84.5 32.391 130.25 91.891 130.25 39.422 0 64.765-22.188 71.813-62.688l-46.828-5.25zM374.68 141.51c19.719 0 31.344 16.563 31.344 45.063 0 29.563-12.672 47.5-33.797 47.5-20.078 0-33.094-16.875-33.094-42.219 0-29.594 14.781-50.344 35.547-50.344zM192 358.4v-96h-64v96h-64v-256h64v96h64v-96h64v256z" />
<glyph unicode="&#xe624;" d="M158.064 424.844c24.535 15.801 54.684 25.922 90.448 25.922 46.99 0 86.027-10.117 117.11-32.572 31.085-22.457 46.628-55.168 46.628-99.246 0-27.033-6.757-49.521-20.221-68.025-7.875-11.228-23.026-25.437-45.404-42.903l-22.092-17.086c-12.032-9.353-20.014-13.764-23.937-26.238-2.497-7.902-3.846-30.295-4.056-30.295h-84.518c1.245 0 4.572 52.942 9.953 66.351 5.379 13.41 19.258 25.614 41.661 43.078l22.715 16.16c7.433 5.613 13.464 10.938 18.039 17.592 8.264 11.435 12.423 23.609 12.423 37.334 0 15.801-4.628 29.996-13.829 42.992-9.251 12.996-26.093 19.391-50.577 19.391-24.067 0-41.116-12.494-51.2-28.506-10.031-16.010-15.074-54.392-15.074-54.392h-90.134c2.494 64 23.183 105.699 62.064 130.443zM314.171 38.4c0-35.346-28.654-64-64-64s-64 28.654-64 64c0 35.346 28.654 64 64 64s64-28.654 64-64z" />
<glyph unicode="&#xe625;" d="M379.055 359.827l71.945 71.945-22.627 22.627-78.422-78.422c-29.063 13.481-60.705 21.461-94.172 21.461-99.377 0-184.799-65.644-223.78-160 17.073-41.324 43.431-76.615 75.59-103.823l-70.256-70.256 22.627-22.627 73.636 73.637c36.059-23.133 77.552-36.932 122.181-36.932 99.375 0 184.797 65.647 223.775 160-21.299 51.556-56.769 94.002-100.5 122.388zM64 237.439c36.865 76.285 114.726 128 191.78 128 23.492 0 46.965-5.306 69.48-14.152l-195.17-195.17c-27.192 21.443-50.455 48.971-66.090 81.323zM255.78 109.439c-34.023 0-67.998 10.549-98.737 28.377l198.668 198.668c38.568-22.565 71.881-56.811 92.289-99.045-36.863-76.285-115.168-128-192.22-128z" />
<glyph unicode="&#xe626;" d="M255.78 422.4c-113.588 0-211.225-78.775-255.78-192 44.554-113.225 142.191-192 255.78-192 113.586 0 211.222 78.775 255.778 192-44.555 113.225-142.192 192-255.778 192zM255.78 70.4c-92.59 0-178.207 62.385-221.123 160 42.916 97.617 128.533 160 221.123 160 92.588 0 178.205-62.385 221.121-160-42.916-97.615-128.533-160-221.121-160zM32.001 18.99l434.411 434.411 22.627-22.627-434.411-434.411-22.627 22.627z" />
<glyph unicode="&#xe627;" d="M256.223 422.4c-113.588 0-211.225-78.775-255.78-192 44.554-113.225 142.191-192 255.78-192 113.586 0 211.223 78.775 255.777 192-44.555 113.225-142.192 192-255.778 192zM256.223 81.851c-86.551 0-166.862 57.754-208.571 148.549 36.879 80.281 104.809 133.176 178.828 146.088 37.519 5.912 60.086-0.049 60.086-0.049 74.625-11.731 141.443-65.973 178.225-146.039-41.709-90.795-122.017-148.549-208.568-148.549zM32.001 18.989l434.411 434.411 22.627-22.627-434.411-434.411-22.627 22.627z" />
<glyph unicode="&#xe628;" d="M224 198.4h64v-96h-64v96zM448 262.4v160h-96v-64l-96 96-256-256h64v-192h384v192h64l-64 64zM416 38.4h-320v192l160 160 160-160v-192zM416 326.4h-32v64h32v-64z" />
<glyph unicode="&#xe629;" d="M448 262.4v160h-96v-64l-96 96-256-256h64v-192h384v192h64l-64 64zM96 230.4l160 160 28.685-28.685-188.685-188.685v57.371zM96 127.773l211.315 211.315 41.371-41.373-252.685-252.686v82.744zM134.627 38.4l236.688 236.688 41.371-41.373-194.51-194.51 0.804-0.805h-84.353zM416 38.4h-25.373l25.373 25.373v-25.373zM416 107.419l-0.805 0.805-69.019-69.019 0.805-0.805h-84.353l153.373 153.373v-84.353z" />
<glyph unicode="&#xe62a;" d="M0 230.4h128v-96h-128v96zM160 230.4h192v-96h-192v96zM384 230.4h128v-96h-128v96zM96 358.4h160v-96h-160v96zM288 358.4h128v-96h-128v96zM96 102.4h128v-96h-128v96zM256 102.4h160v-96h-160v96z" />
<glyph unicode="&#xe62b;" d="M439.113 294.4h8.887v128h-64v-84.863l-121.625 105.793-242.961-212.929h44.586v-224h384v224h66.078l-74.965 64zM288 70.4h-64v96h64v-96z" />
<glyph unicode="&#xe62c;" d="M160 358.4h224v-32h-224v32zM96 254.4h352v-48h-352v48zM160 134.4h224v-32h-224v32z" />
<glyph unicode="&#xe62d;" d="M163.217 302.607c0-26.396-20.061-47.795-44.809-47.795s-44.809 21.399-44.809 47.795c0 26.397 20.061 47.795 44.809 47.795s44.809-21.399 44.809-47.795zM311.008 274.951c-1.969 2.484-5.808-0.047-7.56-2.684l-94.799-129.315c-1.847-2.791-6.194-3.090-8.016-0.301l-49.416 47.467c-1.92 2.918-7.393 8.723-9.194 5.726l-78.023-93.445h384l-136.992 172.551zM0 422.4v-384h512v384h-512zM480 70.4h-448v320h448v-320z" />
<glyph unicode="&#xe62e;" d="M128 294.4h64v-160h128v160h64l-128.008 160zM384 166.4v-96h-256v96h-64v-160h384v160z" />
<glyph unicode="&#xe62f;" d="M219.429 193.828h73.143v146.286h40.607l-75.008 100.003-74.998-100.003h36.255zM383.555 321.829l43.282-49.326-105.838-90.5 48.841-48.951 90.835 92.392 51.325-51.124v147.509zM92.787 266.466l50.883 55.362h-143.669v-136.521l47.407 43.283 89.54-105.838 48.471 48.841zM257.178 161.257c-40.339 0-73.143-32.803-73.143-73.143s32.804-73.143 73.143-73.143 73.143 32.803 73.143 73.143-32.803 73.143-73.143 73.143zM257.178 51.543c-20.161 0-36.572 16.411-36.572 36.572s16.411 36.572 36.572 36.572 36.572-16.411 36.572-36.572-16.411-36.572-36.572-36.572z" />
<glyph unicode="&#xe630;" d="M296 301.93l-48.262-231.531h-63.020l48.719 231.531h62.564zM314.329 390.4l-11.624-56.732h-62.565l11.624 56.732h62.564z" />
<glyph unicode="&#xe631;" d="M128 390.4v-80l96-80-96-80v-80l192 160zM320 390.4h64v-320h-64v320z" />
<glyph unicode="&#xe632;" d="M384 362.694c-58.647 0-106.791-43.785-114.676-100.295h-26.649c-7.885 56.51-56.029 100.295-114.676 100.295-64.125 0-116.293-52.17-116.293-116.295v-32c0-64.125 52.168-116.293 116.293-116.293 58.647 0 106.791 43.783 114.676 100.293h26.649c7.885-56.51 56.029-100.293 114.676-100.293 64.125 0 116.293 52.168 116.293 116.293v32c0 64.125-52.168 116.295-116.293 116.295zM128 134.399c-44.184 0-80 35.818-80 80v32c0 44.184 35.816 80 80 80 38.703 0 70.972-27.484 78.387-64h-62.387c-17.674 0-32-14.326-32-32 0-17.672 14.326-32 32-32h62.387c-7.414-36.514-39.684-64-78.387-64zM464 214.399c0-44.182-35.817-80-80-80-38.701 0-70.972 27.486-78.387 64h30.387c17.674 0 32 14.328 32 32 0 17.674-14.326 32-32 32h-30.387c7.414 36.516 39.685 64 78.387 64 44.183 0 80-35.816 80-80v-32z" />
<glyph unicode="&#xe633;" d="M160 294.4v53.344c0 44.031 44.594 82.656 100 82.656 50.849 0 91.476-32.613 98.555-72h48.151c-6.639 65.987-76.545 120-154.705 120-82.391 0-156-59.844-156-130.656v-53.344h-32v-288h384v288h-288zM416 38.4h-320v224h320v-224zM224 166.4h64v-96h-64v96z" />
<glyph unicode="&#xe634;" d="M416 294.4v53.344c0 70.812-77.61 130.656-160 130.656s-160-59.844-160-130.656v-53.344h-32v-288h384v288h-32zM160 347.744c0 44.031 40.594 82.656 96 82.656s96-38.625 96-82.656v-53.344h-192v53.344zM416 38.4h-320v224h320v-224zM224 166.4h64v-96h-64v96z" />
<glyph unicode="&#xe635;" d="M256 486.4c-141.375 0-256-114.607-256-256s114.625-256 256-256c141.377 0 256 114.608 256 256s-114.623 256-256 256zM256 38.4c-105.869 0-192 86.131-192 192s86.131 192 192 192 192-86.131 192-192-86.131-192-192-192zM388.688 353.712l-124.887-124.886c-2.56 0.66-5.033 1.574-7.801 1.574s-5.24-0.914-7.801-1.574l-76.887 76.886-22.625-22.625 76.887-76.887c-0.66-2.56-1.574-5.033-1.574-7.801 0-17.67 14.315-32 32-32s32 14.33 32 32c0 2.767-0.914 5.24-1.574 7.801l124.887 124.887-22.625 22.625z" />
<glyph unicode="&#xe636;" d="M504.45 147.95c-8.225 25.413-25.825 46.113-49.6 58.275-14.050 7.188-29.775 10.988-45.475 10.988-6.092 0-12.031-0.729-17.878-1.781l-65.427 79.26c7.457 7.373 13.95 15.848 18.904 25.534 25.1 49.063 5.625 109.412-43.425 134.537-14.050 7.188-29.775 10.988-45.475 10.988-37.75 0-71.875-20.85-89.050-54.425-20.499-40.069-10.889-87.355 19.901-117.132l-59.251-80.046c-7.885 1.969-15.971 3.064-24.075 3.064-37.75 0-71.875-20.85-89.050-54.425-12.175-23.762-14.35-50.85-6.15-76.25 8.225-25.413 25.825-46.113 49.6-58.275 14.050-7.188 29.775-10.988 45.475-10.988 37.75 0 71.85 20.85 89.050 54.413 20.497 40.074 10.891 87.356-19.904 117.139l59.245 80.038c7.883-1.969 15.97-3.064 24.084-3.064 8.542 0 16.856 1.208 24.875 3.251l63.046-76.377c-9.483-8.245-17.586-18.238-23.546-29.887-12.175-23.762-14.35-50.85-6.15-76.25 8.225-25.413 25.825-46.113 49.6-58.275 14.050-7.188 29.775-10.988 45.475-10.988 37.75 0 71.85 20.85 89.050 54.413 12.175 23.775 14.35 50.85 6.15 76.262zM152.525 92.162c-13.4-26.275-47.45-37.525-74.075-23.9-13.075 6.7-22.775 18.087-27.275 32.075-4.525 13.988-3.325 28.9 3.375 41.975 9.45 18.488 28.25 29.975 49.050 29.975 8.75 0 17.15-2.038 25.025-6.063 27-13.825 37.725-47.050 23.9-74.063zM230.925 316.8c-27 13.825-37.725 47.037-23.9 74.050 9.45 18.487 28.25 29.975 49.050 29.975 8.725 0 17.125-2.037 24.975-6.062 27.025-13.825 37.75-47.050 23.925-74.063-13.425-26.275-47.45-37.463-74.050-23.9zM458.3 92.162c-13.4-26.275-47.475-37.525-74.075-23.9-13.075 6.7-22.775 18.087-27.275 32.075-4.525 13.988-3.325 28.9 3.375 41.975 9.45 18.488 28.25 29.975 49.050 29.975 8.75 0 17.15-2.038 25.025-6.063 27-13.825 37.725-47.050 23.9-74.063z" />
<glyph unicode="&#xe637;" d="M128 198.4v64h256v-64h-256z" />
<glyph unicode="&#xe638;" d="M96 262.4h320v-96h-320v96z" />
<glyph unicode="&#xe639;" d="M48.599 409.6c-26.73 0-48.599-21.869-48.599-48.599v-2.601h177.289l152.6-157.182c6.189-6.238 16.731-8.137 23.18-2.167l107.731 133.749v-230.4h-307.2v-0.511c0-27.88 22.81-50.689 50.688-50.689h307.712v358.4h-463.401zM343.811 234.227c-1.521-1.583-4.070 0.161-5.517 1.81l-107.894 122.364h208.728l-95.317-124.174zM51.2 307.2h102.4v-51.2h-102.4v51.2zM102.4 204.8h102.4v-51.2h-102.4v51.2z" />
<glyph unicode="&#xe63a;" d="M160 390.4v-80l96-80-96-80v-80l192 160z" />
<glyph unicode="&#xe63b;" d="M352 102.4c-23.584 0-43.994-12.967-55.096-32h-136.905v96h136.905c11.101-19.033 31.512-32 55.096-32 35.297 0 64 28.719 64 64s-28.703 64-64 64-64-28.718-64-64h-128v45.617c47.513 7.725 84 48.734 84 98.383 0 55.125-44.859 100-100 100s-100-44.875-100-100c0-49.649 36.487-90.658 84-98.383v-205.617h160c0-35.281 28.703-64 64-64s64 28.719 64 64-28.703 64-64 64zM84 342.4c0 33.094 26.922 60 60 60s60-26.906 60-60-26.922-60-60-60-60 26.906-60 60z" />
<glyph unicode="&#xe63c;" d="M347.428 120.685c-23.851 0-43.941-15.313-51.498-36.572h-94.788v109.714h94.788c7.557-21.258 27.647-36.572 51.498-36.572 30.297 0 54.857 24.56 54.857 54.857s-24.56 54.857-54.857 54.857c-23.851 0-43.941-15.314-51.498-36.571h-94.788v57.454c31.457 8.177 54.857 36.558 54.857 70.546 0 40.339-32.813 73.143-73.143 73.143s-73.143-32.804-73.143-73.143c0-33.988 23.4-62.37 54.857-70.546v-240.312h131.359c7.557-21.258 27.647-36.572 51.498-36.572 30.297 0 54.857 24.56 54.857 54.857s-24.56 54.857-54.857 54.857zM146.286 358.4c0 20.161 16.402 36.572 36.572 36.572s36.572-16.41 36.572-36.572-16.402-36.572-36.572-36.572-36.572 16.411-36.572 36.572z" />
<glyph unicode="&#xe63d;" d="M96 262.4h32v-32h-32v32zM160 262.4h256v-32h-256v32zM32 454.4v-416h448v416h-448zM448 70.4h-384v96h384v-96zM448 198.4h-384v96h384v-96zM448 326.4h-384v96h384v-96zM96 390.4h32v-32h-32v32zM160 390.4h256v-32h-256v32zM96 134.4h32v-32h-32v32zM160 134.4h256v-32h-256v32z" />
<glyph unicode="&#xe63e;" d="M217.524 390.4h224v-32h-224v32zM89.523 326.4h32v128h-64v-32h32zM57.523 262.4h64v-32h32v64h-96zM89.523 198.4h-32v-32h96v32h-32v32h-32zM217.524 230.4h224v-32h-224v32zM89.523 134.4h-32v-32h64v-64h-64v-32h96v128h-32zM217.524 70.4h224v-32h-224v32z" />
<glyph unicode="&#xe63f;" d="M128 230.4h256v-32h-256v32z" />
<glyph unicode="&#xe640;" d="M416 230.4h-128v128h-32v-128h-128v-32h128v-128h32v128h128z" />
<glyph unicode="&#xe641;" d="M182.258 197.198c12.787 25.068 27.325 53.316 38.958 81.675v0l4.602 11.191c-15.195 57.832-24.308 104.249-16.167 134.265v0c2.192 7.824 11.255 12.571 20.947 12.571v0l5.9-0.086h1.083c13.266 0.204 19.517-16.672 20.222-23.232v0c1.173-10.925-3.881-29.419-3.881-29.419v0c0 7.467 0.292 19.535-4.421 29.947v0c-5.488 12.048-10.727 19.245-15.427 20.387v0c-2.369-1.586-4.677-4.867-5.468-11.179v0c-1.633-8.847-2.125-20.019-2.125-25.777v0c0-20.345 4.007-47.199 11.88-74.88v0c1.484 4.285 2.791 8.404 3.831 12.262v0c1.614 6.082 11.873 46.389 11.873 46.389v0c0 0-2.583-53.657-6.197-69.89v0c-0.775-3.431-1.625-6.825-2.516-10.298v0c12.979-36.274 33.898-68.643 58.851-91.943v0c9.837-9.197 22.261-16.608 34.024-23.368v0c25.682 3.674 49.329 5.405 69.054 5.185v0c26.174-0.342 45.384-4.216 53.163-11.876v0c3.81-3.729 5.358-8.224 5.838-13.267v0c0.115-1.964-0.842-6.574-1.126-7.728v0c0.284 1.399 0.284 8.287-20.726 14.991v0c-16.549 5.29-47.514 5.125-84.674 1.168v0c42.979-21.024 84.851-31.472 98.121-25.209v0c3.247 1.578 7.18 6.971 7.18 6.971v0c0 0-2.338-10.628-4.015-13.286v0c-2.145-2.885-6.349-6.011-10.337-7.066v0c-20.958-5.591-75.51 7.346-123.067 34.519v0c-53.135-7.822-111.486-22.277-158.26-37.62v0c-45.965-80.553-80.522-117.549-108.636-103.476v0l-10.335 5.195c-4.2 2.402-4.842 8.251-3.87 13.019v0c3.277 16.034 23.385 40.188 63.776 64.307v0c4.348 2.63 23.712 12.868 23.712 12.868v0c0 0-14.337-13.873-17.693-16.601v0c-32.24-26.418-56.035-59.654-55.44-72.538v0l0.118-1.123c27.384 3.902 68.452 59.643 121.25 162.949zM198.99 188.629c-8.82-16.605-17.436-32.005-25.396-46.144v0c44.020 18.442 91.396 30.243 136.5 38.628v0c-6.062 4.188-11.947 8.617-17.482 13.301v0c-24.835 21.029-43.774 47.263-57.496 74.87v0c-8.708-23.45-19.053-48.373-36.126-80.655z" />
<glyph unicode="&#xe642;" d="M128 38.4h-96v-32h221l-125 145zM466.031 356.26c-42.586 42.586-96 32-96 32l-194.438-194.453 119.5-136.5 202.938 202.953c0 0 10.914 53.086-32 96zM259.334 157.068l-31.334 35.332 157 150.334c0 0 15-9 35-31l-160.666-154.666z" />
<glyph unicode="&#xe643;" d="M256 454.4c-123.512 0-224-100.487-224-224s100.488-224 224-224 224 100.488 224 224-100.488 224-224 224zM256 44.8c-102.338 0-185.6 83.262-185.6 185.6s83.263 185.6 185.6 185.6c0 0 0-134.4 2.827-134.685-0.954 0.053-1.858 0.285-2.827 0.285-28.276 0-51.2-22.923-51.2-51.2s22.923-51.2 51.2-51.2c28.278 0 51.2 22.923 51.2 51.2h128c1.722 13.512 6.4 12.893 6.4 0 0-102.338-83.262-185.6-185.6-185.6z" />
<glyph unicode="&#xe644;" d="M224 198.4h-128v64h128v128h64v-128h128v-64h-128v-128h-64v128z" />
<glyph unicode="&#xe645;" d="M448 262.4h-128v128h-96v-128h-128v-96h128v-128h96v128h128z" />
<glyph unicode="&#xe646;" d="M224 230.4l96 80v80l-192-160 192-160v80z" />
<glyph unicode="&#xe647;" d="M188.405 281.596l-39.6-39.595 82.563-82.565 25.115-28.392 203.836 269.115-44.801 33.6-162.545-216.731-64.569 64.569zM468.435 258.318l-51.285 51.285-19.912-26.549 47.967-47.967c2.584-2.584 2.584-6.789 0-9.375l-184.519-184.516c-1.601-1.606-3.432-1.942-4.685-1.942-1.252 0-3.082 0.336-4.688 1.942l-184.518 184.516c-2.584 2.586-2.584 6.791 0 9.375l184.518 184.518c1.606 1.606 3.435 1.942 4.688 1.942 1.254 0 3.084-0.336 4.685-1.942l40.269-40.269 19.912 26.551-36.949 36.949c-7.709 7.709-17.813 11.565-27.918 11.565s-20.209-3.856-27.918-11.565l-184.516-184.518c-15.422-15.418-15.422-40.418 0-55.836l184.516-184.518c7.709-7.709 17.813-11.565 27.918-11.565s20.209 3.856 27.918 11.565l184.517 184.518c15.42 15.418 15.42 40.418 0 55.836z" />
<glyph unicode="&#xe648;" d="M178.746 288.91l-45.256-45.254 94.358-94.36 28.703-32.447 232.955 307.558-51.199 38.401-185.768-247.692-73.793 73.793zM498.783 262.306l-58.611 58.611-22.756-30.342 54.818-54.819c2.953-2.953 2.953-7.76 0-10.715l-210.879-210.875c-1.832-1.834-3.924-2.219-5.356-2.219s-3.524 0.385-5.357 2.219l-210.877 210.875c-2.953 2.955-2.953 7.762 0 10.715l210.877 210.877c1.834 1.834 3.926 2.219 5.357 2.219s3.524-0.385 5.356-2.219l46.022-46.022 22.756 30.344-42.226 42.226c-8.81 8.81-20.358 13.217-31.906 13.217s-23.096-4.406-31.906-13.217l-210.877-210.877c-17.623-17.621-17.623-46.192 0-63.813l210.877-210.877c8.81-8.81 20.358-13.217 31.906-13.217s23.096 4.406 31.906 13.217l210.877 210.877c17.623 17.621 17.623 46.192 0 63.813z" />
<glyph unicode="&#xe649;" d="M208.35 358.4h-96.699c-8.645 0-15.65-7.006-15.65-15.649v-96.701c0-8.643 7.006-15.65 15.65-15.65h80.349v-31.469c0-2.625-2.672-64.531-48-64.531h-16v-32h16c60.75 0 78.891 62.438 80 96v144.351c0 8.643-7.006 15.649-15.65 15.649zM368.349 358.4h-96.699c-8.644 0-15.65-7.006-15.65-15.649v-96.701c0-8.643 7.006-15.65 15.65-15.65h80.35v-31.469c0-2.625-2.672-64.531-48-64.531h-16v-32h16c60.75 0 78.89 62.438 80 96v144.351c0 8.643-7.006 15.649-15.651 15.649z" />
<glyph unicode="&#xe64a;" d="M64 486.4c0 0 0-114.281 0-224s192-256 192-256 192 146.281 192 256 0 224 0 224h-384zM416 262.4c0-62.153-91.305-158.459-160-215.131-68.694 56.672-160 152.978-160 215.131v192h320v-192zM257.776 250.922l69.656-69.658 22.627 22.627-90.51 90.51-1.774-1.774-1.775 1.774-90.51-90.51 22.627-22.627zM257.776 378.922l69.656-69.658 22.627 22.627-90.51 90.51-1.774-1.774-1.775 1.774-90.51-90.51 22.627-22.627z" />
<glyph unicode="&#xe64b;" d="M96 262.4h224v-64h-224v64zM96 358.4h128v-64h-128v64zM96 166.4h320v-64h-320v64z" />
<glyph unicode="&#xe64c;" d="M96 262.4h224v-64h-224v64zM96 166.4h128v-64h-128v64zM96 358.4h320v-64h-320v64z" />
<glyph unicode="&#xe64d;" d="M416 390.4h-224c-38.4 0-96-34.981-96-88s57.6-88 96-88v-176h64v320h32v-320h64v320h64v32z" />
<glyph unicode="&#xe64e;" d="M391.228 270.745c0-59.887-30.955-116.244-86.59-152.269l61.119-104.076h-106.154l-106.945 186.662v-186.662h-80.737v432h140.643c104.994 0 178.664-73.158 178.664-175.654zM303.108 272.695c0 50.457-38.813 92.33-92.496 92.33h-59.959l108.528-167.86c30.586 21.121 43.928 44.612 43.928 75.529zM449.604 122.794c30.164 0 54.474-24.281 54.474-54.408s-24.31-53.617-54.474-53.617c-29.373 0-53.683 23.49-53.683 53.617s24.31 54.408 53.683 54.408z" />
<glyph unicode="&#xe64f;" d="M441.475 163.386c-21 12.792-46.35 23.159-68.7 32.305l-3.975 1.623c-5.375 3.847-23.95 20.936-35.15 35.027 2.525 5.072 7.9 16.914 11.55 28.133 2.025 0.899 3.275 1.623 3.375 1.673 19.45 12.217 21.45 41.647 22.75 61.135l0.375 5.347c0.85 8.769-2.675 15.215-5.625 18.837 18.75 88.892-22.975 116.623-48.125 124.743-11.15 4.497-31.95 12.916-58.125 14.19-24-1.275-44.75-9.695-54.475-13.692-26.55-8.618-68.3-36.328-50.4-125.020-2.075-3.847-5.575-10.27-4.8-18.964l0.425-5.628c1.325-19.436 3.3-48.778 22.925-61.096 0.050-0.025 1.225-0.722 3.175-1.596 3.582-10.956 8.783-22.417 11.478-27.717 0.042-0.088 0.028-0.185 0.072-0.272 0.012-0.025 0.126-0.231 0.145-0.27-11.375-14.011-29.925-31.161-35.296-35.005l-3.975-1.798c-22.35-9.144-47.7-19.86-68.7-32.627-30.75-18.663-46.925-60.457-48.050-122.891-0.15-9.469 3.425-19.805 10.075-26.55 6.675-6.771 15.575-13.275 25.1-13.275h69.225c11.65 0 21.075 13.958 21.075 25.6s-9.425 25.6-21.075 25.6h-62.025c1.675 25.6 13.731 68.123 29.906 77.967 18.175 11.017 44.206 18.979 65.132 27.524l9.438 1.974v0.050c0 5.444 24.906 27.142 38.406 39.274 11.325-8.339 25.946-14.914 43.994-14.914 18.618 0 33.704 6.819 45.382 15.774 10.819-11.922 32.336-34.147 45.019-39.694l4.775-1.584c20.925-8.543 44.625-17.385 62.8-28.426 16.225-9.818 25.925-52.342 27.6-77.942h-57.15c-11.65 0-21.075-13.958-21.075-25.6s9.425-25.6 21.075-25.6h64.325c9.55 0 18.475 6.529 25.15 13.3 6.65 6.771 10.2 18.497 10.025 27.966-1.075 62.359-17.25 103.458-48.050 122.12zM261.6 225.196c-22.1 0-35.5 25.734-35.625 25.983-5.575 11.094-10.475 25.009-10.925 28.583-0.775 7.944-5.975 14.739-13.45 17.588-1.675 0.65-3.4 1.075-5.15 1.275-2.425 6.87-3.45 21.936-3.825 27.332l-0.175 2.448c2.725 5.072 7.375 14.641 4.6 27.758-9.1 43.197-1.95 68.93 22.725 77 8.85 3.572 25.35 10.267 40.050 11.167 15.6-0.825 30.025-6.22 43.7-11.692 23.25-7.546 30.4-33.277 21.3-76.449-2.625-12.367 1.35-21.584 4.6-27.756l-0.175-2.319c-0.375-5.522-1.4-20.98-3.925-27.75-1.625-0.2-3.225-0.586-4.8-1.161-7.4-2.724-12.725-9.567-13.7-17.386-0.45-3.573-5.35-17.409-10.9-28.551-0.365-0.73-0.435-1.528-0.755-2.27-0.214-0.38-0.578-0.615-0.771-1.012-0.425-0.95-11.2-22.786-32.8-22.786zM370.781 102.4h-82.339l-25.45 75.319-25.447-75.319h-82.342l66.615-49.61-25.447-78.39 66.62 46.536 66.623-46.536-25.447 78.39z" />
<glyph unicode="&#xe650;" d="M448 58.876c0-11.308-9.168-20.476-20.476-20.476h-339.524c-13.255 0-24 10.745-24 24v332.476c0 15.138 12.386 27.524 27.523 27.524h228.476l128-96v-267.524zM416 70.4v241.333l-96 75.143v-104c0-11.308-9.168-20.476-20.476-20.476h-147.524c-13.255 0-24 10.745-24 24v104h-32v-320h32v100.476c0 15.137 12.386 27.524 27.524 27.524h204.476c13.255 0 24-10.745 24-24v-104h32zM352 70.4v96h-192v-96h192zM288 382.4c0 4.418-3.582 8-8 8h-48c-4.418 0-8-3.582-8-8v-80c0-4.418 3.582-8 8-8h48c4.418 0 8 3.582 8 8v80z" />
<glyph unicode="&#xe651;" d="M330.666 422.4h-242.1c-13.568 0-24.567-10.999-24.567-24.567v-334.867c0-13.567 10.998-24.567 24.567-24.567h334.867c13.568 0 24.567 10.999 24.567 24.567v263.434l-117.334 96zM320 70.4h-192v96h192v-96zM320 294.4v-32h-192v128h96v-96h64v96h32v-96z" />
<glyph unicode="&#xe652;" d="M448 58.876c0-11.308-9.168-20.476-20.476-20.476h-339.524c-13.255 0-24 10.745-24 24v332.476c0 15.138 12.386 27.524 27.523 27.524h228.476l128-96v-267.524zM416 70.4v241.333l-96 75.143v-104c0-11.308-9.168-20.476-20.476-20.476h-147.524c-13.255 0-24 10.745-24 24v104h-32v-320h320zM288 382.4c0 4.418-3.582 8-8 8h-48c-4.418 0-8-3.582-8-8v-80c0-4.418 3.582-8 8-8h48c4.418 0 8 3.582 8 8v80z" />
<glyph unicode="&#xe653;" d="M330.667 422.4h-241.726c-13.775 0-24.942-11.167-24.942-24.942v-334.117c0-13.774 11.167-24.942 24.942-24.942h334.117c13.774 0 24.942 11.167 24.942 24.942v263.059l-117.333 96zM320 294.4v-32h-192v128h96v-96h64v96h32v-96z" />
<glyph unicode="&#xe654;" d="M341.332 454.4h-284.766c-13.568 0-24.567-10.999-24.567-24.566v-398.867c0-13.567 10.999-24.567 24.567-24.567h398.867c13.568 0 24.567 10.999 24.567 24.567v311.434l-138.668 112zM320 326.4v-32h-224v128h128v-96h64v96h32v-96z" />
<glyph unicode="&#xe655;" d="M341.332 454.4h-284.766c-13.568 0-24.567-10.999-24.567-24.566v-398.867c0-13.567 10.999-24.567 24.567-24.567h398.867c13.568 0 24.567 10.999 24.567 24.567v311.434l-138.668 112zM320 38.4h-224v128h224v-128zM320 326.4v-32h-224v128h128v-96h64v96h32v-96z" />
<glyph unicode="&#xe656;" d="M77.449-22.583c-12.15 0-23.566 4.72-32.136 13.308l-28.983 28.977c-8.591 8.57-13.331 19.982-13.331 32.111 0 12.148 4.74 23.56 13.331 32.13l247.555 240.597c-0.425 5.3-1.161 10.427-1.858 15.437-3.522 25.495-7.526 54.375 25.385 87.298 16.659 16.675 61.274 62.384 130.791 58.941 7.004-0.252 13.253-4.72 15.865-11.355 2.341-5.958 1.335-12.612-2.515-17.545l-55.857-84.822 22.482-22.477 84.762 55.904c3.096 2.457 6.926 3.772 10.951 3.772 9.654 0 17.548-7.486 17.974-17.061 2.922-68.922-42.043-113.877-58.972-130.803-19.173-19.17-38.192-27.739-61.642-27.739h-0.019c-8.745 0-17.239 1.18-25.462 2.302-5.050 0.696-10.197 1.431-15.536 1.857l-240.512-247.368c-8.726-8.743-20.141-13.463-32.272-13.463zM394.694 455.401c-43.513-6.403-72.883-35.747-86.272-49.133-22.462-22.478-20.276-38.281-16.949-62.21 1.084-7.873 2.225-16.016 2.496-24.992l0.193-6.538-256.977-249.747c-2.825-2.824-4.469-6.771-4.469-10.968 0-4.178 1.645-8.125 4.624-11.103l28.983-28.977c5.959-5.938 16.252-5.977 22.23 0l249.644 256.749 6.52-0.174c9.016-0.271 17.181-1.393 25.094-2.476 7.565-1.044 14.704-2.031 21.418-2.031 11.241 0 23.933 2.321 40.649 19.034 13.563 13.56 42.778 42.769 49.163 86.234l-86.736-57.199-56.767 56.755 57.154 86.776zM495.574 68.298l-172.205 175.626-80.842-80.826 175.11-172.721c10.651-10.651 24.615-15.978 38.579-15.978s27.923 5.327 38.579 15.978l0.779 0.777c21.307 21.305 21.307 55.841 0 77.143zM214.685 245.657l27.841 25.208-148.815 146.635-3.303 20.988-51.436 47.357-38.971-38.959 47.368-51.43 16.968-0.822z" />
<glyph unicode="&#xe657;" d="M451.81 354.779c11.942 0.658 23.896 1.168 35.82 2.063 3.592 0.269 5.63-0.644 7.011-4.023 5.38-13.16 10.902-26.264 16.455-39.353 1.508-3.555 0.971-5.988-2.135-8.737-17.777-15.736-35.27-31.792-52.99-47.593-2.678-2.388-3.425-4.66-3.296-8.296 0.428-12.127 0.453-24.286 0.038-36.413-0.13-3.791 0.503-6.272 3.374-8.827 17.737-15.781 35.24-31.827 52.998-47.584 2.875-2.551 3.675-4.73 2.166-8.252-5.675-13.243-11.233-26.538-16.7-39.868-1.291-3.148-3.216-4.063-6.565-3.865-24.258 1.432-48.524 2.752-72.799 3.851-2.049 0.093-4.666-1.181-6.197-2.666-9.255-8.974-18.382-18.091-27.272-27.425-1.68-1.764-3.067-4.762-2.966-7.122 1.048-24.277 2.512-48.537 3.56-72.815 0.079-1.832-1.692-4.76-3.348-5.491-13.523-5.976-27.245-11.5-40.853-17.286-3.143-1.336-5.080-0.478-7.286 1.993-15.81 17.714-31.865 35.211-47.602 52.99-2.877 3.25-5.611 3.856-9.798 3.673-11.554-0.504-23.165-0.576-34.709 0.024-4.53 0.236-7.236-0.825-10.163-4.128-15.499-17.481-31.321-34.676-46.846-52.134-2.506-2.818-4.688-3.779-8.223-2.269-13.249 5.662-26.534 11.244-39.875 16.682-3.458 1.409-4.118 3.552-3.909 7.070 1.44 24.259 2.715 48.529 3.805 72.805 0.084 1.868-1.224 4.233-2.611 5.663-9.109 9.385-18.322 18.675-27.754 27.733-1.628 1.563-4.504 2.723-6.739 2.623-24.277-1.083-48.538-2.533-72.815-3.591-1.857-0.081-4.837 1.603-5.556 3.233-6.040 13.699-11.611 27.605-17.479 41.381-1.308 3.072-0.156 4.756 2.049 6.729 17.834 15.961 35.523 32.082 53.394 48 2.831 2.522 3.58 4.948 3.438 8.777-0.447 12.125-0.388 24.285-0.004 36.415 0.112 3.556-0.432 5.879-3.17 8.314-17.881 15.907-35.523 32.085-53.417 47.978-2.731 2.425-3.425 4.538-2.054 7.78 5.614 13.267 11.204 26.546 16.646 39.885 1.361 3.338 3.304 4.373 6.939 4.156 24.258-1.451 48.528-2.719 72.803-3.826 1.907-0.087 4.355 1.026 5.763 2.394 9.516 9.244 18.888 18.641 28.114 28.173 1.366 1.411 2.511 3.837 2.423 5.733-1.125 24.465-2.582 48.915-3.626 73.382-0.084 1.976 1.765 5.129 3.528 5.915 13.328 5.945 26.867 11.42 40.325 17.075 3.16 1.328 5.322 0.742 7.776-2.022 15.507-17.475 31.368-34.636 46.84-52.141 3.077-3.481 5.892-4.595 10.613-4.366 11.736 0.568 23.534 0.414 35.278-0.099 3.879-0.17 6.257 0.733 8.752 3.53 15.808 17.716 31.846 35.228 47.612 52.981 2.394 2.696 4.486 3.532 7.738 2.158 13.623-5.753 27.331-11.309 40.844-17.306 1.613-0.716 3.229-3.731 3.147-5.606-1.065-24.277-2.519-48.538-3.596-72.814-0.099-2.215 1.16-5.048 2.733-6.687 8.927-9.299 18.034-18.436 27.356-27.337 1.742-1.663 4.767-2.865 7.164-2.809 11.954 0.285 23.897 1.060 35.844 1.664 0 0 0.002-0.050 0.003-0.075zM256.026 369.363c-76.385-0.084-138.993-62.79-138.864-139.083 0.128-76.177 61.942-138.028 138.649-138.732 75.739-0.695 138.802 62.207 139.153 138.801 0.349 76.001-62.714 139.097-138.938 139.015zM256.272 294.943c35.416-0.149 64.274-29.137 64.2-64.489-0.075-35.64-29.146-64.45-64.894-64.312-35.251 0.136-64.215 29.445-63.976 64.737 0.239 35.401 29.323 64.212 64.671 64.063z" />
<glyph unicode="&#xe658;" d="M91.428 468.115h36.572v-128h-36.572v128zM91.428 138.971h36.572v-128h-36.572v128zM146.286 292.425c0 16.239-13.165 29.404-29.404 29.404h-14.336c-16.239 0-29.403-13.165-29.403-29.404v-105.765c0-16.239 13.165-29.404 29.404-29.404h14.336c16.239 0 29.403 13.164 29.403 29.404v105.764zM384 468.115h36.572v-201.143h-36.572v201.143zM384 65.828h36.572v-54.857h-36.572v54.857zM438.857 219.977c0 15.856-12.861 28.709-28.727 28.709h-15.689c-15.865 0-28.727-12.853-28.727-28.709v-107.154c0-15.856 12.861-28.709 28.727-28.709h15.689c15.865 0 28.727 12.853 28.727 28.709v107.154zM237.714 468.115h36.572v-36.572h-36.572v36.572zM237.714 230.4h36.572v-219.429h-36.572v219.429zM292.572 384.933c0 15.643-12.682 28.325-28.325 28.325h-16.494c-15.643 0-28.325-12.681-28.325-28.325v-107.923c0-15.643 12.681-28.324 28.325-28.324h16.494c15.643 0 28.325 12.681 28.325 28.324v107.923z" />
<glyph unicode="&#xe659;" d="M213.435 304.103c-0.958 0.76-2.071 1.205-3.258 1.205-1.527 0-2.935-0.718-4.042-1.915-1.421-1.537-2.341-3.861-2.369-6.454l-0.012-0.865-2.613-84.735 1.333-31.574 1.293-30.726c0.046-4.548 2.918-8.303 6.409-8.303 3.479 0 6.351 3.755 6.399 8.368v-0.072l2.851 62.309-2.851 85.61c-0.031 3.031-1.292 5.688-3.142 7.152zM176.865 284.052c-0.958 0.76-2.071 1.205-3.258 1.205-1.528 0-2.936-0.719-4.042-1.915-1.421-1.535-2.34-3.861-2.367-6.454l-0.013-0.865-2.613-64.683 1.333-31.574 1.294-30.726c0.046-4.548 2.917-8.303 6.409-8.303 3.477 0 6.351 3.755 6.399 8.368v-0.072l2.851 62.309-2.851 65.558c-0.032 3.033-1.293 5.688-3.142 7.152zM141.004 253.362c-0.958 0.761-2.071 1.206-3.258 1.206-1.528 0-2.936-0.719-4.042-1.915-1.421-1.536-2.34-3.862-2.367-6.456l-0.013-0.864-2.613-36.469 1.333-31.574 1.294-30.728c0.046-4.547 2.917-8.301 6.409-8.301 3.477 0 6.351 3.755 6.399 8.368v-0.074l2.851 62.31-2.851 37.344c-0.032 3.031-1.293 5.688-3.142 7.152zM103.722 265.073c-0.959 0.76-2.072 1.206-3.258 1.206-1.528 0-2.936-0.72-4.043-1.917-1.421-1.535-2.341-3.859-2.367-6.454l-0.013-0.864-2.612-27.419 1.332-49.859 1.294-30.726c0.046-4.548 2.918-8.303 6.409-8.303 3.478 0 6.35 3.755 6.4 8.368v-0.072l2.85 80.595-2.85 28.292c-0.032 3.033-1.293 5.688-3.141 7.153zM67.15 229.195c-0.959 0.76-2.072 1.206-3.258 1.206-1.528 0-2.937-0.718-4.042-1.915-1.421-1.537-2.34-3.861-2.367-6.456l-0.014-0.864-2.612-40.655 1.333-12.514 1.294-4.289c0.046-4.548 2.917-8.303 6.408-8.303 3.478 0 6.35 3.755 6.4 8.368v-0.072l2.85 16.813-2.85 41.53c-0.032 3.032-1.293 5.688-3.141 7.152zM407.428 238.171c-6.813 0-13.313-1.381-19.231-3.861-3.957 44.806-40.89 86.375-86.726 86.375-27.191 0-46.13-8.624-55.787-12.361-3.754-1.454-4.748-2.944-4.785-5.846v-157.797c0.040-3.043 2.4-5.408 5.37-5.705 0.127-0.012 161.158 0 161.158 0 27.457 0 49.714 22.012 49.714 49.473 0 27.462-22.258 49.721-49.714 49.721z" />
<glyph unicode="&#xe65a;" d="M32 390.4h64v-320h-64v320zM416 390.4h64v-320h-64v320zM224 134.4v192l-96-96zM288 134.4l96 96-96 96z" />
<glyph unicode="&#xe65b;" d="M384 230.4c0-17.673-14.327-32-32-32s-32 14.327-32 32c0 17.673 14.327 32 32 32s32-14.327 32-32zM347.789 410.611c-15.188 0-29.828-2.445-43.789-6.679-13.961 4.234-28.601 6.679-43.789 6.679-16.705 0-32.813-2.779-48-7.867-15.188 5.088-31.295 7.867-48 7.867-90.692 0-164.211-80.683-164.211-180.211s73.519-180.211 164.211-180.211c16.705 0 32.813 2.779 48 7.867 15.188-5.088 31.295-7.867 48-7.867 15.188 0 29.828 2.445 43.789 6.68 13.961-4.235 28.601-6.68 43.789-6.68 90.692 0 164.211 80.683 164.211 180.211s-73.519 180.211-164.211 180.211zM164.211 83.712c-72.063 0-130.688 65.805-130.688 146.688 0 80.885 58.625 146.687 130.688 146.687 0.254 0 0.488-0.082 0.74-0.084-41.685-32.682-68.951-86.096-68.951-146.604s27.266-113.922 68.951-146.604c-0.252-0.002-0.487-0.084-0.74-0.084zM212.211 94.273c-48.326 21.551-82.688 74.301-82.688 136.127s34.362 114.576 82.688 136.127c6.357-2.836 12.297-6.448 18.121-10.319-28.893-32.483-46.754-76.832-46.754-125.809s17.862-93.326 46.754-125.809c-5.824-3.871-11.763-7.483-18.121-10.318zM347.789 83.712c-53.635 0-99.733 36.515-119.85 88.508-0.109 0.277-0.278 0.514-0.385 0.793-2.941 7.735-5.065 15.916-6.795 24.258-0.248 1.185-0.734 2.254-0.955 3.451-1.762 9.59-2.703 19.512-2.703 29.678s0.941 20.088 2.703 29.677c0.222 1.203 0.715 2.282 0.963 3.475 1.728 8.334 3.847 16.508 6.787 24.232 0.133 0.344 0.34 0.639 0.475 0.981 20.154 51.889 66.192 88.322 119.76 88.322 72.063 0 130.688-65.802 130.688-146.687 0-80.883-58.625-146.688-130.688-146.688z" />
<glyph unicode="&#xe65c;" d="M32 38.4h448v-32h-448v32zM32 166.4h64v-96h-64v96zM128 262.4h64v-192h-64v192zM224 390.4h64v-320h-64v320zM320 326.4h64v-256h-64v256zM416 422.4h64v-352h-64v352z" />
<glyph unicode="&#xe65d;" d="M387.745 393.717l50.728-38.459-212.204-285.909-152.71 154.306 44.846 45.314 100.99-102.048 168.351 226.796zM384.081 419.393l-166.67-224.53-99.007 100.045-70.516-71.253 180.364-182.249 235.636 317.48-79.807 60.507z" />
<glyph unicode="&#xe65e;" d="M397.438 401.775l-161.641-222.719-96.531 99.781-54.391-56.219 159.313-164.625 214.844 296.031z" />
<glyph unicode="&#xe65f;" d="M288 70.4v32h-128v129.614c54.209 7.824 96 54.011 96 110.386 0 61.856-50.144 112-112 112s-112-50.144-112-112c0-56.375 41.791-102.562 96-110.386v-161.614h160zM512 173.511l-24.889 24.889-87.111-87.111-87.111 87.111-24.889-24.889 87.111-87.111-87.111-87.111 24.889-24.889 87.111 87.111 87.111-87.111 24.889 24.889-87.111 87.111z" />
<glyph unicode="&#xe660;" d="M288 70.4v32h-160v161.614c54.209 7.824 96 54.011 96 110.386 0 61.856-50.144 112-112 112s-112-50.144-112-112c0-56.375 41.791-102.563 96-110.386v-193.614h192zM512 173.511l-24.889 24.889-87.111-87.111-87.111 87.111-24.889-24.889 87.111-87.111-87.111-87.111 24.889-24.889 87.111 87.111 87.111-87.111 24.889 24.889-87.111 87.111z" />
<glyph unicode="&#xe661;" d="M448 230.4h-122.836c-12.494 10.637-28.416 19.791-48.111 27.888-42.142 17.926-60.356 30.222-60.356 56.821 0 19.968 15.888 41.478 52.39 41.478 29.492 0 51.478-9.713 62.719-16.383l14.022 50.691c-16.385 9.213-41.647 17.426-75.787 17.426-68.358 0-111.375-43.022-111.375-99.342 0-34.572 16.379-59.58 43.699-78.58h-138.365v-32h202.158c23.765-12.713 33.832-26.572 33.832-47.123 0-28.139-20.613-47.065-57.574-47.065-29.492 0-57.574 10.213-76.281 22.010l-12.613-52.235c17.299-11.254 51.935-21.51 85.16-21.51 81.426 0 119.797 48.149 119.797 103.426 0 16.144-3.125 30.058-8.813 42.496h98.334v32z" />
<glyph unicode="&#xe662;" d="M25.6 460.8v-281.6h435.2v281.6h-435.2zM232.512 326.807l-104.512 82.793h230.4l-108.35-82.516c-5.1-4.080-12.314-4.194-17.539-0.277zM76.8 230.4v173.292l164.591-126.579 168.209 126.579v-173.292h-332.8zM460.8 0h-128c0 0 28.654 76.8 64 76.8s64-76.8 64-76.8zM307.2 0h-128c0 0 28.654 76.8 64 76.8s64-76.8 64-76.8zM153.6 0h-128c0 0 28.654 76.8 64 76.8s64-76.8 64-76.8zM128 115.2c0-21.207-17.192-38.4-38.4-38.4s-38.4 17.192-38.4 38.4c0 21.207 17.193 38.4 38.4 38.4s38.4-17.192 38.4-38.4zM281.6 115.2c0-21.207-17.192-38.4-38.4-38.4s-38.4 17.192-38.4 38.4c0 21.207 17.192 38.4 38.4 38.4s38.4-17.192 38.4-38.4zM435.2 115.2c0-21.207-17.192-38.4-38.4-38.4s-38.4 17.192-38.4 38.4c0 21.207 17.192 38.4 38.4 38.4s38.4-17.192 38.4-38.4z" />
<glyph unicode="&#xe663;" d="M253.334 390.4c-195.334 0-253.334-101.445-253.334-162.278 0 0 1-157.722 128-157.722 63.242 0 128 64 128 64s62.092-64 128-64c120 0 128 157.739 128 157.739 0 60.934-42 162.261-258.666 162.261zM146.946 166.4c-42.556 0-77.055 48-77.055 48s34.498 48 77.055 48 77.054-48 77.054-48-34.498-48-77.055-48zM370.945 166.4c-42.556 0-77.055 48-77.055 48s34.498 48 77.055 48 77.055-48 77.055-48-34.498-48-77.055-48z" />
<glyph unicode="&#xe664;" d="M384 422.4h-256l-96-128 224-256 224 256-96 128zM254 86.995l-181.845 208.949 71.845 94.455h216l74.846-94.455-180.845-208.949zM186.877 182.346c14.135-7.243 35.85-14.486 58.266-14.486 24.129 0 36.888 9.993 36.888 25.182 0 14.486-11.033 22.74-38.952 32.761-38.614 13.447-63.782 34.811-63.782 68.61 0 39.639 33.099 69.987 87.911 69.987 26.206 0 45.507-5.531 59.305-11.734l-11.721-42.418c-9.32 4.491-25.869 11.060-48.622 11.060-22.754 0-33.786-10.359-33.786-22.43 0-14.822 13.109-21.364 43.092-32.761 41.029-15.16 60.344-36.523 60.344-69.285 0-38.965-29.997-72.063-93.779-72.063-26.544 0-52.75 6.906-65.861 14.149l10.697 43.428z" />
<glyph unicode="&#xe665;" d="M204.8 102.4v25.6h-25.6v-25.6h25.6zM384 204.8h-128v-128h128v128zM179.2 102.4h-51.2v25.6h51.2v25.6h-51.2v25.6h51.2v25.6h-76.8v-128h76.8v25.6zM179.2 384h-51.2v-51.2h51.2v51.2zM384 384h-128v-128h128v128zM358.4 281.6h-76.8v76.8h76.8v-76.8zM204.8 153.6v25.6h-25.6v-25.6h25.6zM128 281.6h51.2v-25.6h25.6v76.8h-25.6v-25.6h-51.2v25.6h-25.6v-76.8h25.6v25.6zM0 486.4v-512h486.4v512h-486.4zM435.2 25.6h-384v409.6h384v-409.6z" />
<glyph unicode="&#xe666;" d="M211.304 404.087l-10.161 9.17-132.241-0.134c-13.87-1.67-13.87-1.67-13.451-76.79l-0.308-87.531c-1.16-8.982 1.723-15.938 7.48-22.518l192.083-178.929 146.973 146.977-190.375 209.755zM151.52 279.998c-20.197 0-36.572 16.374-36.572 36.574s16.374 36.569 36.572 36.569c20.2 0 36.571-16.368 36.571-36.569s-16.371-36.574-36.572-36.574zM321.165 372.793c-2.313 2.317-4.455 3.357-7.784 2.919-5.431-0.714-23.091-3.357-33.431-4.915l159.514-177.473-127.982-127.978 37.866-29.357 144.398 162.768c-0.353 0.375-117.661 118.987-172.581 174.036z" />
<glyph unicode="&#xe667;" d="M301.916 441.115c-2.818 2.823-5.428 4.091-9.476 3.558-9.5-1.25-50.154-7.415-50.154-7.415l-19.089 19.482c-2.331 3.125-8.518 11.375-20.348 11.375l-185.759-0.161c-16.884-2.036-16.884-2.036-16.375-93.482l-0.375-106.553c-1.411-10.928 2.099-19.398 9.107-27.41l246.553-229.536 46.731 49.133 33.492-28.988 175.777 198.141c-0.432 0.461-143.232 144.845-210.083 211.857zM252.191 54.4l-215.619 212.572v164.571h159.982c0.456-0.518 0.938-1.035 1.438-1.535 70.384-70.572 140.866-141.018 211.393-211.518l-157.193-164.089zM146.286 358.365c0-20.198-16.374-36.572-36.572-36.572s-36.572 16.373-36.572 36.572c0 20.198 16.374 36.571 36.572 36.571s36.572-16.373 36.572-36.571z" />
<glyph unicode="&#xe668;" d="M102.4 281.6h179.2v-51.2h-179.2v51.2zM128 204.8h102.4v-128h-102.4v128zM256 204.8h76.8v-76.8h-76.8v76.8zM462.439 460.8h-361.678c-13.233 0-23.961-10.727-23.961-23.959v-27.24h358.4v-358.4h27.239c13.233 0 23.961 10.728 23.961 23.961v361.68c0 13.233-10.728 23.96-23.961 23.96zM25.6 360.041v-361.68c0-13.233 10.728-23.961 23.961-23.961h336.078c13.233 0 23.961 10.728 23.961 23.961v385.639h-360.039c-13.233 0-23.961-10.726-23.961-23.959zM76.8 332.8h281.6v-307.2h-281.6v307.2z" />
<glyph unicode="&#xe669;" d="M91.478 170.637c-1.508-0.041-2.978-0.226-4.497-0.226-18.91 0-36.994 3.364-53.894 9.255 26.892-89.186 109.719-154.365 207.563-154.365 2.145 0 4.225 0.26 6.355 0.322-12.641 15.422-22.442 33.224-28.814 52.584-56.001 7.646-103.070 43.308-126.713 92.432zM233.542 407.39c2.375 0.101 4.708 0.36 7.108 0.36 74.233 0 137.213-49.092 158.187-116.515 20.264-3.113 39.296-9.853 56.399-19.673-14.44 105.645-105.033 187.389-214.586 187.389-14.611 0-28.875-1.497-42.683-4.265 14.552-13.423 26.637-29.403 35.575-47.293zM177.238 269.4h-38.65l-15.362 39.975h-70.35l-14.525-39.975h-37.7l68.55 176h37.575l70.462-176zM111.813 339.025l-24.25 65.3-23.763-65.3h48.013zM366.375-1.725c1.25 9.75 1.75 18.25 1.75 35.25v45c-18.75-11-39.25-19.25-72-29-6.75 17.5-10.75 25-20.5 38.5 26.5 5.5 52.5 13.75 75 23.75 25.5 11.25 42.25 22.5 63 41.75l-80.825 0.075c-21.75 0-14.6 1-25.6 0l-6.075 38.675c11.5-1.5 21.5-2 36.5-2h29.75v13.75c0 11.25-0.25 14.5-1.25 23.25l43.475 3.125c-1-7.25 0-16.35 0-25.6l1.525-14.275h39.75c7.25 0 11.25 0.75 16 2.75l19.5-22.75c-4-2.75-4-2.75-11.5-11.5-12.75-14.25-15.5-17-46-43.25 31.75-11.25 55.75-23 81-39.25l-24.75-36.75c-20.75 15.75-46.275 24.275-75.525 37.025v-51.2c0-19.75-1.5-13.35 0-25.6l-43.225-1.725z" />
<glyph unicode="&#xe66a;" d="M192 262.4h32v-128h-32v128zM256 262.4h32v-128h-32v128zM320 262.4h32v-128h-32v128zM448 332.238c0 37.813-41.086 58.162-77.976 58.162h-35.125c0 0-18.594 32-41.438 32h-50.75c-22.813 0-41.375-32-41.375-32h-42.5c-38.703 0-62.836-23.349-62.836-58.162v-37.838h32v-208.568c0-29.219 15.351-47.432 43.086-47.432h197.375c28.156 0 47.539 18.213 47.539 47.432v208.569h32v37.838zM384 85.832c0-12.938-6.68-15.432-15.539-15.432h-197.375c-7.594 0-11.086 1.151-11.086 15.432v208.569h224v-208.569zM416 326.4h-288v5.838c0 22.813 18.617 26.162 30.836 26.162h211.188c17.781 0 45.976-8.287 45.976-26.162v-5.838z" />
<glyph unicode="&#xe66b;" d="M446.598 326.4c-2.274 32-19.092 64-58.983 64h-68.557c0 0 5.885 32-20.765 32h-59.209c-26.613 0-16.025-32-16.025-32h-49.828c-41.627 0-72.594-32-77.231-64h350.598zM128 102.457c0-32-0.942-64.057 31.059-64.057h224c32 0 32.942 32.057 32.942 64.057v191.944h-288v-191.944zM320 262.4h32v-128h-32v128zM256 262.4h32v-128h-32v128zM192 262.4h32v-128h-32v128z" />
<glyph unicode="&#xe66c;" d="M192 262.4h32v-160h-32v160zM256 262.4h32v-160h-32v160zM320 262.4h32v-160h-32v160zM448 364.238c0 37.813-41.086 58.162-77.976 58.162h-35.125c0 0-18.594 32-41.438 32h-50.75c-22.813 0-41.375-32-41.375-32h-42.5c-38.703 0-62.836-23.349-62.836-58.162v-37.838h32v-272.568c0-29.219 15.351-47.432 43.086-47.432h197.375c28.156 0 47.539 18.213 47.539 47.432v272.568h32v37.838zM384 53.832c0-12.938-6.68-15.432-15.539-15.432h-197.375c-7.594 0-11.086 1.151-11.086 15.432v272.568h224v-272.568zM416 358.4h-288v5.838c0 22.813 18.617 26.162 30.836 26.162h211.188c17.781 0 45.976-8.287 45.976-26.162v-5.838z" />
<glyph unicode="&#xe66d;" d="M446.598 358.4c-2.274 32-19.092 64-58.983 64h-68.557c0 0 5.885 32-20.765 32h-59.209c-26.613 0-16.025-32-16.025-32h-49.828c-41.627 0-72.594-32-77.231-64h350.598zM128 70.457c0-32-0.942-64.057 31.059-64.057h224c32 0 32.942 32.057 32.942 64.057v255.944h-288v-255.944zM320 262.4h32v-160h-32v160zM256 262.4h32v-160h-32v160zM192 262.4h32v-160h-32v160z" />
<glyph unicode="&#xe66e;" d="M256-17.382c-122.5 0-222.156 99.688-222.156 222.188 0 70.531 32.391 135.281 88.859 177.719 13.313 9.938 32.234 7.282 42.219-6 10-13.344 7.313-32.25-6-42.25-41.156-30.906-64.766-78.094-64.766-129.469 0-89.25 72.609-161.875 161.844-161.875 89.25 0 161.844 72.625 161.844 161.875 0 51.375-23.594 98.563-64.719 129.5-13.313 10-16 28.906-5.969 42.218 9.969 13.313 28.906 16 42.219 5.969 56.438-42.406 88.781-107.188 88.781-177.688 0-122.5-99.656-222.188-222.156-222.188zM256.32 198.4h-0.64c-17.496 0-31.68 14.183-31.68 31.68v192.641c0 17.496 14.184 31.68 31.68 31.68h0.64c17.497 0 31.68-14.184 31.68-31.68v-192.641c0-17.496-14.183-31.68-31.68-31.68z" />
<glyph unicode="&#xe66f;" d="M57.523 454.4h96v-96h-96v96zM57.523 294.4h96v-96h-96v96zM57.523 134.4h96v-96h-96v96zM217.524 390.4h224v-32h-224v32zM217.524 230.4h224v-32h-224v32zM217.524 70.4h224v-32h-224v32z" />
<glyph unicode="&#xe670;" d="M405.269 204.892c-8.914-72.859-72.68-129.776-150.679-129.776-84.074 0-152.472 65.883-152.472 146.865 0 68.139 48.657 125.067 114.099 141.574 4.274 14.857 10.727 28.788 19.679 41.095-96.478-9.052-171.895-87.362-171.895-182.67 0-101.389 85.33-183.581 190.59-183.581s190.59 82.192 190.59 183.581c0 2.76-0.305 5.444-0.43 8.174-11.553-10.408-24.767-19.105-39.481-25.263zM448 395.495l-27.935 26.905-62.851-60.539-62.851 60.539-27.935-26.905 62.851-60.541-62.851-60.539 27.935-26.907 62.851 60.539 62.851-60.539 27.935 26.907-62.851 60.539z" />
<glyph unicode="&#xe671;" d="M404.443 195.038c-9.728-82.551-79.32-147.039-164.444-147.039-91.754 0-166.4 74.647-166.4 166.4 0 77.203 53.102 141.703 124.522 160.406 4.664 16.834 11.707 32.617 21.476 46.562-105.291-10.258-187.597-98.983-187.597-206.969 0-114.875 93.125-208 208-208s208 93.125 208 208c0 3.127-0.332 6.168-0.469 9.262-12.61-11.793-27.029-21.647-43.088-28.623zM451.078 410.994l-30.486 30.484-68.592-68.592-68.592 68.592-30.487-30.484 68.592-68.594-68.592-68.592 30.486-30.486 68.592 68.592 68.592-68.592 30.486 30.487-68.592 68.592z" />
<glyph unicode="&#xe672;" d="M320 230.4h32v-128h-32v128zM384 53.832c0-12.938-6.68-15.432-15.539-15.432h-197.375c-7.594 0-11.086 1.151-11.086 15.432v208.569h-32v-208.569c0-29.219 15.351-47.432 43.086-47.432h197.375c28.156 0 47.539 18.213 47.539 47.432v208.569h-32v-208.569zM256 230.4h32v-128h-32v128zM192 230.4h32v-128h-32v128zM175.333 358.4h48.667v-96h96v96h54.666l-102.666 128zM96 294.4h96v-32h-96v32zM352 294.4h96v-32h-96v32z" />
<glyph unicode="&#xe673;" d="M160 134.4h64v-128h64v128h64l-96.006 128zM383.438 357.394c-28.103 0-55.82-9.933-57.744-12.047-29.606 56.881-87.694 93.053-152.859 93.053-95.295 0-172.834-77.539-172.834-172.834 0-65.99 38.447-127.158 97.951-155.805 2.992-1.44 6.166-2.125 9.297-2.125 7.984 0 15.66 4.474 19.365 12.164 5.145 10.682 0.656 23.515-10.039 28.66-44.725 21.531-73.625 67.502-73.625 117.106 0 71.625 58.26 129.885 129.885 129.885 53.24 0 100.524-31.891 120.475-81.244 4.418-10.988 16.945-16.303 27.949-11.869 4.658 1.883 34.742 12.108 62.18 12.108 47.881 0 86.836-40.098 86.836-89.381 0-38.785-24.027-72.926-59.791-84.963-10.963-3.692-16.94-15.815-13.353-27.082 2.881-9.060 11.043-14.807 19.832-14.807 2.147 0 4.332 0.336 6.478 1.063 52.973 17.826 88.56 68.383 88.56 125.789 0 72.967-57.672 132.33-128.563 132.33z" />
<glyph unicode="&#xe674;" d="M512 232.014c0 140.187-114.836 254.385-256 254.385s-256-113.724-256-253.91c0-65.847 25.253-126.846 70.882-174.277 18.718-18.212 89.919-83.813 185.118-83.813 108 0 177.6 72.8 187.043 84.767 44.397 47.187 68.957 107.93 68.957 172.848zM256 453.84c123.265 0 223.531-99.572 223.531-221.983 0-54.067-19.426-104.988-54.836-145.357-19.579 11.796-43.182 21.376-64.007 29.844l-2.81 1.085c-4.631 3.178-22.218 19.171-32.755 32.295 2.341 4.676 7.31 15.527 10.692 25.862 1.171 0.491 2.238 1.007 3.122 1.55 17.977 11.213 19.798 38.185 20.995 56.039l0.364 5.012c0.755 8.009-2.471 13.925-5.177 17.258 17.275 81.616-21.255 107.064-44.462 114.48-15.272 6.175-32.104 12.039-53.711 13.073-22.218-1.188-41.366-8.913-50.355-12.582-24.507-7.906-63.050-33.38-46.517-114.764-1.951-3.54-5.19-9.456-4.436-17.387l0.364-5.089c1.21-17.853 3.031-44.826 20.865-55.935 0.911-0.594 2.030-1.137 3.252-1.654 3.382-10.308 8.351-21.159 10.667-25.759 0.026-0.051 0.065-0.129 0.117-0.207-10.953-13.409-29.138-29.866-31.831-31.701l-3.981-1.627c-20.787-8.449-44.358-18.034-63.883-29.815-0.788-0.473-1.522-1.142-2.296-1.659-36.457 40.659-56.449 92.185-56.449 147.038 0 122.411 100.28 221.983 223.531 221.983zM225.678 167.034c-5.151 10.231-9.678 23.020-10.095 26.25-0.742 7.622-5.931 14.055-13.243 16.483-1.301 0.413-2.627 0.697-3.941 0.853-0.369 1.038-0.652 2.5-0.953 3.869-0.65 7.263 1.167 16.949 0.894 21.063l6.458 3.101c0 0 0 0.026 0 0.052 0 4.34 0.149 12.453-2.322 24.053-3.867 18.226-6.041 33.049-4.825 44.836 3.026 13.531 10.202 22.49 22.548 26.498 8.182 3.307 23.258 9.456 36.878 10.257 15.701-0.827 30.803-6.95 40.299-10.722 21.464-6.924 28.065-30.538 19.662-70.171-2.445-11.368 1.233-19.842 4.224-25.526l-0.164-2.17c-0.364-5.374-1.461-21.212-2.632-25.294-1.561-0.103-3.098-0.413-4.633-0.878-7.233-2.274-12.541-8.784-13.478-16.276-0.416-3.281-4.944-16.044-10.095-26.301-0.338-0.697-0.676-1.395-0.989-2.118-0.156-0.31-0.313-0.62-0.469-0.956-0.078-0.207-10.654-20.023-30.998-20.721-19.954 0.594-32.013 23.589-32.13 23.821zM256 13.102c-49.171 0-96.208 16.122-134.712 45.859 15.115 7.931 32.702 15.089 48.572 21.522l1.743 0.878c11.408 3.101 34.094 26.637 44.553 38.185 10.679-8.293 24.806-15.036 42.433-15.036 17.106 0 31.077 6.149 41.847 14.288 10.64-11.729 32.26-34.233 41.652-36.687l3.851-1.55c15.115-6.149 31.792-12.918 46.439-20.437-38.738-30.486-86.348-47.022-136.377-47.022z" />
<glyph unicode="&#xe675;" d="M445.224 135.717c-22.169 13.64-49.151 24.813-72.943 34.688l-4.145 1.719c-5.822 3.95-27.019 23.937-39.185 39.168-1.315 1.646-1.496 3.932-0.469 5.998 3.803 7.735 9.373 20.846 12.761 32.11 2.019 0.696 3.839 1.5 5.082 2.304 18.366 11.702 20.367 41.764 21.666 61.658l0.433 5.98c0.721 7.79-2.397 13.586-4.452 17.427-0.577 1.060-1.423 2.652-1.46 3.529 19.069 91.794-22.548 120.119-47.889 128.421-11.589 4.755-33.129 13.641-59.515 14.958-24.602-1.317-46.142-10.203-56.578-14.537-26.513-8.722-68.112-37.066-48.97-129.207-0.090-0.493-0.938-2.103-1.513-3.163-2.055-3.84-5.173-9.655-4.452-17.336l0.433-6.071c1.298-19.895 3.28-49.957 21.666-61.66 1.262-0.804 3.064-1.593 5.083-2.288 3.37-11.282 8.958-24.397 12.761-32.132 1.028-2.067 0.829-4.38-0.488-6.024-12.148-15.214-33.344-35.216-39.183-39.166l-4.272-1.807c-23.738-9.856-50.666-21.095-72.799-34.718-31.020-19.11-47.367-62.067-48.503-127.419-0.144-8.759 3.119-17.271 9.156-23.507 6.056-6.271 14.185-10.24 22.855-10.24h411.433c8.688 0 16.816 3.986 22.854 10.277 6.038 6.236 9.283 15.031 9.12 23.771-1.135 65.335-17.447 108.161-48.485 127.269zM177.64 319.763c0.090 0.164 0.18 0.329 0.27 0.493 2.65 4.938 7.57 14.098 4.867 27.118-10.381 49.865-1.532 79.798 27.415 89.381 9.732 4.022 27.846 11.464 44.934 12.489 17.429-0.933 33.255-6.931 47.871-12.909 27.812-9.143 36.661-39.077 26.296-88.96-2.703-13.020 2.236-22.181 4.867-27.118 0.090-0.146 0.18-0.31 0.271-0.474l-0.307-4.133c-0.486-7.187-1.892-28.505-5.461-34.193-0.505-0.164-0.938-0.308-1.118-0.399-8.94 0.768-16.438-6.524-17.284-15.576-0.451-4.498-6.146-20.544-12.166-32.796-0.346-0.701-0.411-1.471-0.715-2.185-0.251-0.433-0.654-0.717-0.872-1.177-0.522-1.116-13.248-27.722-39.779-27.722-26.802 0-42.41 30.373-42.753 31.049-0.006 0.011-0.017 0.018-0.022 0.029-6.028 12.248-11.729 28.229-12.125 32.74-0.829 8.849-8.111 15.506-16.69 15.615-0.469 0.111-1.009 0.238-1.513 0.385-3.821 6.436-5.209 27.135-5.678 34.212l-0.307 4.133zM52.302 10.971c1.189 54.857 13.969 83.731 33.56 95.762 19.808 12.216 47.763 22.309 70.365 31.69l8.345 1.902v0.036c0 5.534 32.434 32.527 45.082 45.356 11.798-10.024 27.263-18.567 47.553-18.567 21.357 0 42.548 8.863 53.919 18.957 10.793-12.681 36.303-40.056 54.589-45.642v0.029l-0.88-1.732c22.638-9.399 45.593-19.776 65.455-31.991 19.753-12.178 28.471-40.942 30.056-95.799h-408.044z" />
<glyph unicode="&#xe676;" d="M409.616 295.918c-1.375-29.928-22.286-70.946-62.714-122.982-41.812-54.356-77.188-81.537-106.125-81.537-17.929 0-33.099 16.536-45.482 49.644-8.278 30.356-16.554 60.714-24.821 91.071-9.207 33.090-19.072 49.644-29.626 49.644-2.295 0-10.348-4.841-24.133-14.482l-14.473 18.642c15.188 13.341 30.151 26.697 44.884 40.037 20.232 17.5 35.438 26.714 45.563 27.643 23.928 2.286 38.669-14.071 44.197-49.106 5.974-37.805 10.107-61.304 12.429-70.501 6.901-31.374 14.482-47.018 22.777-47.018 6.445 0 16.106 10.162 29 30.501 12.875 20.338 19.778 35.822 20.705 46.463 1.839 17.553-5.062 26.357-20.705 26.357-7.365 0-14.956-1.697-22.767-5.053 15.117 49.516 43.992 73.572 86.606 72.197 31.607-0.93 46.5-21.43 44.688-61.519z" />
<glyph unicode="&#xe677;" d="M256.224 390.4c-99.377 0-184.799-65.644-223.78-160 38.981-94.354 124.403-160 223.78-160 99.375 0 184.797 65.647 223.776 160-38.978 94.355-124.4 160-223.775 160zM256.224 102.4c-77.053 0-154.914 51.715-191.78 128 36.865 76.285 114.727 128 191.78 128s155.358-51.715 192.22-128c-36.863-76.285-115.168-128-192.221-128zM256.414 351.994c-56.016 0-101.578-45.563-101.578-101.563 0-56.032 45.563-101.594 101.578-101.594s101.594 45.563 101.594 101.594c0 56-45.578 101.563-101.594 101.563zM256.414 184.025c-36.609 0-66.391 29.781-66.391 66.406 0 36.594 29.781 66.375 66.391 66.375s66.406-29.782 66.406-66.375c0-36.625-29.797-66.406-66.406-66.406z" />
<glyph unicode="&#xe678;" d="M255.78 422.4c-113.588 0-211.225-78.775-255.78-192 44.554-113.225 142.191-192 255.78-192 113.586 0 211.222 78.775 255.778 192-44.555 113.225-142.192 192-255.778 192zM255.78 70.4c-92.59 0-178.207 62.385-221.123 160 42.916 97.617 128.533 160 221.123 160 92.588 0 178.205-62.385 221.121-160-42.916-97.615-128.533-160-221.121-160zM256 374.4c-61.75 0-112-50.25-112-112s50.25-112 112-112 112 50.25 112 112-50.25 112-112 112zM256 182.4c-44.109 0-80 35.875-80 80s35.891 80 80 80 80-35.875 80-80-35.89-80-80-80z" />
<glyph unicode="&#xe679;" d="M256.223 422.4c-113.588 0-211.225-78.775-255.78-192 44.554-113.225 142.191-192 255.78-192 113.586 0 211.223 78.775 255.777 192-44.555 113.225-142.192 192-255.778 192zM256.443 335.994c40.578 0 73.594-33 73.594-73.594s-33.016-73.594-73.594-73.594-73.594 33-73.594 73.594 33.016 73.594 73.594 73.594zM256.223 81.851c-86.551 0-166.862 57.754-208.571 148.549 36.879 80.281 103.963 134.553 178.828 146.088-50.733-13.369-88.444-59.221-88.444-114.088 0-65.281 53.125-118.406 118.406-118.406s118.406 53.125 118.406 118.406c0 54.808-37.637 100.613-88.283 114.039 74.625-11.731 141.444-65.972 178.224-146.039-41.709-90.795-122.017-148.549-208.568-148.549z" />
<glyph unicode="&#xe67a;" d="M143.292 84.114l1.362 50.491-1.362 45.595c-0.738 22.945-1.467 39.827-2.186 49.297-1.274 19.303-3.375 37.578-6.29 54.153-3.27 19.486-20.044 31.399-24.138 35.408-4.103 4.003-37.534 6.175-37.534 6.175v14.752l31.11 2.734c17.48 2.732 39.91 5.551 54.207 8.466 14.298 2.911 23.532 4.185 21.164 3.826l4.646 0.547c4.181-10.567 8.691-26.869 11.883-48.899 3.184-22.040 5.367-38.518 5.731-49.446l2.563-54.13 43.541 77.196c6.923 12.226 14.396 17.641 22.316 31.147 7.921 13.506 15.029 28.688 21.224 28.688h15.62l17.529-177.768c19.484 22.947 33.878 44.516 43.159 57.27 15.659 21.853 23.493 39.288 23.493 48.575 0 5.643-3.825 15.090-11.468 26.471-7.652 11.382-11.478 21.269-11.478 28.739 0 8.558 3.185 16.121 9.561 22.226 6.377 6.098 13.664 9.269 21.853 9.269 8.745 0 16.665-3.082 23.771-9.367 7.105-6.283 10.652-15.132 10.652-26.605 0-27.688-20.127-70.968-60.372-124.507-22.401-29.688-53.095-76.278-92.064-110.303h-15.572c-0.547 0-1.276 22.529-2.177 38.197-0.547 10.012-1.467 23.287-2.733 37.13-0.729 8.918-1.822 21.704-3.279 37.003l-4.651 50.601c-18.027-31.874-30.138-52.925-36.333-63.484-14.201-25.133-23.033-42.941-26.494-48.22l-31.691-51.226h-15.564z" />
<glyph unicode="&#xe67b;" d="M420.572 376.685h-94.754l-60.675-91.428-64 91.428h-94.754l111.377-146.285-108.052-146.286h201.143l-73.143 73.143 22.254 24.277 84.135-97.42h94.754l-130.101 150.643 111.815 141.928zM362.923 122.48l-10.166-9.709-172.472 228.005 10.167 9.71 172.471-228.006z" />
<glyph unicode="&#xe67c;" d="M153.1 394.596c7.578-21.971 12.277-38.522 14.421-49.82v-63.793h23.575v2.554h0.081v61.505l28.299 93.428h-0.726l0.78 2.579h-23.845l-16.077-61.865-16.756 61.865h-24.794c0.292-0.857 0.594-1.721 0.887-2.579h-0.969c4.971-14.6 10.157-29.263 15.126-43.874zM251.085 279.353c10.645 0 18.929 4.032 24.823 12.018 4.453 5.88 6.599 15.126 6.599 27.62v1.358c0.005 0.414 0.055 0.76 0.055 1.181v41.13c0 12.52-2.146 21.712-6.599 27.646-5.895 8.012-14.149 12.017-24.796 12.017-10.619 0-18.902-4.005-24.768-12.017-4.535-5.934-6.654-15.126-6.654-27.646v-0.813c-0.011-0.614-0.082-1.135-0.082-1.766v-41.089c0-12.494 2.145-21.74 6.655-27.62 5.893-7.986 14.148-12.018 24.767-12.018zM251.085 380.623c6.844 0 10.129-5.404 10.129-16.28v-47.754c-0.21-10.147-3.428-15.333-10.048-15.333-6.898 0-10.183 5.418-10.183 16.267v47.457c0.145 10.394 3.411 15.643 10.101 15.643zM315.585 279.353c7.739 0 15.805 4.699 24.279 14.421v-12.792h21.264v2.554h0.082v117.361h-21.264v-2.553h-0.080v-87.235c-4.697-6.578-9.123-9.853-13.363-9.853-2.851 0-4.508 1.656-4.97 4.97-0.271 0.692-0.271 3.286-0.271 8.269v86.402h-21.21v-2.553h-0.055v-92.812c0-8.282 0.733-13.89 1.901-17.448 2.12-5.933 6.844-8.731 13.688-8.731zM372.614 164.395c-7.005 0-10.537-5.392-10.537-16.132v-10.726h21.048v10.726c0 10.74-3.53 16.132-10.511 16.132zM294.537 164.395c-3.476 0-6.979-1.671-10.483-5.118v-70.8c3.505-3.518 7.007-5.188 10.483-5.188 6.057 0 9.152 5.188 9.152 15.669v49.576c0 10.469-3.095 15.861-9.152 15.861zM424.078 223.409c-4.264 18.521-19.418 32.182-37.639 34.204-43.181 4.847-86.879 4.861-130.411 4.847-43.507 0.014-87.203 0-130.384-4.847-18.222-2.023-33.377-15.683-37.612-34.204-6.082-26.384-6.138-55.144-6.138-82.316 0-27.143 0-55.943 6.057-82.286 4.237-18.536 19.389-32.197 37.614-34.232 43.179-4.82 86.876-4.848 130.41-4.82 43.507-0.028 87.203 0 130.383 4.82 18.224 2.036 33.405 15.697 37.642 34.232 6.056 26.342 6.11 55.143 6.11 82.286 0 27.172 0.028 55.932-6.029 82.316zM181.208 199.687h-25.227v-133.928h-23.411v133.928h-24.74v21.957h73.379v-21.957zM244.785 65.76h-21.048v12.697c-8.363-9.627-16.321-14.286-24.061-14.286-6.789 0-11.461 2.743-13.552 8.636-1.167 3.53-1.847 9.043-1.847 17.272v91.819h21.020v-85.505c0-4.902 0-7.509 0.218-8.175 0.489-3.259 2.091-4.928 4.915-4.928 4.21 0 8.636 3.259 13.307 9.858v88.75h21.048v-116.139zM324.736 100.615c0-10.741-0.733-18.48-2.12-23.396-2.824-8.649-8.445-13.049-16.837-13.049-7.469 0-14.72 4.155-21.726 12.86v-11.27h-21.047v155.884h21.047v-50.919c6.79 8.365 13.988 12.599 21.726 12.599 8.392 0 14.014-4.412 16.837-13.116 1.386-4.672 2.12-12.357 2.12-23.329v-46.262zM404.145 119.993h-42.068v-20.586c0-10.742 3.531-16.118 10.728-16.118 5.188 0 8.202 2.812 9.425 8.445 0.188 1.142 0.433 5.813 0.433 14.271h21.482v-3.096c0-6.762-0.245-11.432-0.434-13.551-0.707-4.658-2.363-8.854-4.915-12.615-5.841-8.418-14.476-12.574-25.447-12.574-11.026 0-19.389 3.978-25.473 11.882-4.481 5.798-6.764 14.991-6.764 27.32v40.682c0 12.411 2.037 21.481 6.519 27.361 6.056 7.957 14.447 11.908 25.174 11.908 10.565 0 18.957-3.95 24.849-11.908 4.399-5.88 6.491-14.951 6.491-27.361v-24.060z" />
</font>
</defs>
</svg>
